<svg xmlns="http://www.w3.org/2000/svg" xmlns:xlink="http://www.w3.org/1999/xlink" width="2304" height="768" version="1.1" viewBox="0 0 1728 576"><defs><style type="text/css">*{stroke-linecap:butt;stroke-linejoin:round}</style></defs><g id="figure_1"><g id="patch_1"><path d="M 0 576 L 1728 576 L 1728 0 L 0 0 z" style="fill:none"/></g><g id="axes_1"><g id="patch_2"><path d="M 17.28 262.341818 L 385.41913 262.341818 L 385.41913 5.76 L 17.28 5.76 z" style="fill:none"/></g><g id="PathCollection_1"><defs><path id="m36f158fecf" d="M 0 3 C 0.795609 3 1.55874 2.683901 2.12132 2.12132 C 2.683901 1.55874 3 0.795609 3 0 C 3 -0.795609 2.683901 -1.55874 2.12132 -2.12132 C 1.55874 -2.683901 0.795609 -3 0 -3 C -0.795609 -3 -1.55874 -2.683901 -2.12132 -2.12132 C -2.683901 -1.55874 -3 -0.795609 -3 0 C -3 0.795609 -2.683901 1.55874 -2.12132 2.12132 C -1.55874 2.683901 -0.795609 3 0 3 z" style="stroke:#000"/></defs><g clip-path="url(#pdf394b5917)"><use style="fill:gray;stroke:#000" x="34.014" y="165.008" xlink:href="#m36f158fecf"/><use style="fill:gray;stroke:#000" x="37.394" y="182.63" xlink:href="#m36f158fecf"/><use style="fill:gray;stroke:#000" x="40.775" y="166.072" xlink:href="#m36f158fecf"/><use style="fill:gray;stroke:#000" x="44.155" y="159.774" xlink:href="#m36f158fecf"/><use style="fill:gray;stroke:#000" x="47.536" y="117.69" xlink:href="#m36f158fecf"/><use style="fill:gray;stroke:#000" x="50.916" y="153.461" xlink:href="#m36f158fecf"/><use style="fill:gray;stroke:#000" x="54.297" y="83.506" xlink:href="#m36f158fecf"/><use style="fill:gray;stroke:#000" x="57.677" y="113.558" xlink:href="#m36f158fecf"/><use style="fill:gray;stroke:#000" x="61.058" y="92.442" xlink:href="#m36f158fecf"/><use style="fill:gray;stroke:#000" x="64.438" y="98.396" xlink:href="#m36f158fecf"/><use style="fill:gray;stroke:#000" x="67.819" y="72.791" xlink:href="#m36f158fecf"/><use style="fill:gray;stroke:#000" x="71.199" y="127.719" xlink:href="#m36f158fecf"/><use style="fill:gray;stroke:#000" x="74.58" y="106.389" xlink:href="#m36f158fecf"/><use style="fill:gray;stroke:#000" x="77.96" y="113.958" xlink:href="#m36f158fecf"/><use style="fill:gray;stroke:#000" x="81.341" y="99.702" xlink:href="#m36f158fecf"/><use style="fill:gray;stroke:#000" x="84.721" y="142.857" xlink:href="#m36f158fecf"/><use style="fill:gray;stroke:#000" x="88.102" y="139.845" xlink:href="#m36f158fecf"/><use style="fill:gray;stroke:#000" x="91.483" y="161.807" xlink:href="#m36f158fecf"/><use style="fill:gray;stroke:#000" x="94.863" y="159.662" xlink:href="#m36f158fecf"/><use style="fill:gray;stroke:#000" x="98.244" y="162.896" xlink:href="#m36f158fecf"/><use style="fill:gray;stroke:#000" x="101.624" y="198.609" xlink:href="#m36f158fecf"/><use style="fill:gray;stroke:#000" x="105.005" y="174.546" xlink:href="#m36f158fecf"/><use style="fill:gray;stroke:#000" x="108.385" y="186.13" xlink:href="#m36f158fecf"/><use style="fill:gray;stroke:#000" x="111.766" y="198.221" xlink:href="#m36f158fecf"/><use style="fill:gray;stroke:#000" x="115.146" y="196.331" xlink:href="#m36f158fecf"/><use style="fill:gray;stroke:#000" x="118.527" y="221.774" xlink:href="#m36f158fecf"/><use style="fill:gray;stroke:#000" x="121.907" y="212.812" xlink:href="#m36f158fecf"/><use style="fill:gray;stroke:#000" x="125.288" y="221.945" xlink:href="#m36f158fecf"/><use style="fill:gray;stroke:#000" x="128.668" y="206.61" xlink:href="#m36f158fecf"/><use style="fill:gray;stroke:#000" x="132.049" y="187.094" xlink:href="#m36f158fecf"/><use style="fill:gray;stroke:#000" x="135.429" y="195.704" xlink:href="#m36f158fecf"/><use style="fill:gray;stroke:#000" x="138.81" y="179.911" xlink:href="#m36f158fecf"/><use style="fill:gray;stroke:#000" x="142.19" y="171.428" xlink:href="#m36f158fecf"/><use style="fill:gray;stroke:#000" x="145.571" y="159.922" xlink:href="#m36f158fecf"/><use style="fill:gray;stroke:#000" x="148.951" y="142.83" xlink:href="#m36f158fecf"/><use style="fill:gray;stroke:#000" x="152.332" y="118.314" xlink:href="#m36f158fecf"/><use style="fill:gray;stroke:#000" x="155.712" y="120.375" xlink:href="#m36f158fecf"/><use style="fill:gray;stroke:#000" x="159.093" y="86.468" xlink:href="#m36f158fecf"/><use style="fill:gray;stroke:#000" x="162.474" y="52.58" xlink:href="#m36f158fecf"/><use style="fill:gray;stroke:#000" x="165.854" y="55.174" xlink:href="#m36f158fecf"/><use style="fill:gray;stroke:#000" x="169.235" y="59.85" xlink:href="#m36f158fecf"/><use style="fill:gray;stroke:#000" x="172.615" y="63.093" xlink:href="#m36f158fecf"/><use style="fill:gray;stroke:#000" x="175.996" y="56.184" xlink:href="#m36f158fecf"/><use style="fill:gray;stroke:#000" x="179.376" y="17.423" xlink:href="#m36f158fecf"/><use style="fill:gray;stroke:#000" x="182.757" y="42.11" xlink:href="#m36f158fecf"/><use style="fill:gray;stroke:#000" x="186.137" y="55.059" xlink:href="#m36f158fecf"/><use style="fill:gray;stroke:#000" x="189.518" y="47.779" xlink:href="#m36f158fecf"/><use style="fill:gray;stroke:#000" x="192.898" y="26.572" xlink:href="#m36f158fecf"/><use style="fill:gray;stroke:#000" x="196.279" y="65.387" xlink:href="#m36f158fecf"/><use style="fill:gray;stroke:#000" x="199.659" y="68.873" xlink:href="#m36f158fecf"/><use style="fill:gray;stroke:#000" x="203.04" y="85.793" xlink:href="#m36f158fecf"/><use style="fill:gray;stroke:#000" x="206.42" y="108.595" xlink:href="#m36f158fecf"/><use style="fill:gray;stroke:#000" x="209.801" y="133.895" xlink:href="#m36f158fecf"/><use style="fill:gray;stroke:#000" x="213.181" y="135.554" xlink:href="#m36f158fecf"/><use style="fill:gray;stroke:#000" x="216.562" y="146.508" xlink:href="#m36f158fecf"/><use style="fill:gray;stroke:#000" x="219.942" y="146.808" xlink:href="#m36f158fecf"/><use style="fill:gray;stroke:#000" x="223.323" y="153.946" xlink:href="#m36f158fecf"/><use style="fill:gray;stroke:#000" x="226.703" y="161.855" xlink:href="#m36f158fecf"/><use style="fill:gray;stroke:#000" x="230.084" y="178.856" xlink:href="#m36f158fecf"/><use style="fill:gray;stroke:#000" x="233.465" y="175.124" xlink:href="#m36f158fecf"/><use style="fill:gray;stroke:#000" x="236.845" y="202.51" xlink:href="#m36f158fecf"/><use style="fill:gray;stroke:#000" x="240.226" y="173.074" xlink:href="#m36f158fecf"/><use style="fill:gray;stroke:#000" x="243.606" y="182.263" xlink:href="#m36f158fecf"/><use style="fill:gray;stroke:#000" x="246.987" y="190.212" xlink:href="#m36f158fecf"/><use style="fill:gray;stroke:#000" x="250.367" y="172.17" xlink:href="#m36f158fecf"/><use style="fill:gray;stroke:#000" x="253.748" y="172.383" xlink:href="#m36f158fecf"/><use style="fill:gray;stroke:#000" x="257.128" y="144.544" xlink:href="#m36f158fecf"/><use style="fill:gray;stroke:#000" x="260.509" y="127.673" xlink:href="#m36f158fecf"/><use style="fill:gray;stroke:#000" x="263.889" y="105.796" xlink:href="#m36f158fecf"/><use style="fill:gray;stroke:#000" x="267.27" y="146.895" xlink:href="#m36f158fecf"/><use style="fill:gray;stroke:#000" x="270.65" y="135.241" xlink:href="#m36f158fecf"/><use style="fill:gray;stroke:#000" x="274.031" y="109.301" xlink:href="#m36f158fecf"/><use style="fill:gray;stroke:#000" x="277.411" y="88.354" xlink:href="#m36f158fecf"/><use style="fill:gray;stroke:#000" x="280.792" y="67.924" xlink:href="#m36f158fecf"/><use style="fill:gray;stroke:#000" x="284.172" y="68.203" xlink:href="#m36f158fecf"/><use style="fill:gray;stroke:#000" x="287.553" y="96.977" xlink:href="#m36f158fecf"/><use style="fill:gray;stroke:#000" x="290.933" y="67.447" xlink:href="#m36f158fecf"/><use style="fill:gray;stroke:#000" x="294.314" y="48.989" xlink:href="#m36f158fecf"/><use style="fill:gray;stroke:#000" x="297.695" y="58.874" xlink:href="#m36f158fecf"/><use style="fill:gray;stroke:#000" x="301.075" y="54.401" xlink:href="#m36f158fecf"/><use style="fill:gray;stroke:#000" x="304.456" y="75.005" xlink:href="#m36f158fecf"/><use style="fill:gray;stroke:#000" x="307.836" y="82.897" xlink:href="#m36f158fecf"/><use style="fill:gray;stroke:#000" x="311.217" y="87.418" xlink:href="#m36f158fecf"/><use style="fill:gray;stroke:#000" x="314.597" y="96.189" xlink:href="#m36f158fecf"/><use style="fill:gray;stroke:#000" x="317.978" y="112.921" xlink:href="#m36f158fecf"/><use style="fill:gray;stroke:#000" x="321.358" y="128.751" xlink:href="#m36f158fecf"/><use style="fill:gray;stroke:#000" x="324.739" y="155.84" xlink:href="#m36f158fecf"/><use style="fill:gray;stroke:#000" x="328.119" y="155.704" xlink:href="#m36f158fecf"/><use style="fill:gray;stroke:#000" x="331.5" y="174.796" xlink:href="#m36f158fecf"/><use style="fill:gray;stroke:#000" x="334.88" y="174.351" xlink:href="#m36f158fecf"/><use style="fill:gray;stroke:#000" x="338.261" y="186.818" xlink:href="#m36f158fecf"/><use style="fill:gray;stroke:#000" x="341.641" y="213.982" xlink:href="#m36f158fecf"/><use style="fill:gray;stroke:#000" x="345.022" y="232.577" xlink:href="#m36f158fecf"/><use style="fill:gray;stroke:#000" x="348.402" y="244.666" xlink:href="#m36f158fecf"/><use style="fill:gray;stroke:#000" x="351.783" y="234.694" xlink:href="#m36f158fecf"/><use style="fill:gray;stroke:#000" x="355.163" y="243.348" xlink:href="#m36f158fecf"/><use style="fill:gray;stroke:#000" x="358.544" y="250.679" xlink:href="#m36f158fecf"/><use style="fill:gray;stroke:#000" x="361.924" y="243.532" xlink:href="#m36f158fecf"/><use style="fill:gray;stroke:#000" x="365.305" y="249.784" xlink:href="#m36f158fecf"/><use style="fill:gray;stroke:#000" x="368.686" y="224.355" xlink:href="#m36f158fecf"/></g></g><g id="line2d_1"><path d="M 34.013597 131.576599 L 37.394121 131.576599 L 40.774646 131.576599 L 44.155171 131.576599 L 47.535695 131.576599 L 50.91622 131.576599 L 54.296745 131.576599 L 57.677269 131.576599 L 61.057794 131.576599 L 64.438318 131.576599 L 67.818843 131.576599 L 71.199368 131.576599 L 74.579892 131.576599 L 77.960417 131.576599 L 81.340941 131.576599 L 84.721466 131.576599 L 88.101991 165.201366 L 91.482515 165.201366 L 94.86304 165.201366 L 98.243564 165.201366 L 101.624089 165.201366 L 105.004614 165.201366 L 108.385138 165.201366 L 111.765663 165.201366 L 115.146188 165.201366 L 118.526712 165.201366 L 121.907237 165.201366 L 125.287761 165.201366 L 128.668286 165.201366 L 132.048811 165.201366 L 135.429335 165.201366 L 138.80986 165.201366 L 142.190384 165.201366 L 145.570909 165.201366 L 148.951434 165.201366 L 152.331958 165.201366 L 155.712483 165.201366 L 159.093008 165.201366 L 162.473532 165.201366 L 165.854057 165.201366 L 169.234581 165.201366 L 172.615106 165.201366 L 175.995631 165.201366 L 179.376155 165.201366 L 182.75668 165.201366 L 186.137204 165.201366 L 189.517729 165.201366 L 192.898254 165.201366 L 196.278778 165.201366 L 199.659303 165.201366 L 203.039828 165.201366 L 206.420352 165.201366 L 209.800877 165.201366 L 213.181401 165.201366 L 216.561926 165.201366 L 219.942451 165.201366 L 223.322975 165.201366 L 226.7035 165.201366 L 230.084024 165.201366 L 233.464549 165.201366 L 236.845074 165.201366 L 240.225598 165.201366 L 243.606123 165.201366 L 246.986648 165.201366 L 250.367172 165.201366 L 253.747697 165.201366 L 257.128221 165.201366 L 260.508746 83.02881 L 263.889271 83.02881 L 267.269795 83.02881 L 270.65032 83.02881 L 274.030844 83.02881 L 277.411369 83.02881 L 280.791894 83.02881 L 284.172418 83.02881 L 287.552943 83.02881 L 290.933467 83.02881 L 294.313992 83.02881 L 297.694517 83.02881 L 301.075041 83.02881 L 304.455566 83.02881 L 307.836091 83.02881 L 311.216615 83.02881 L 314.59714 83.02881 L 317.977664 83.02881 L 321.358189 168.477211 L 324.738714 168.477211 L 328.119238 168.477211 L 331.499763 168.477211 L 334.880287 168.477211 L 338.260812 186.818217 L 341.641337 213.982413 L 345.021861 213.982413 L 348.402386 248.52563 L 351.782911 248.52563 L 355.163435 248.52563 L 358.54396 248.52563 L 361.924484 248.52563 L 365.305009 248.52563 L 368.685534 224.355143" clip-path="url(#pdf394b5917)" style="fill:none;stroke:#00f;stroke-linecap:square;stroke-width:3"/></g><g id="patch_3"><path d="M 17.28 262.341818 L 17.28 5.76" style="fill:none;stroke:#000;stroke-linecap:square;stroke-linejoin:miter;stroke-width:.8"/></g><g id="patch_4"><path d="M 17.28 262.341818 L 385.41913 262.341818" style="fill:none;stroke:#000;stroke-linecap:square;stroke-linejoin:miter;stroke-width:.8"/></g></g></g><defs><clipPath id="pdf394b5917"><rect width="368.139" height="256.582" x="17.28" y="5.76"/></clipPath></defs></svg>