<svg xmlns="http://www.w3.org/2000/svg" xmlns:xlink="http://www.w3.org/1999/xlink" width="384" height="288" version="1.1" viewBox="0 0 288 216"><defs><style type="text/css">*{stroke-linecap:butt;stroke-linejoin:round}</style></defs><g id="figure_1"><g id="patch_1"><path d="M 0 216 L 288 216 L 288 0 L 0 0 z" style="fill:none"/></g><g id="axes_1"><g id="patch_2"><path d="M 2.88 213.84 L 285.12 213.84 L 285.12 2.16 L 2.88 2.16 z" style="fill:none"/></g><g id="PathCollection_1"><defs><path id="m782fe45ce2" d="M 0 4.743416 C 1.257969 4.743416 2.464584 4.24362 3.354102 3.354102 C 4.24362 2.464584 4.743416 1.257969 4.743416 0 C 4.743416 -1.257969 4.24362 -2.464584 3.354102 -3.354102 C 2.464584 -4.24362 1.257969 -4.743416 0 -4.743416 C -1.257969 -4.743416 -2.464584 -4.24362 -3.354102 -3.354102 C -4.24362 -2.464584 -4.743416 -1.257969 -4.743416 0 C -4.743416 1.257969 -4.24362 2.464584 -3.354102 3.354102 C -2.464584 4.24362 -1.257969 4.743416 0 4.743416 z" style="stroke:#000"/></defs><g clip-path="url(#p099d25a6af)"><use style="fill:#1f77b4;stroke:#000" x="43.2" y="183.6" xlink:href="#m782fe45ce2"/><use style="fill:#1f77b4;stroke:#000" x="43.2" y="123.12" xlink:href="#m782fe45ce2"/><use style="fill:#1f77b4;stroke:#000" x="63.36" y="153.36" xlink:href="#m782fe45ce2"/><use style="fill:#1f77b4;stroke:#000" x="59.328" y="80.784" xlink:href="#m782fe45ce2"/><use style="fill:#1f77b4;stroke:#000" x="23.04" y="32.4" xlink:href="#m782fe45ce2"/><use style="fill:#1f77b4;stroke:#000" x="83.52" y="44.496" xlink:href="#m782fe45ce2"/></g></g><g id="PathCollection_2"><g clip-path="url(#p099d25a6af)"><use style="fill:#1f77b4;stroke:#000" x="123.84" y="17.28" xlink:href="#m782fe45ce2"/><use style="fill:#1f77b4;stroke:#000" x="164.16" y="47.52" xlink:href="#m782fe45ce2"/><use style="fill:#1f77b4;stroke:#000" x="204.48" y="38.448" xlink:href="#m782fe45ce2"/></g></g><g id="PathCollection_3"><defs><path id="me687827090" d="M -4.743416 4.743416 L 4.743416 4.743416 L 4.743416 -4.743416 L -4.743416 -4.743416 z" style="stroke:#000"/></defs><g clip-path="url(#p099d25a6af)"><use style="fill:#ff7f0e;stroke:#000" x="123.84" y="183.6" xlink:href="#me687827090"/><use style="fill:#ff7f0e;stroke:#000" x="123.84" y="92.88" xlink:href="#me687827090"/><use style="fill:#ff7f0e;stroke:#000" x="144" y="153.36" xlink:href="#me687827090"/><use style="fill:#ff7f0e;stroke:#000" x="204.48" y="77.76" xlink:href="#me687827090"/><use style="fill:#ff7f0e;stroke:#000" x="204.48" y="183.6" xlink:href="#me687827090"/><use style="fill:#ff7f0e;stroke:#000" x="252.864" y="123.12" xlink:href="#me687827090"/><use style="fill:#ff7f0e;stroke:#000" x="196.416" y="129.168" xlink:href="#me687827090"/></g></g><g id="PathCollection_4"><g clip-path="url(#p099d25a6af)"><use style="fill:#ff7f0e;stroke:#000" x="244.8" y="32.4" xlink:href="#me687827090"/></g></g><g id="patch_3"><path d="M 2.88 213.84 L 2.88 2.16" style="fill:none;stroke:#000;stroke-linecap:square;stroke-linejoin:miter;stroke-width:.8"/></g><g id="patch_4"><path d="M 2.88 213.84 L 285.12 213.84" style="fill:none;stroke:#000;stroke-linecap:square;stroke-linejoin:miter;stroke-width:.8"/></g></g></g><defs><clipPath id="p099d25a6af"><rect width="282.24" height="211.68" x="2.88" y="2.16"/></clipPath></defs></svg>