<svg xmlns="http://www.w3.org/2000/svg" xmlns:xlink="http://www.w3.org/1999/xlink" width="1152" height="384" version="1.1" viewBox="0 0 864 288"><defs><style type="text/css">*{stroke-linecap:butt;stroke-linejoin:round}</style></defs><g id="figure_1"><g id="patch_1"><path d="M 0 288 L 864 288 L 864 0 L 0 0 z" style="fill:none"/></g><g id="axes_1"><g id="patch_2"><path d="M 8.64 285.12 L 257.675294 285.12 L 257.675294 2.88 L 8.64 2.88 z" style="fill:none"/></g><g id="PathCollection_1"><defs><path id="m837c777e26" d="M 0 6.324555 C 1.677292 6.324555 3.286112 5.65816 4.472136 4.472136 C 5.65816 3.286112 6.324555 1.677292 6.324555 0 C 6.324555 -1.677292 5.65816 -3.286112 4.472136 -4.472136 C 3.286112 -5.65816 1.677292 -6.324555 0 -6.324555 C -1.677292 -6.324555 -3.286112 -5.65816 -4.472136 -4.472136 C -5.65816 -3.286112 -6.324555 -1.677292 -6.324555 0 C -6.324555 1.677292 -5.65816 3.286112 -4.472136 4.472136 C -3.286112 5.65816 -1.677292 6.324555 0 6.324555 z" style="stroke:#000"/></defs><g clip-path="url(#p6d49b98e83)"><use style="fill:#1f77b4;stroke:#000" x="44.216" y="244.8" xlink:href="#m837c777e26"/><use style="fill:#1f77b4;stroke:#000" x="44.216" y="164.16" xlink:href="#m837c777e26"/><use style="fill:#1f77b4;stroke:#000" x="62.005" y="204.48" xlink:href="#m837c777e26"/><use style="fill:#1f77b4;stroke:#000" x="186.522" y="51.264" xlink:href="#m837c777e26"/></g></g><g id="PathCollection_2"><defs><path id="m405630f823" d="M -6.324555 6.324555 L 6.324555 6.324555 L 6.324555 -6.324555 L -6.324555 -6.324555 z" style="stroke:#000"/></defs><g clip-path="url(#p6d49b98e83)"><use style="fill:#ff7f0e;stroke:#000" x="115.369" y="244.8" xlink:href="#m405630f823"/><use style="fill:#ff7f0e;stroke:#000" x="115.369" y="123.84" xlink:href="#m405630f823"/><use style="fill:#ff7f0e;stroke:#000" x="133.158" y="204.48" xlink:href="#m405630f823"/><use style="fill:#ff7f0e;stroke:#000" x="186.522" y="244.8" xlink:href="#m405630f823"/></g></g><g id="patch_3"><path d="M 8.64 285.12 L 8.64 2.88" style="fill:none;stroke:#000;stroke-linecap:square;stroke-linejoin:miter;stroke-width:.8"/></g><g id="patch_4"><path d="M 8.64 285.12 L 257.675294 285.12" style="fill:none;stroke:#000;stroke-linecap:square;stroke-linejoin:miter;stroke-width:.8"/></g></g><g id="axes_2"><g id="patch_5"><path d="M 307.482353 285.12 L 556.517647 285.12 L 556.517647 2.88 L 307.482353 2.88 z" style="fill:none"/></g><g id="PathCollection_3"><g clip-path="url(#p8399dfd53c)"><use style="fill:#1f77b4;stroke:#000" x="325.271" y="43.2" xlink:href="#m837c777e26"/><use style="fill:#1f77b4;stroke:#000" x="378.635" y="59.328" xlink:href="#m837c777e26"/><use style="fill:#1f77b4;stroke:#000" x="449.788" y="63.36" xlink:href="#m837c777e26"/><use style="fill:#1f77b4;stroke:#000" x="485.365" y="51.264" xlink:href="#m837c777e26"/></g></g><g id="PathCollection_4"><g clip-path="url(#p8399dfd53c)"><use style="fill:#ff7f0e;stroke:#000" x="414.212" y="244.8" xlink:href="#m405630f823"/><use style="fill:#ff7f0e;stroke:#000" x="432" y="204.48" xlink:href="#m405630f823"/><use style="fill:#ff7f0e;stroke:#000" x="528.056" y="164.16" xlink:href="#m405630f823"/><use style="fill:#ff7f0e;stroke:#000" x="478.249" y="172.224" xlink:href="#m405630f823"/></g></g><g id="patch_6"><path d="M 307.482353 285.12 L 307.482353 2.88" style="fill:none;stroke:#000;stroke-linecap:square;stroke-linejoin:miter;stroke-width:.8"/></g><g id="patch_7"><path d="M 307.482353 285.12 L 556.517647 285.12" style="fill:none;stroke:#000;stroke-linecap:square;stroke-linejoin:miter;stroke-width:.8"/></g></g><g id="axes_3"><g id="patch_8"><path d="M 606.324706 285.12 L 855.36 285.12 L 855.36 2.88 L 606.324706 2.88 z" style="fill:none"/></g><g id="PathCollection_5"><g clip-path="url(#p015fdcad5e)"><use style="fill:#1f77b4;stroke:#000" x="641.901" y="244.8" xlink:href="#m837c777e26"/><use style="fill:#1f77b4;stroke:#000" x="659.689" y="204.48" xlink:href="#m837c777e26"/><use style="fill:#1f77b4;stroke:#000" x="656.132" y="107.712" xlink:href="#m837c777e26"/><use style="fill:#1f77b4;stroke:#000" x="713.054" y="23.04" xlink:href="#m837c777e26"/><use style="fill:#1f77b4;stroke:#000" x="748.631" y="63.36" xlink:href="#m837c777e26"/></g></g><g id="PathCollection_6"><g clip-path="url(#p015fdcad5e)"><use style="fill:#ff7f0e;stroke:#000" x="713.054" y="244.8" xlink:href="#m405630f823"/><use style="fill:#ff7f0e;stroke:#000" x="784.207" y="103.68" xlink:href="#m405630f823"/><use style="fill:#ff7f0e;stroke:#000" x="784.207" y="244.8" xlink:href="#m405630f823"/><use style="fill:#ff7f0e;stroke:#000" x="826.899" y="164.16" xlink:href="#m405630f823"/></g></g><g id="patch_9"><path d="M 606.324706 285.12 L 606.324706 2.88" style="fill:none;stroke:#000;stroke-linecap:square;stroke-linejoin:miter;stroke-width:.8"/></g><g id="patch_10"><path d="M 606.324706 285.12 L 855.36 285.12" style="fill:none;stroke:#000;stroke-linecap:square;stroke-linejoin:miter;stroke-width:.8"/></g></g></g><defs><clipPath id="p6d49b98e83"><rect width="249.035" height="282.24" x="8.64" y="2.88"/></clipPath><clipPath id="p8399dfd53c"><rect width="249.035" height="282.24" x="307.482" y="2.88"/></clipPath><clipPath id="p015fdcad5e"><rect width="249.035" height="282.24" x="606.325" y="2.88"/></clipPath></defs></svg>