<svg xmlns="http://www.w3.org/2000/svg" xmlns:xlink="http://www.w3.org/1999/xlink" fill="none" stroke="none" stroke-linecap="square" stroke-miterlimit="10" version="1.1" viewBox="0 0 809.029 216.961"><clipPath id="p.0"><path d="m0 0l809.0289 0l0 216.96063l-809.0289 0l0 -216.96063z" clip-rule="nonzero"/></clipPath><g clip-path="url(#p.0)"><path fill="#000" fill-opacity="0" fill-rule="evenodd" d="m0 0l809.0289 0l0 216.96063l-809.0289 0z"/><path fill="#000" fill-opacity="0" fill-rule="evenodd" d="m44.0 5.43832l88.53543 0l0 73.38583l-88.53543 0z"/><path fill-rule="evenodd" stroke="#000" stroke-linecap="butt" stroke-linejoin="round" stroke-width="2" d="m44.0 5.43832l88.53543 0l0 73.38583l-88.53543 0z"/><path fill="#666" fill-rule="nonzero" d="m59.902054 30.973106l0 -17.5l1.421875 0l0 17.5l-1.421875 0z"/><path fill="#666" fill-rule="nonzero" d="m59.902054 52.973106l0 -17.5l1.421875 0l0 17.5l-1.421875 0z"/><path fill="#666" fill-rule="nonzero" d="m59.902054 74.973114l0 -17.500004l1.421875 0l0 17.500004l-1.421875 0z"/><path fill="#f90" fill-rule="evenodd" d="m132.53543 160.38846l32.62993 0l0 38.45668l-32.62993 0z"/><path fill-rule="evenodd" stroke="#000" stroke-linecap="butt" stroke-linejoin="round" stroke-width="1" d="m132.53543 160.38846l32.62993 0l0 38.45668l-32.62993 0z"/><path fill="#000" fill-opacity="0" fill-rule="evenodd" d="m88.267715 78.82415l60.59842 81.57481"/><path fill-rule="evenodd" stroke="#000" stroke-linecap="butt" stroke-linejoin="round" stroke-width="4" d="m88.267715 78.82415l46.28665 62.308952"/><path fill="#000" fill-rule="evenodd" stroke="#000" stroke-linecap="butt" stroke-width="4" d="m129.25069 145.07297l16.128387 10.631851l-5.521042 -18.511597z"/><path fill="#000" fill-opacity="0" fill-rule="evenodd" d="m315.42914 128.94226l0 -88.53543l73.38583 0l0 88.53543z"/><path fill-rule="evenodd" stroke="#000" stroke-linecap="butt" stroke-linejoin="round" stroke-width="2" d="m315.42914 128.94226l0 -88.53543l73.38583 0l0 88.53543z"/><path fill="#666" fill-rule="nonzero" d="m340.96393 81.940384l-17.5 0l0 -1.421875l17.5 0l0 1.421875z"/><path fill="#666" fill-rule="nonzero" d="m362.96393 81.940384l-17.5 0l0 -1.421875l17.5 0l0 1.421875z"/><path fill="#666" fill-rule="nonzero" d="m384.96393 81.940384l-17.5 0l0 -1.421875l17.5 0l0 1.421875z"/><path fill="#4a86e8" fill-rule="evenodd" d="m489.6181 44.475067l0 0c-10.297699 0 -18.64566 -8.087078 -18.64566 -18.062994l0 0c0 -4.7906036 1.964447 -9.384996 5.4611816 -12.772464c3.4967346 -3.3874683 8.239349 -5.2905283 13.184479 -5.2905283l0 0c10.2977295 0 18.64569 8.087078 18.64569 18.062992l0 0c0 9.975916 -8.347961 18.062994 -18.64569 18.062994z"/><path fill-rule="evenodd" stroke="#000" stroke-linecap="butt" stroke-linejoin="round" stroke-width="1" d="m489.6181 44.475067l0 0c-10.297699 0 -18.64566 -8.087078 -18.64566 -18.062994l0 0c0 -4.7906036 1.964447 -9.384996 5.4611816 -12.772464c3.4967346 -3.3874683 8.239349 -5.2905283 13.184479 -5.2905283l0 0c10.2977295 0 18.64569 8.087078 18.64569 18.062992l0 0c0 9.975916 -8.347961 18.062994 -18.64569 18.062994z"/><path fill="#000" fill-opacity="0" fill-rule="evenodd" d="m388.81497 84.67454l82.17322 -58.267715"/><path fill-rule="evenodd" stroke="#000" stroke-linecap="butt" stroke-linejoin="round" stroke-width="4" d="m388.81497 84.67454l62.59558 -44.385513"/><path fill="#000" fill-rule="evenodd" stroke="#000" stroke-linecap="butt" stroke-width="4" d="m455.23215 45.67853l10.985931 -15.889305l-18.62915 5.1102905z"/><path fill="#000" fill-opacity="0" fill-rule="evenodd" d="m658.83466 8.349081l88.5354 0l0 73.385826l-88.5354 0z"/><path fill-rule="evenodd" stroke="#000" stroke-linecap="butt" stroke-linejoin="round" stroke-width="2" d="m658.83466 8.349081l88.5354 0l0 73.385826l-88.5354 0z"/><path fill="#666" fill-rule="nonzero" d="m717.5534 33.88387l0 -17.500002l1.421875 0l0 17.500002l-1.421875 0z"/><path fill="#666" fill-rule="nonzero" d="m717.5534 55.88387l0 -17.5l1.421875 0l0 17.5l-1.421875 0z"/><path fill="#666" fill-rule="nonzero" d="m717.5534 77.88387l0 -17.5l1.421875 0l0 17.5l-1.421875 0z"/><path fill="#4a86e8" fill-rule="evenodd" d="m632.0105 179.61679l0 0c0 -10.297714 8.087097 -18.64566 18.062988 -18.64566l0 0c4.7905884 0 9.38501 1.964447 12.772461 5.4611816c3.3874512 3.4967499 5.2905273 8.239349 5.2905273 13.184479l0 0c0 10.2977295 -8.087097 18.645676 -18.062988 18.645676l0 0c-9.975891 0 -18.062988 -8.347946 -18.062988 -18.645676z"/><path fill-rule="evenodd" stroke="#000" stroke-linecap="butt" stroke-linejoin="round" stroke-width="1" d="m632.0105 179.61679l0 0c0 -10.297714 8.087097 -18.64566 18.062988 -18.64566l0 0c4.7905884 0 9.38501 1.964447 12.772461 5.4611816c3.3874512 3.4967499 5.2905273 8.239349 5.2905273 13.184479l0 0c0 10.2977295 -8.087097 18.645676 -18.062988 18.645676l0 0c-9.975891 0 -18.062988 -8.347946 -18.062988 -18.645676z"/><path fill="#000" fill-opacity="0" fill-rule="evenodd" d="m703.10236 81.73491l-53.039368 79.244095"/><path fill-rule="evenodd" stroke="#000" stroke-linecap="butt" stroke-linejoin="round" stroke-width="4" d="m703.10236 81.73491l-39.690002 59.299316"/><path fill="#000" fill-rule="evenodd" stroke="#000" stroke-linecap="butt" stroke-width="4" d="m657.9218 137.35928l-4.606262 18.760162l15.587402 -11.410294z"/></g></svg>