<svg xmlns="http://www.w3.org/2000/svg" xmlns:xlink="http://www.w3.org/1999/xlink" width="384" height="288" version="1.1" viewBox="0 0 288 216"><defs><style type="text/css">*{stroke-linecap:butt;stroke-linejoin:round}</style></defs><g id="figure_1"><g id="patch_1"><path d="M 0 216 L 288 216 L 288 0 L 0 0 z" style="fill:none"/></g><g id="axes_1"><g id="patch_2"><path d="M 28.8 194.4 L 288 194.4 L 288 0 L 28.8 0 z" style="fill:none"/></g><g id="PathCollection_1"><defs><path id="m7a5f5f760c" d="M 0 3 C 0.795609 3 1.55874 2.683901 2.12132 2.12132 C 2.683901 1.55874 3 0.795609 3 0 C 3 -0.795609 2.683901 -1.55874 2.12132 -2.12132 C 1.55874 -2.683901 0.795609 -3 0 -3 C -0.795609 -3 -1.55874 -2.683901 -2.12132 -2.12132 C -2.683901 -1.55874 -3 -0.795609 -3 0 C -3 0.795609 -2.683901 1.55874 -2.12132 2.12132 C -1.55874 2.683901 -0.795609 3 0 3 z" style="stroke:#000"/></defs><g clip-path="url(#pf965e70cbe)"><use style="fill:gray;stroke:#000" x="40.582" y="107.24" xlink:href="#m7a5f5f760c"/><use style="fill:gray;stroke:#000" x="42.962" y="141.013" xlink:href="#m7a5f5f760c"/><use style="fill:gray;stroke:#000" x="45.342" y="129.222" xlink:href="#m7a5f5f760c"/><use style="fill:gray;stroke:#000" x="47.722" y="130.437" xlink:href="#m7a5f5f760c"/><use style="fill:gray;stroke:#000" x="50.102" y="83.409" xlink:href="#m7a5f5f760c"/><use style="fill:gray;stroke:#000" x="52.483" y="138.401" xlink:href="#m7a5f5f760c"/><use style="fill:gray;stroke:#000" x="54.863" y="52.079" xlink:href="#m7a5f5f760c"/><use style="fill:gray;stroke:#000" x="57.243" y="96.751" xlink:href="#m7a5f5f760c"/><use style="fill:gray;stroke:#000" x="59.623" y="72.09" xlink:href="#m7a5f5f760c"/><use style="fill:gray;stroke:#000" x="62.003" y="81.652" xlink:href="#m7a5f5f760c"/><use style="fill:gray;stroke:#000" x="64.383" y="47.778" xlink:href="#m7a5f5f760c"/><use style="fill:gray;stroke:#000" x="66.764" y="118.969" xlink:href="#m7a5f5f760c"/><use style="fill:gray;stroke:#000" x="69.144" y="87.666" xlink:href="#m7a5f5f760c"/><use style="fill:gray;stroke:#000" x="71.524" y="93.288" xlink:href="#m7a5f5f760c"/><use style="fill:gray;stroke:#000" x="73.904" y="68.844" xlink:href="#m7a5f5f760c"/><use style="fill:gray;stroke:#000" x="76.284" y="119.501" xlink:href="#m7a5f5f760c"/><use style="fill:gray;stroke:#000" x="78.664" y="108.338" xlink:href="#m7a5f5f760c"/><use style="fill:gray;stroke:#000" x="81.045" y="129.855" xlink:href="#m7a5f5f760c"/><use style="fill:gray;stroke:#000" x="83.425" y="119.34" xlink:href="#m7a5f5f760c"/><use style="fill:gray;stroke:#000" x="85.805" y="116.137" xlink:href="#m7a5f5f760c"/><use style="fill:gray;stroke:#000" x="88.185" y="156.427" xlink:href="#m7a5f5f760c"/><use style="fill:gray;stroke:#000" x="90.565" y="118.297" xlink:href="#m7a5f5f760c"/><use style="fill:gray;stroke:#000" x="92.945" y="128.371" xlink:href="#m7a5f5f760c"/><use style="fill:gray;stroke:#000" x="95.326" y="140.323" xlink:href="#m7a5f5f760c"/><use style="fill:gray;stroke:#000" x="97.706" y="135.134" xlink:href="#m7a5f5f760c"/><use style="fill:gray;stroke:#000" x="100.086" y="167.646" xlink:href="#m7a5f5f760c"/><use style="fill:gray;stroke:#000" x="102.466" y="156.167" xlink:href="#m7a5f5f760c"/><use style="fill:gray;stroke:#000" x="104.846" y="170.25" xlink:href="#m7a5f5f760c"/><use style="fill:gray;stroke:#000" x="107.226" y="153.493" xlink:href="#m7a5f5f760c"/><use style="fill:gray;stroke:#000" x="109.607" y="132.679" xlink:href="#m7a5f5f760c"/><use style="fill:gray;stroke:#000" x="111.987" y="150.461" xlink:href="#m7a5f5f760c"/><use style="fill:gray;stroke:#000" x="114.367" y="137.087" xlink:href="#m7a5f5f760c"/><use style="fill:gray;stroke:#000" x="116.747" y="134.341" xlink:href="#m7a5f5f760c"/><use style="fill:gray;stroke:#000" x="119.127" y="128.284" xlink:href="#m7a5f5f760c"/><use style="fill:gray;stroke:#000" x="121.507" y="115.246" xlink:href="#m7a5f5f760c"/><use style="fill:gray;stroke:#000" x="123.888" y="92.501" xlink:href="#m7a5f5f760c"/><use style="fill:gray;stroke:#000" x="126.268" y="104.786" xlink:href="#m7a5f5f760c"/><use style="fill:gray;stroke:#000" x="128.648" y="68.971" xlink:href="#m7a5f5f760c"/><use style="fill:gray;stroke:#000" x="131.028" y="32.44" xlink:href="#m7a5f5f760c"/><use style="fill:gray;stroke:#000" x="133.408" y="43.23" xlink:href="#m7a5f5f760c"/><use style="fill:gray;stroke:#000" x="135.788" y="55.558" xlink:href="#m7a5f5f760c"/><use style="fill:gray;stroke:#000" x="138.169" y="64.583" xlink:href="#m7a5f5f760c"/><use style="fill:gray;stroke:#000" x="140.549" y="58.62" xlink:href="#m7a5f5f760c"/><use style="fill:gray;stroke:#000" x="142.929" y="8.836" xlink:href="#m7a5f5f760c"/><use style="fill:gray;stroke:#000" x="145.309" y="41.412" xlink:href="#m7a5f5f760c"/><use style="fill:gray;stroke:#000" x="147.689" y="56.786" xlink:href="#m7a5f5f760c"/><use style="fill:gray;stroke:#000" x="150.069" y="43.781" xlink:href="#m7a5f5f760c"/><use style="fill:gray;stroke:#000" x="152.45" y="10.864" xlink:href="#m7a5f5f760c"/><use style="fill:gray;stroke:#000" x="154.83" y="56.14" xlink:href="#m7a5f5f760c"/><use style="fill:gray;stroke:#000" x="157.21" y="53.536" xlink:href="#m7a5f5f760c"/><use style="fill:gray;stroke:#000" x="159.59" y="67.874" xlink:href="#m7a5f5f760c"/><use style="fill:gray;stroke:#000" x="161.97" y="89.422" xlink:href="#m7a5f5f760c"/><use style="fill:gray;stroke:#000" x="164.35" y="113.988" xlink:href="#m7a5f5f760c"/><use style="fill:gray;stroke:#000" x="166.731" y="107.245" xlink:href="#m7a5f5f760c"/><use style="fill:gray;stroke:#000" x="169.111" y="113.111" xlink:href="#m7a5f5f760c"/><use style="fill:gray;stroke:#000" x="171.491" y="105.446" xlink:href="#m7a5f5f760c"/><use style="fill:gray;stroke:#000" x="173.871" y="107.678" xlink:href="#m7a5f5f760c"/><use style="fill:gray;stroke:#000" x="176.251" y="112.005" xlink:href="#m7a5f5f760c"/><use style="fill:gray;stroke:#000" x="178.631" y="129.644" xlink:href="#m7a5f5f760c"/><use style="fill:gray;stroke:#000" x="181.012" y="121.246" xlink:href="#m7a5f5f760c"/><use style="fill:gray;stroke:#000" x="183.392" y="155.588" xlink:href="#m7a5f5f760c"/><use style="fill:gray;stroke:#000" x="185.772" y="116.253" xlink:href="#m7a5f5f760c"/><use style="fill:gray;stroke:#000" x="188.152" y="129.652" xlink:href="#m7a5f5f760c"/><use style="fill:gray;stroke:#000" x="190.532" y="142.933" xlink:href="#m7a5f5f760c"/><use style="fill:gray;stroke:#000" x="192.912" y="123.21" xlink:href="#m7a5f5f760c"/><use style="fill:gray;stroke:#000" x="195.293" y="128.927" xlink:href="#m7a5f5f760c"/><use style="fill:gray;stroke:#000" x="197.673" y="98.559" xlink:href="#m7a5f5f760c"/><use style="fill:gray;stroke:#000" x="200.053" y="83.55" xlink:href="#m7a5f5f760c"/><use style="fill:gray;stroke:#000" x="202.433" y="62.482" xlink:href="#m7a5f5f760c"/><use style="fill:gray;stroke:#000" x="204.813" y="125.107" xlink:href="#m7a5f5f760c"/><use style="fill:gray;stroke:#000" x="207.193" y="117.86" xlink:href="#m7a5f5f760c"/><use style="fill:gray;stroke:#000" x="209.574" y="91.395" xlink:href="#m7a5f5f760c"/><use style="fill:gray;stroke:#000" x="211.954" y="70.955" xlink:href="#m7a5f5f760c"/><use style="fill:gray;stroke:#000" x="214.334" y="50.347" xlink:href="#m7a5f5f760c"/><use style="fill:gray;stroke:#000" x="216.714" y="56.073" xlink:href="#m7a5f5f760c"/><use style="fill:gray;stroke:#000" x="219.094" y="98.236" xlink:href="#m7a5f5f760c"/><use style="fill:gray;stroke:#000" x="221.474" y="61.719" xlink:href="#m7a5f5f760c"/><use style="fill:gray;stroke:#000" x="223.855" y="38.285" xlink:href="#m7a5f5f760c"/><use style="fill:gray;stroke:#000" x="226.235" y="50.741" xlink:href="#m7a5f5f760c"/><use style="fill:gray;stroke:#000" x="228.615" y="42.52" xlink:href="#m7a5f5f760c"/><use style="fill:gray;stroke:#000" x="230.995" y="65.895" xlink:href="#m7a5f5f760c"/><use style="fill:gray;stroke:#000" x="233.375" y="70.908" xlink:href="#m7a5f5f760c"/><use style="fill:gray;stroke:#000" x="235.755" y="70.073" xlink:href="#m7a5f5f760c"/><use style="fill:gray;stroke:#000" x="238.136" y="73.671" xlink:href="#m7a5f5f760c"/><use style="fill:gray;stroke:#000" x="240.516" y="86.844" xlink:href="#m7a5f5f760c"/><use style="fill:gray;stroke:#000" x="242.896" y="98.111" xlink:href="#m7a5f5f760c"/><use style="fill:gray;stroke:#000" x="245.276" y="123.855" xlink:href="#m7a5f5f760c"/><use style="fill:gray;stroke:#000" x="247.656" y="113.403" xlink:href="#m7a5f5f760c"/><use style="fill:gray;stroke:#000" x="250.036" y="128.574" xlink:href="#m7a5f5f760c"/><use style="fill:gray;stroke:#000" x="252.417" y="118.319" xlink:href="#m7a5f5f760c"/><use style="fill:gray;stroke:#000" x="254.797" y="125.888" xlink:href="#m7a5f5f760c"/><use style="fill:gray;stroke:#000" x="257.177" y="153.897" xlink:href="#m7a5f5f760c"/><use style="fill:gray;stroke:#000" x="259.557" y="171.75" xlink:href="#m7a5f5f760c"/><use style="fill:gray;stroke:#000" x="261.937" y="182.36" xlink:href="#m7a5f5f760c"/><use style="fill:gray;stroke:#000" x="264.317" y="165.256" xlink:href="#m7a5f5f760c"/><use style="fill:gray;stroke:#000" x="266.698" y="174.408" xlink:href="#m7a5f5f760c"/><use style="fill:gray;stroke:#000" x="269.078" y="183.427" xlink:href="#m7a5f5f760c"/><use style="fill:gray;stroke:#000" x="271.458" y="174.864" xlink:href="#m7a5f5f760c"/><use style="fill:gray;stroke:#000" x="273.838" y="185.564" xlink:href="#m7a5f5f760c"/><use style="fill:gray;stroke:#000" x="276.218" y="155.696" xlink:href="#m7a5f5f760c"/></g></g><g id="matplotlib.axis_1"><g id="text_1"><defs><path id="DejaVuSans-Bold-120" d="M 22.21875 27.984375 L 2.484375 54.6875 L 21 54.6875 L 32.171875 38.484375 L 43.5 54.6875 L 62.015625 54.6875 L 42.28125 28.078125 L 62.984375 0 L 44.484375 0 L 32.171875 17.28125 L 20.015625 0 L 1.515625 0 z"/></defs><g transform="translate(151.305 215.116562)scale(0.22 -0.22)"><use xlink:href="#DejaVuSans-Bold-120"/></g></g></g><g id="matplotlib.axis_2"><g id="text_2"><defs><path id="DejaVuSans-Bold-121" d="M 1.21875 54.6875 L 18.703125 54.6875 L 33.40625 17.578125 L 45.90625 54.6875 L 63.375 54.6875 L 40.375 -5.171875 Q 36.921875 -14.3125 32.296875 -17.9375 Q 27.6875 -21.578125 20.125 -21.578125 L 10.015625 -21.578125 L 10.015625 -10.109375 L 15.484375 -10.109375 Q 19.921875 -10.109375 21.9375 -8.6875 Q 23.96875 -7.28125 25.09375 -3.609375 L 25.59375 -2.09375 z"/></defs><g transform="translate(20.052813 104.370625)rotate(-90)scale(0.22 -0.22)"><use xlink:href="#DejaVuSans-Bold-121"/></g></g></g><g id="line2d_1"><path d="M 40.581818 119.570296 L 42.961983 129.702299 L 45.342149 130.401568 L 47.722314 125.248321 L 50.102479 108.515575 L 52.482645 113.271168 L 54.86281 73.810737 L 57.242975 83.349535 L 59.62314 78.443258 L 62.003306 80.75802 L 64.383471 71.823482 L 66.763636 91.350992 L 69.143802 87.666127 L 71.523967 92.163338 L 73.904132 81.242884 L 76.284298 114.435389 L 78.664463 115.909536 L 81.044628 128.803126 L 83.424793 119.110083 L 85.804959 117.829104 L 88.185124 144.987978 L 90.565289 133.548981 L 92.945455 129.161775 L 95.32562 137.571159 L 97.705785 138.903785 L 100.08595 153.492995 L 102.466116 160.13157 L 104.846281 167.172995 L 107.226446 147.249147 L 109.606612 141.004967 L 111.986777 143.774117 L 114.366942 138.424791 L 116.747107 132.13614 L 119.127273 122.097684 L 121.507438 118.186338 L 123.887603 101.931905 L 126.267769 92.812739 L 128.647934 72.480682 L 131.028099 44.478432 L 133.408264 48.378162 L 135.78843 58.241487 L 138.168595 54.802121 L 140.54876 49.855755 L 142.928926 32.603597 L 145.309091 41.229009 L 147.689256 50.873095 L 150.069421 43.090284 L 152.449587 27.322334 L 154.829752 51.091669 L 157.209917 55.49032 L 159.590083 59.531332 L 161.970248 83.149938 L 164.350413 110.61648 L 166.730579 108.593808 L 169.110744 111.171173 L 171.490909 107.968657 L 173.871074 108.976191 L 176.25124 110.706699 L 178.631405 120.82428 L 181.01157 124.605095 L 183.391736 141.351772 L 185.771901 123.365711 L 188.152066 128.725403 L 190.532231 132.959487 L 192.912397 126.970201 L 195.292562 125.391298 L 197.672727 103.204338 L 200.052893 88.837108 L 202.433058 77.898462 L 204.813223 96.685732 L 207.193388 110.4003 L 209.573554 89.953149 L 211.953719 85.865122 L 214.333884 57.769153 L 216.71405 57.998796 L 219.094215 86.716248 L 221.47438 72.673908 L 223.854545 45.462871 L 226.234711 45.610681 L 228.614876 55.530942 L 230.995041 59.885088 L 233.375207 66.565174 L 235.755372 71.833229 L 238.135537 73.54914 L 240.515702 86.463192 L 242.895868 99.558933 L 245.276033 116.131918 L 247.656198 121.561923 L 250.036364 125.559427 L 252.416529 125.487009 L 254.796694 132.019842 L 257.17686 151.09611 L 259.557025 162.823686 L 261.93719 177.803292 L 264.317355 173.012904 L 266.697521 177.100471 L 269.077686 181.668555 L 271.457851 174.818537 L 273.838017 181.238255 L 276.218182 164.387635" clip-path="url(#pf965e70cbe)" style="fill:none;stroke:#1f77b4;stroke-linecap:square;stroke-width:3"/></g><g id="patch_3"><path d="M 28.8 194.4 L 28.8 0" style="fill:none;stroke:#000;stroke-linecap:square;stroke-linejoin:miter;stroke-width:.8"/></g><g id="patch_4"><path d="M 28.8 194.4 L 288 194.4" style="fill:none;stroke:#000;stroke-linecap:square;stroke-linejoin:miter;stroke-width:.8"/></g></g></g><defs><clipPath id="pf965e70cbe"><rect width="259.2" height="194.4" x="28.8" y="0"/></clipPath></defs></svg>