<svg xmlns="http://www.w3.org/2000/svg" xmlns:xlink="http://www.w3.org/1999/xlink" width="384" height="288" version="1.1" viewBox="0 0 288 216"><defs><style type="text/css">*{stroke-linecap:butt;stroke-linejoin:round}</style></defs><g id="figure_1"><g id="patch_1"><path d="M 0 216 L 288 216 L 288 0 L 0 0 z" style="fill:none"/></g><g id="axes_1"><g id="patch_2"><path d="M 28.8 194.4 L 288 194.4 L 288 0 L 28.8 0 z" style="fill:none"/></g><g id="PathCollection_1"><defs><path id="m5ac18c4d0b" d="M 0 3 C 0.795609 3 1.55874 2.683901 2.12132 2.12132 C 2.683901 1.55874 3 0.795609 3 0 C 3 -0.795609 2.683901 -1.55874 2.12132 -2.12132 C 1.55874 -2.683901 0.795609 -3 0 -3 C -0.795609 -3 -1.55874 -2.683901 -2.12132 -2.12132 C -2.683901 -1.55874 -3 -0.795609 -3 0 C -3 0.795609 -2.683901 1.55874 -2.12132 2.12132 C -1.55874 2.683901 -0.795609 3 0 3 z" style="stroke:#000"/></defs><g clip-path="url(#p163edb953a)"><use style="stroke:#000" x="40.582" y="107.24" xlink:href="#m5ac18c4d0b"/><use style="stroke:#000" x="42.962" y="141.013" xlink:href="#m5ac18c4d0b"/><use style="stroke:#000" x="45.342" y="129.222" xlink:href="#m5ac18c4d0b"/><use style="stroke:#000" x="47.722" y="130.437" xlink:href="#m5ac18c4d0b"/><use style="stroke:#000" x="50.102" y="83.409" xlink:href="#m5ac18c4d0b"/><use style="stroke:#000" x="52.483" y="138.401" xlink:href="#m5ac18c4d0b"/><use style="stroke:#000" x="54.863" y="52.079" xlink:href="#m5ac18c4d0b"/><use style="stroke:#000" x="57.243" y="96.751" xlink:href="#m5ac18c4d0b"/><use style="stroke:#000" x="59.623" y="72.09" xlink:href="#m5ac18c4d0b"/><use style="stroke:#000" x="62.003" y="81.652" xlink:href="#m5ac18c4d0b"/><use style="stroke:#000" x="64.383" y="47.778" xlink:href="#m5ac18c4d0b"/><use style="stroke:#000" x="66.764" y="118.969" xlink:href="#m5ac18c4d0b"/><use style="stroke:#000" x="69.144" y="87.666" xlink:href="#m5ac18c4d0b"/><use style="stroke:#000" x="71.524" y="93.288" xlink:href="#m5ac18c4d0b"/><use style="stroke:#000" x="73.904" y="68.844" xlink:href="#m5ac18c4d0b"/><use style="stroke:#000" x="76.284" y="119.501" xlink:href="#m5ac18c4d0b"/><use style="stroke:#000" x="78.664" y="108.338" xlink:href="#m5ac18c4d0b"/><use style="stroke:#000" x="81.045" y="129.855" xlink:href="#m5ac18c4d0b"/><use style="stroke:#000" x="83.425" y="119.34" xlink:href="#m5ac18c4d0b"/><use style="stroke:#000" x="85.805" y="116.137" xlink:href="#m5ac18c4d0b"/><use style="stroke:#000" x="88.185" y="156.427" xlink:href="#m5ac18c4d0b"/><use style="stroke:#000" x="90.565" y="118.297" xlink:href="#m5ac18c4d0b"/><use style="stroke:#000" x="92.945" y="128.371" xlink:href="#m5ac18c4d0b"/><use style="stroke:#000" x="95.326" y="140.323" xlink:href="#m5ac18c4d0b"/><use style="stroke:#000" x="97.706" y="135.134" xlink:href="#m5ac18c4d0b"/><use style="stroke:#000" x="100.086" y="167.646" xlink:href="#m5ac18c4d0b"/><use style="stroke:#000" x="102.466" y="156.167" xlink:href="#m5ac18c4d0b"/><use style="stroke:#000" x="104.846" y="170.25" xlink:href="#m5ac18c4d0b"/><use style="stroke:#000" x="107.226" y="153.493" xlink:href="#m5ac18c4d0b"/><use style="stroke:#000" x="109.607" y="132.679" xlink:href="#m5ac18c4d0b"/><use style="stroke:#000" x="111.987" y="150.461" xlink:href="#m5ac18c4d0b"/><use style="stroke:#000" x="114.367" y="137.087" xlink:href="#m5ac18c4d0b"/><use style="stroke:#000" x="116.747" y="134.341" xlink:href="#m5ac18c4d0b"/><use style="stroke:#000" x="119.127" y="128.284" xlink:href="#m5ac18c4d0b"/><use style="stroke:#000" x="121.507" y="115.246" xlink:href="#m5ac18c4d0b"/><use style="stroke:#000" x="123.888" y="92.501" xlink:href="#m5ac18c4d0b"/><use style="stroke:#000" x="126.268" y="104.786" xlink:href="#m5ac18c4d0b"/><use style="stroke:#000" x="128.648" y="68.971" xlink:href="#m5ac18c4d0b"/><use style="stroke:#000" x="131.028" y="32.44" xlink:href="#m5ac18c4d0b"/><use style="stroke:#000" x="133.408" y="43.23" xlink:href="#m5ac18c4d0b"/><use style="stroke:#000" x="135.788" y="55.558" xlink:href="#m5ac18c4d0b"/><use style="stroke:#000" x="138.169" y="64.583" xlink:href="#m5ac18c4d0b"/><use style="stroke:#000" x="140.549" y="58.62" xlink:href="#m5ac18c4d0b"/><use style="stroke:#000" x="142.929" y="8.836" xlink:href="#m5ac18c4d0b"/><use style="stroke:#000" x="145.309" y="41.412" xlink:href="#m5ac18c4d0b"/><use style="stroke:#000" x="147.689" y="56.786" xlink:href="#m5ac18c4d0b"/><use style="stroke:#000" x="150.069" y="43.781" xlink:href="#m5ac18c4d0b"/><use style="stroke:#000" x="152.45" y="10.864" xlink:href="#m5ac18c4d0b"/><use style="stroke:#000" x="154.83" y="56.14" xlink:href="#m5ac18c4d0b"/><use style="stroke:#000" x="157.21" y="53.536" xlink:href="#m5ac18c4d0b"/><use style="stroke:#000" x="159.59" y="67.874" xlink:href="#m5ac18c4d0b"/><use style="stroke:#000" x="161.97" y="89.422" xlink:href="#m5ac18c4d0b"/><use style="stroke:#000" x="164.35" y="113.988" xlink:href="#m5ac18c4d0b"/><use style="stroke:#000" x="166.731" y="107.245" xlink:href="#m5ac18c4d0b"/><use style="stroke:#000" x="169.111" y="113.111" xlink:href="#m5ac18c4d0b"/><use style="stroke:#000" x="171.491" y="105.446" xlink:href="#m5ac18c4d0b"/><use style="stroke:#000" x="173.871" y="107.678" xlink:href="#m5ac18c4d0b"/><use style="stroke:#000" x="176.251" y="112.005" xlink:href="#m5ac18c4d0b"/><use style="stroke:#000" x="178.631" y="129.644" xlink:href="#m5ac18c4d0b"/><use style="stroke:#000" x="181.012" y="121.246" xlink:href="#m5ac18c4d0b"/><use style="stroke:#000" x="183.392" y="155.588" xlink:href="#m5ac18c4d0b"/><use style="stroke:#000" x="185.772" y="116.253" xlink:href="#m5ac18c4d0b"/><use style="stroke:#000" x="188.152" y="129.652" xlink:href="#m5ac18c4d0b"/><use style="stroke:#000" x="190.532" y="142.933" xlink:href="#m5ac18c4d0b"/><use style="stroke:#000" x="192.912" y="123.21" xlink:href="#m5ac18c4d0b"/><use style="stroke:#000" x="195.293" y="128.927" xlink:href="#m5ac18c4d0b"/><use style="stroke:#000" x="197.673" y="98.559" xlink:href="#m5ac18c4d0b"/><use style="stroke:#000" x="200.053" y="83.55" xlink:href="#m5ac18c4d0b"/><use style="stroke:#000" x="202.433" y="62.482" xlink:href="#m5ac18c4d0b"/><use style="stroke:#000" x="204.813" y="125.107" xlink:href="#m5ac18c4d0b"/><use style="stroke:#000" x="207.193" y="117.86" xlink:href="#m5ac18c4d0b"/><use style="stroke:#000" x="209.574" y="91.395" xlink:href="#m5ac18c4d0b"/><use style="stroke:#000" x="211.954" y="70.955" xlink:href="#m5ac18c4d0b"/><use style="stroke:#000" x="214.334" y="50.347" xlink:href="#m5ac18c4d0b"/><use style="stroke:#000" x="216.714" y="56.073" xlink:href="#m5ac18c4d0b"/><use style="stroke:#000" x="219.094" y="98.236" xlink:href="#m5ac18c4d0b"/><use style="stroke:#000" x="221.474" y="61.719" xlink:href="#m5ac18c4d0b"/><use style="stroke:#000" x="223.855" y="38.285" xlink:href="#m5ac18c4d0b"/><use style="stroke:#000" x="226.235" y="50.741" xlink:href="#m5ac18c4d0b"/><use style="stroke:#000" x="228.615" y="42.52" xlink:href="#m5ac18c4d0b"/><use style="stroke:#000" x="230.995" y="65.895" xlink:href="#m5ac18c4d0b"/><use style="stroke:#000" x="233.375" y="70.908" xlink:href="#m5ac18c4d0b"/><use style="stroke:#000" x="235.755" y="70.073" xlink:href="#m5ac18c4d0b"/><use style="stroke:#000" x="238.136" y="73.671" xlink:href="#m5ac18c4d0b"/><use style="stroke:#000" x="240.516" y="86.844" xlink:href="#m5ac18c4d0b"/><use style="stroke:#000" x="242.896" y="98.111" xlink:href="#m5ac18c4d0b"/><use style="stroke:#000" x="245.276" y="123.855" xlink:href="#m5ac18c4d0b"/><use style="stroke:#000" x="247.656" y="113.403" xlink:href="#m5ac18c4d0b"/><use style="stroke:#000" x="250.036" y="128.574" xlink:href="#m5ac18c4d0b"/><use style="stroke:#000" x="252.417" y="118.319" xlink:href="#m5ac18c4d0b"/><use style="stroke:#000" x="254.797" y="125.888" xlink:href="#m5ac18c4d0b"/><use style="stroke:#000" x="257.177" y="153.897" xlink:href="#m5ac18c4d0b"/><use style="stroke:#000" x="259.557" y="171.75" xlink:href="#m5ac18c4d0b"/><use style="stroke:#000" x="261.937" y="182.36" xlink:href="#m5ac18c4d0b"/><use style="stroke:#000" x="264.317" y="165.256" xlink:href="#m5ac18c4d0b"/><use style="stroke:#000" x="266.698" y="174.408" xlink:href="#m5ac18c4d0b"/><use style="stroke:#000" x="269.078" y="183.427" xlink:href="#m5ac18c4d0b"/><use style="stroke:#000" x="271.458" y="174.864" xlink:href="#m5ac18c4d0b"/><use style="stroke:#000" x="273.838" y="185.564" xlink:href="#m5ac18c4d0b"/><use style="stroke:#000" x="276.218" y="155.696" xlink:href="#m5ac18c4d0b"/></g></g><g id="matplotlib.axis_1"><g id="text_1"><defs><path id="DejaVuSans-Bold-120" d="M 22.21875 27.984375 L 2.484375 54.6875 L 21 54.6875 L 32.171875 38.484375 L 43.5 54.6875 L 62.015625 54.6875 L 42.28125 28.078125 L 62.984375 0 L 44.484375 0 L 32.171875 17.28125 L 20.015625 0 L 1.515625 0 z"/></defs><g transform="translate(151.305 215.116562)scale(0.22 -0.22)"><use xlink:href="#DejaVuSans-Bold-120"/></g></g></g><g id="matplotlib.axis_2"><g id="text_2"><defs><path id="DejaVuSans-Bold-121" d="M 1.21875 54.6875 L 18.703125 54.6875 L 33.40625 17.578125 L 45.90625 54.6875 L 63.375 54.6875 L 40.375 -5.171875 Q 36.921875 -14.3125 32.296875 -17.9375 Q 27.6875 -21.578125 20.125 -21.578125 L 10.015625 -21.578125 L 10.015625 -10.109375 L 15.484375 -10.109375 Q 19.921875 -10.109375 21.9375 -8.6875 Q 23.96875 -7.28125 25.09375 -3.609375 L 25.59375 -2.09375 z"/></defs><g transform="translate(20.052813 104.370625)rotate(-90)scale(0.22 -0.22)"><use xlink:href="#DejaVuSans-Bold-121"/></g></g></g><g id="patch_3"><path d="M 28.8 194.4 L 28.8 0" style="fill:none;stroke:#000;stroke-linecap:square;stroke-linejoin:miter;stroke-width:.8"/></g><g id="patch_4"><path d="M 28.8 194.4 L 288 194.4" style="fill:none;stroke:#000;stroke-linecap:square;stroke-linejoin:miter;stroke-width:.8"/></g></g></g><defs><clipPath id="p163edb953a"><rect width="259.2" height="194.4" x="28.8" y="0"/></clipPath></defs></svg>