<svg xmlns="http://www.w3.org/2000/svg" xmlns:xlink="http://www.w3.org/1999/xlink" width="491.52" height="368.64" version="1.1" viewBox="0 0 368.64 276.48"><defs><style type="text/css">*{stroke-linecap:butt;stroke-linejoin:round}</style></defs><g id="figure_1"><g id="patch_1"><path d="M 0 276.48 L 368.64 276.48 L 368.64 0 L 0 0 z" style="fill:none"/></g><g id="axes_1"><g id="patch_2"><path d="M 3.6864 273.7152 L 364.9536 273.7152 L 364.9536 2.7648 L 3.6864 2.7648 z" style="fill:none"/></g><g id="PathCollection_1"><defs><path id="m3fea8af09a" d="M 0 4.743416 C 1.257969 4.743416 2.464584 4.24362 3.354102 3.354102 C 4.24362 2.464584 4.743416 1.257969 4.743416 0 C 4.743416 -1.257969 4.24362 -2.464584 3.354102 -3.354102 C 2.464584 -4.24362 1.257969 -4.743416 0 -4.743416 C -1.257969 -4.743416 -2.464584 -4.24362 -3.354102 -3.354102 C -4.24362 -2.464584 -4.743416 -1.257969 -4.743416 0 C -4.743416 1.257969 -4.24362 2.464584 -3.354102 3.354102 C -2.464584 4.24362 -1.257969 4.743416 0 4.743416 z" style="stroke:#000"/></defs><g clip-path="url(#p567a84f1a5)"><use style="fill:red;stroke:#000" x="55.296" y="235.008" xlink:href="#m3fea8af09a"/><use style="fill:red;stroke:#000" x="55.296" y="157.594" xlink:href="#m3fea8af09a"/><use style="fill:red;stroke:#000" x="81.101" y="196.301" xlink:href="#m3fea8af09a"/><use style="fill:red;stroke:#000" x="75.94" y="103.404" xlink:href="#m3fea8af09a"/><use style="fill:red;stroke:#000" x="29.491" y="41.472" xlink:href="#m3fea8af09a"/><use style="fill:red;stroke:#000" x="106.906" y="56.955" xlink:href="#m3fea8af09a"/></g></g><g id="PathCollection_2"><g clip-path="url(#p567a84f1a5)"><use style="fill:red;stroke:#000" x="158.515" y="22.118" xlink:href="#m3fea8af09a"/><use style="fill:red;stroke:#000" x="210.125" y="60.826" xlink:href="#m3fea8af09a"/><use style="fill:red;stroke:#000" x="261.734" y="49.213" xlink:href="#m3fea8af09a"/></g></g><g id="PathCollection_3"><defs><path id="m3b22d34fed" d="M -4.743416 4.743416 L 4.743416 4.743416 L 4.743416 -4.743416 L -4.743416 -4.743416 z" style="stroke:#000"/></defs><g clip-path="url(#p567a84f1a5)"><use style="fill:#00f;stroke:#000" x="158.515" y="235.008" xlink:href="#m3b22d34fed"/><use style="fill:#00f;stroke:#000" x="158.515" y="118.886" xlink:href="#m3b22d34fed"/><use style="fill:#00f;stroke:#000" x="184.32" y="196.301" xlink:href="#m3b22d34fed"/><use style="fill:#00f;stroke:#000" x="261.734" y="99.533" xlink:href="#m3b22d34fed"/><use style="fill:#00f;stroke:#000" x="261.734" y="235.008" xlink:href="#m3b22d34fed"/><use style="fill:#00f;stroke:#000" x="323.666" y="157.594" xlink:href="#m3b22d34fed"/><use style="fill:#00f;stroke:#000" x="251.412" y="165.335" xlink:href="#m3b22d34fed"/></g></g><g id="PathCollection_4"><g clip-path="url(#p567a84f1a5)"><use style="fill:#00f;stroke:#000" x="313.344" y="41.472" xlink:href="#m3b22d34fed"/></g></g><g id="PathCollection_5"><defs><path id="mbcb37a1153" d="M -4.677072 9.354143 L 0 4.677072 L 4.677072 9.354143 L 9.354143 4.677072 L 4.677072 0 L 9.354143 -4.677072 L 4.677072 -9.354143 L 0 -4.677072 L -4.677072 -9.354143 L -9.354143 -4.677072 L -4.677072 0 L -9.354143 4.677072 z" style="stroke:gray"/></defs><g clip-path="url(#p567a84f1a5)"><use style="fill:gray;stroke:gray" x="158.515" y="80.179" xlink:href="#mbcb37a1153"/></g></g><g id="patch_3"><path d="M 3.6864 273.7152 L 3.6864 2.7648" style="fill:none;stroke:#000;stroke-linecap:square;stroke-linejoin:miter;stroke-width:.8"/></g><g id="patch_4"><path d="M 3.6864 273.7152 L 364.9536 273.7152" style="fill:none;stroke:#000;stroke-linecap:square;stroke-linejoin:miter;stroke-width:.8"/></g></g></g><defs><clipPath id="p567a84f1a5"><rect width="361.267" height="270.95" x="3.686" y="2.765"/></clipPath></defs></svg>