<svg xmlns="http://www.w3.org/2000/svg" xmlns:xlink="http://www.w3.org/1999/xlink" width="384" height="288" version="1.1" viewBox="0 0 288 216"><defs><style type="text/css">*{stroke-linecap:butt;stroke-linejoin:round}</style></defs><g id="figure_1"><g id="patch_1"><path d="M 0 216 L 288 216 L 288 0 L 0 0 z" style="fill:none"/></g><g id="axes_1"><g id="patch_2"><path d="M 2.88 213.84 L 285.12 213.84 L 285.12 2.16 L 2.88 2.16 z" style="fill:none"/></g><g id="PathCollection_1"><defs><path id="mf77ce05e08" d="M 0 3.872983 C 1.027127 3.872983 2.012324 3.464901 2.738613 2.738613 C 3.464901 2.012324 3.872983 1.027127 3.872983 0 C 3.872983 -1.027127 3.464901 -2.012324 2.738613 -2.738613 C 2.012324 -3.464901 1.027127 -3.872983 0 -3.872983 C -1.027127 -3.872983 -2.012324 -3.464901 -2.738613 -2.738613 C -3.464901 -2.012324 -3.872983 -1.027127 -3.872983 0 C -3.872983 1.027127 -3.464901 2.012324 -2.738613 2.738613 C -2.012324 3.464901 -1.027127 3.872983 0 3.872983 z" style="stroke:#000"/></defs><g clip-path="url(#p052e539f7a)"><use style="fill:#1f77b4;stroke:#000" x="43.2" y="183.6" xlink:href="#mf77ce05e08"/><use style="fill:#1f77b4;stroke:#000" x="43.2" y="123.12" xlink:href="#mf77ce05e08"/><use style="fill:#1f77b4;stroke:#000" x="63.36" y="153.36" xlink:href="#mf77ce05e08"/><use style="fill:#1f77b4;stroke:#000" x="59.328" y="80.784" xlink:href="#mf77ce05e08"/><use style="fill:#1f77b4;stroke:#000" x="23.04" y="32.4" xlink:href="#mf77ce05e08"/><use style="fill:#1f77b4;stroke:#000" x="83.52" y="44.496" xlink:href="#mf77ce05e08"/></g></g><g id="PathCollection_2"><g clip-path="url(#p052e539f7a)"><use style="fill:#1f77b4;stroke:#000" x="123.84" y="17.28" xlink:href="#mf77ce05e08"/><use style="fill:#1f77b4;stroke:#000" x="164.16" y="47.52" xlink:href="#mf77ce05e08"/><use style="fill:#1f77b4;stroke:#000" x="204.48" y="38.448" xlink:href="#mf77ce05e08"/></g></g><g id="PathCollection_3"><defs><path id="m8578b1a76a" d="M -3.872983 3.872983 L 3.872983 3.872983 L 3.872983 -3.872983 L -3.872983 -3.872983 z" style="stroke:#000"/></defs><g clip-path="url(#p052e539f7a)"><use style="fill:#ff7f0e;stroke:#000" x="123.84" y="183.6" xlink:href="#m8578b1a76a"/><use style="fill:#ff7f0e;stroke:#000" x="123.84" y="92.88" xlink:href="#m8578b1a76a"/><use style="fill:#ff7f0e;stroke:#000" x="144" y="153.36" xlink:href="#m8578b1a76a"/><use style="fill:#ff7f0e;stroke:#000" x="204.48" y="77.76" xlink:href="#m8578b1a76a"/><use style="fill:#ff7f0e;stroke:#000" x="204.48" y="183.6" xlink:href="#m8578b1a76a"/><use style="fill:#ff7f0e;stroke:#000" x="252.864" y="123.12" xlink:href="#m8578b1a76a"/><use style="fill:#ff7f0e;stroke:#000" x="196.416" y="129.168" xlink:href="#m8578b1a76a"/></g></g><g id="PathCollection_4"><g clip-path="url(#p052e539f7a)"><use style="fill:#ff7f0e;stroke:#000" x="244.8" y="32.4" xlink:href="#m8578b1a76a"/></g></g><g id="PathCollection_5"><defs><path id="m15ab786950" d="M -10.606602 10.606602 L 10.606602 10.606602 L 10.606602 -10.606602 L -10.606602 -10.606602 z" style="stroke:#000"/></defs><g clip-path="url(#p052e539f7a)"><use style="fill:#ff7f0e;stroke:#000" x="244.8" y="32.4" xlink:href="#m15ab786950"/></g></g><g id="line2d_1"><path d="M 95.616 213.84 L 95.616 2.16" clip-path="url(#p052e539f7a)" style="fill:none;stroke:gray;stroke-dasharray:11.1,4.8;stroke-dashoffset:0;stroke-width:3"/></g><g id="line2d_2"><path d="M 2.88 62.64 L 285.12 62.64" clip-path="url(#p052e539f7a)" style="fill:none;stroke:gray;stroke-dasharray:11.1,4.8;stroke-dashoffset:0;stroke-width:3"/></g><g id="patch_3"><path d="M 2.88 213.84 L 2.88 2.16" style="fill:none;stroke:#000;stroke-linecap:square;stroke-linejoin:miter;stroke-width:.8"/></g><g id="patch_4"><path d="M 2.88 213.84 L 285.12 213.84" style="fill:none;stroke:#000;stroke-linecap:square;stroke-linejoin:miter;stroke-width:.8"/></g></g></g><defs><clipPath id="p052e539f7a"><rect width="282.24" height="211.68" x="2.88" y="2.16"/></clipPath></defs></svg>