<svg xmlns="http://www.w3.org/2000/svg" xmlns:xlink="http://www.w3.org/1999/xlink" width="240" height="192" version="1.1" viewBox="0 0 180 144"><defs><style type="text/css">*{stroke-linecap:butt;stroke-linejoin:round}</style></defs><g id="figure_1"><g id="patch_1"><path d="M 0 144 L 180 144 L 180 0 L 0 0 z" style="fill:#fff"/></g><g id="axes_1"><g id="patch_2"><path d="M 1.8 142.56 L 178.2 142.56 L 178.2 1.44 L 1.8 1.44 z" style="fill:none"/></g><g id="patch_3"><path d="M 9.818182 142.56 L 18.258373 142.56 L 18.258373 8.16 L 9.818182 8.16 z" clip-path="url(#p8e10e15a64)" style="fill:#1f77b4"/></g><g id="patch_4"><path d="M 18.258373 142.56 L 26.698565 142.56 L 26.698565 114.889412 L 18.258373 114.889412 z" clip-path="url(#p8e10e15a64)" style="fill:#1f77b4"/></g><g id="patch_5"><path d="M 26.698565 142.56 L 35.138756 142.56 L 35.138756 114.889412 L 26.698565 114.889412 z" clip-path="url(#p8e10e15a64)" style="fill:#1f77b4"/></g><g id="patch_6"><path d="M 35.138756 142.56 L 43.578947 142.56 L 43.578947 134.654118 L 35.138756 134.654118 z" clip-path="url(#p8e10e15a64)" style="fill:#1f77b4"/></g><g id="patch_7"><path d="M 43.578947 142.56 L 52.019139 142.56 L 52.019139 142.56 L 43.578947 142.56 z" clip-path="url(#p8e10e15a64)" style="fill:#1f77b4"/></g><g id="patch_8"><path d="M 52.019139 142.56 L 60.45933 142.56 L 60.45933 142.56 L 52.019139 142.56 z" clip-path="url(#p8e10e15a64)" style="fill:#1f77b4"/></g><g id="patch_9"><path d="M 60.45933 142.56 L 68.899522 142.56 L 68.899522 142.56 L 60.45933 142.56 z" clip-path="url(#p8e10e15a64)" style="fill:#1f77b4"/></g><g id="patch_10"><path d="M 68.899522 142.56 L 77.339713 142.56 L 77.339713 142.56 L 68.899522 142.56 z" clip-path="url(#p8e10e15a64)" style="fill:#1f77b4"/></g><g id="patch_11"><path d="M 77.339713 142.56 L 85.779904 142.56 L 85.779904 142.56 L 77.339713 142.56 z" clip-path="url(#p8e10e15a64)" style="fill:#1f77b4"/></g><g id="patch_12"><path d="M 85.779904 142.56 L 94.220096 142.56 L 94.220096 142.56 L 85.779904 142.56 z" clip-path="url(#p8e10e15a64)" style="fill:#1f77b4"/></g><g id="patch_13"><path d="M 94.220096 142.56 L 102.660287 142.56 L 102.660287 142.56 L 94.220096 142.56 z" clip-path="url(#p8e10e15a64)" style="fill:#1f77b4"/></g><g id="patch_14"><path d="M 102.660287 142.56 L 111.100478 142.56 L 111.100478 142.56 L 102.660287 142.56 z" clip-path="url(#p8e10e15a64)" style="fill:#1f77b4"/></g><g id="patch_15"><path d="M 111.100478 142.56 L 119.54067 142.56 L 119.54067 142.56 L 111.100478 142.56 z" clip-path="url(#p8e10e15a64)" style="fill:#1f77b4"/></g><g id="patch_16"><path d="M 119.54067 142.56 L 127.980861 142.56 L 127.980861 142.56 L 119.54067 142.56 z" clip-path="url(#p8e10e15a64)" style="fill:#1f77b4"/></g><g id="patch_17"><path d="M 127.980861 142.56 L 136.421053 142.56 L 136.421053 142.56 L 127.980861 142.56 z" clip-path="url(#p8e10e15a64)" style="fill:#1f77b4"/></g><g id="patch_18"><path d="M 136.421053 142.56 L 144.861244 142.56 L 144.861244 142.56 L 136.421053 142.56 z" clip-path="url(#p8e10e15a64)" style="fill:#1f77b4"/></g><g id="patch_19"><path d="M 144.861244 142.56 L 153.301435 142.56 L 153.301435 142.56 L 144.861244 142.56 z" clip-path="url(#p8e10e15a64)" style="fill:#1f77b4"/></g><g id="patch_20"><path d="M 153.301435 142.56 L 161.741627 142.56 L 161.741627 142.56 L 153.301435 142.56 z" clip-path="url(#p8e10e15a64)" style="fill:#1f77b4"/></g><g id="patch_21"><path d="M 161.741627 142.56 L 170.181818 142.56 L 170.181818 142.56 L 161.741627 142.56 z" clip-path="url(#p8e10e15a64)" style="fill:#1f77b4"/></g><g id="patch_22"><path d="M 9.818182 142.56 L 18.258373 142.56 L 18.258373 142.56 L 9.818182 142.56 z" clip-path="url(#p8e10e15a64)" style="fill:#ff7f0e"/></g><g id="patch_23"><path d="M 18.258373 142.56 L 26.698565 142.56 L 26.698565 142.56 L 18.258373 142.56 z" clip-path="url(#p8e10e15a64)" style="fill:#ff7f0e"/></g><g id="patch_24"><path d="M 26.698565 142.56 L 35.138756 142.56 L 35.138756 142.56 L 26.698565 142.56 z" clip-path="url(#p8e10e15a64)" style="fill:#ff7f0e"/></g><g id="patch_25"><path d="M 35.138756 142.56 L 43.578947 142.56 L 43.578947 142.56 L 35.138756 142.56 z" clip-path="url(#p8e10e15a64)" style="fill:#ff7f0e"/></g><g id="patch_26"><path d="M 43.578947 142.56 L 52.019139 142.56 L 52.019139 142.56 L 43.578947 142.56 z" clip-path="url(#p8e10e15a64)" style="fill:#ff7f0e"/></g><g id="patch_27"><path d="M 52.019139 142.56 L 60.45933 142.56 L 60.45933 142.56 L 52.019139 142.56 z" clip-path="url(#p8e10e15a64)" style="fill:#ff7f0e"/></g><g id="patch_28"><path d="M 60.45933 142.56 L 68.899522 142.56 L 68.899522 142.56 L 60.45933 142.56 z" clip-path="url(#p8e10e15a64)" style="fill:#ff7f0e"/></g><g id="patch_29"><path d="M 68.899522 142.56 L 77.339713 142.56 L 77.339713 103.030588 L 68.899522 103.030588 z" clip-path="url(#p8e10e15a64)" style="fill:#ff7f0e"/></g><g id="patch_30"><path d="M 77.339713 142.56 L 85.779904 142.56 L 85.779904 122.795294 L 77.339713 122.795294 z" clip-path="url(#p8e10e15a64)" style="fill:#ff7f0e"/></g><g id="patch_31"><path d="M 85.779904 142.56 L 94.220096 142.56 L 94.220096 91.171765 L 85.779904 91.171765 z" clip-path="url(#p8e10e15a64)" style="fill:#ff7f0e"/></g><g id="patch_32"><path d="M 94.220096 142.56 L 102.660287 142.56 L 102.660287 114.889412 L 94.220096 114.889412 z" clip-path="url(#p8e10e15a64)" style="fill:#ff7f0e"/></g><g id="patch_33"><path d="M 102.660287 142.56 L 111.100478 142.56 L 111.100478 91.171765 L 102.660287 91.171765 z" clip-path="url(#p8e10e15a64)" style="fill:#ff7f0e"/></g><g id="patch_34"><path d="M 111.100478 142.56 L 119.54067 142.56 L 119.54067 138.607059 L 111.100478 138.607059 z" clip-path="url(#p8e10e15a64)" style="fill:#ff7f0e"/></g><g id="patch_35"><path d="M 119.54067 142.56 L 127.980861 142.56 L 127.980861 138.607059 L 119.54067 138.607059 z" clip-path="url(#p8e10e15a64)" style="fill:#ff7f0e"/></g><g id="patch_36"><path d="M 127.980861 142.56 L 136.421053 142.56 L 136.421053 142.56 L 127.980861 142.56 z" clip-path="url(#p8e10e15a64)" style="fill:#ff7f0e"/></g><g id="patch_37"><path d="M 136.421053 142.56 L 144.861244 142.56 L 144.861244 142.56 L 136.421053 142.56 z" clip-path="url(#p8e10e15a64)" style="fill:#ff7f0e"/></g><g id="patch_38"><path d="M 144.861244 142.56 L 153.301435 142.56 L 153.301435 142.56 L 144.861244 142.56 z" clip-path="url(#p8e10e15a64)" style="fill:#ff7f0e"/></g><g id="patch_39"><path d="M 153.301435 142.56 L 161.741627 142.56 L 161.741627 142.56 L 153.301435 142.56 z" clip-path="url(#p8e10e15a64)" style="fill:#ff7f0e"/></g><g id="patch_40"><path d="M 161.741627 142.56 L 170.181818 142.56 L 170.181818 142.56 L 161.741627 142.56 z" clip-path="url(#p8e10e15a64)" style="fill:#ff7f0e"/></g><g id="patch_41"><path d="M 9.818182 142.56 L 18.258373 142.56 L 18.258373 142.56 L 9.818182 142.56 z" clip-path="url(#p8e10e15a64)" style="fill:#2ca02c"/></g><g id="patch_42"><path d="M 18.258373 142.56 L 26.698565 142.56 L 26.698565 142.56 L 18.258373 142.56 z" clip-path="url(#p8e10e15a64)" style="fill:#2ca02c"/></g><g id="patch_43"><path d="M 26.698565 142.56 L 35.138756 142.56 L 35.138756 142.56 L 26.698565 142.56 z" clip-path="url(#p8e10e15a64)" style="fill:#2ca02c"/></g><g id="patch_44"><path d="M 35.138756 142.56 L 43.578947 142.56 L 43.578947 142.56 L 35.138756 142.56 z" clip-path="url(#p8e10e15a64)" style="fill:#2ca02c"/></g><g id="patch_45"><path d="M 43.578947 142.56 L 52.019139 142.56 L 52.019139 142.56 L 43.578947 142.56 z" clip-path="url(#p8e10e15a64)" style="fill:#2ca02c"/></g><g id="patch_46"><path d="M 52.019139 142.56 L 60.45933 142.56 L 60.45933 142.56 L 52.019139 142.56 z" clip-path="url(#p8e10e15a64)" style="fill:#2ca02c"/></g><g id="patch_47"><path d="M 60.45933 142.56 L 68.899522 142.56 L 68.899522 142.56 L 60.45933 142.56 z" clip-path="url(#p8e10e15a64)" style="fill:#2ca02c"/></g><g id="patch_48"><path d="M 68.899522 142.56 L 77.339713 142.56 L 77.339713 142.56 L 68.899522 142.56 z" clip-path="url(#p8e10e15a64)" style="fill:#2ca02c"/></g><g id="patch_49"><path d="M 77.339713 142.56 L 85.779904 142.56 L 85.779904 142.56 L 77.339713 142.56 z" clip-path="url(#p8e10e15a64)" style="fill:#2ca02c"/></g><g id="patch_50"><path d="M 85.779904 142.56 L 94.220096 142.56 L 94.220096 142.56 L 85.779904 142.56 z" clip-path="url(#p8e10e15a64)" style="fill:#2ca02c"/></g><g id="patch_51"><path d="M 94.220096 142.56 L 102.660287 142.56 L 102.660287 138.607059 L 94.220096 138.607059 z" clip-path="url(#p8e10e15a64)" style="fill:#2ca02c"/></g><g id="patch_52"><path d="M 102.660287 142.56 L 111.100478 142.56 L 111.100478 130.701176 L 102.660287 130.701176 z" clip-path="url(#p8e10e15a64)" style="fill:#2ca02c"/></g><g id="patch_53"><path d="M 111.100478 142.56 L 119.54067 142.56 L 119.54067 138.607059 L 111.100478 138.607059 z" clip-path="url(#p8e10e15a64)" style="fill:#2ca02c"/></g><g id="patch_54"><path d="M 119.54067 142.56 L 127.980861 142.56 L 127.980861 99.077647 L 119.54067 99.077647 z" clip-path="url(#p8e10e15a64)" style="fill:#2ca02c"/></g><g id="patch_55"><path d="M 127.980861 142.56 L 136.421053 142.56 L 136.421053 122.795294 L 127.980861 122.795294 z" clip-path="url(#p8e10e15a64)" style="fill:#2ca02c"/></g><g id="patch_56"><path d="M 136.421053 142.56 L 144.861244 142.56 L 144.861244 95.124706 L 136.421053 95.124706 z" clip-path="url(#p8e10e15a64)" style="fill:#2ca02c"/></g><g id="patch_57"><path d="M 144.861244 142.56 L 153.301435 142.56 L 153.301435 130.701176 L 144.861244 130.701176 z" clip-path="url(#p8e10e15a64)" style="fill:#2ca02c"/></g><g id="patch_58"><path d="M 153.301435 142.56 L 161.741627 142.56 L 161.741627 110.936471 L 153.301435 110.936471 z" clip-path="url(#p8e10e15a64)" style="fill:#2ca02c"/></g><g id="patch_59"><path d="M 161.741627 142.56 L 170.181818 142.56 L 170.181818 118.842353 L 161.741627 118.842353 z" clip-path="url(#p8e10e15a64)" style="fill:#2ca02c"/></g><g id="patch_60"><path d="M 1.8 142.56 L 1.8 1.44" style="fill:none;stroke:#000;stroke-linecap:square;stroke-linejoin:miter;stroke-width:.8"/></g><g id="patch_61"><path d="M 1.8 142.56 L 178.2 142.56" style="fill:none;stroke:#000;stroke-linecap:square;stroke-linejoin:miter;stroke-width:.8"/></g></g></g><defs><clipPath id="p8e10e15a64"><rect width="176.4" height="141.12" x="1.8" y="1.44"/></clipPath></defs></svg>