<svg xmlns="http://www.w3.org/2000/svg" xmlns:xlink="http://www.w3.org/1999/xlink" width="384" height="288" version="1.1" viewBox="0 0 288 216"><defs><style type="text/css">*{stroke-linecap:butt;stroke-linejoin:round}</style></defs><g id="figure_1"><g id="patch_1"><path d="M 0 216 L 288 216 L 288 0 L 0 0 z" style="fill:none"/></g><g id="axes_1"><g id="patch_2"><path d="M 28.8 194.4 L 288 194.4 L 288 0 L 28.8 0 z" style="fill:none"/></g><g id="matplotlib.axis_1"><g id="text_1"><defs><path id="DejaVuSans-Bold-120" d="M 22.21875 27.984375 L 2.484375 54.6875 L 21 54.6875 L 32.171875 38.484375 L 43.5 54.6875 L 62.015625 54.6875 L 42.28125 28.078125 L 62.984375 0 L 44.484375 0 L 32.171875 17.28125 L 20.015625 0 L 1.515625 0 z"/></defs><g transform="translate(151.305 215.116562)scale(0.22 -0.22)"><use xlink:href="#DejaVuSans-Bold-120"/></g></g></g><g id="matplotlib.axis_2"><g id="text_2"><defs><path id="DejaVuSans-Bold-121" d="M 1.21875 54.6875 L 18.703125 54.6875 L 33.40625 17.578125 L 45.90625 54.6875 L 63.375 54.6875 L 40.375 -5.171875 Q 36.921875 -14.3125 32.296875 -17.9375 Q 27.6875 -21.578125 20.125 -21.578125 L 10.015625 -21.578125 L 10.015625 -10.109375 L 15.484375 -10.109375 Q 19.921875 -10.109375 21.9375 -8.6875 Q 23.96875 -7.28125 25.09375 -3.609375 L 25.59375 -2.09375 z"/></defs><g transform="translate(20.052813 104.370625)rotate(-90)scale(0.22 -0.22)"><use xlink:href="#DejaVuSans-Bold-121"/></g></g></g><g id="line2d_1"><defs><path id="m4b070e8ffc" d="M 0 7.5 C 1.989023 7.5 3.896849 6.709753 5.303301 5.303301 C 6.709753 3.896849 7.5 1.989023 7.5 0 C 7.5 -1.989023 6.709753 -3.896849 5.303301 -5.303301 C 3.896849 -6.709753 1.989023 -7.5 0 -7.5 C -1.989023 -7.5 -3.896849 -6.709753 -5.303301 -5.303301 C -6.709753 -3.896849 -7.5 -1.989023 -7.5 0 C -7.5 1.989023 -6.709753 3.896849 -5.303301 5.303301 C -3.896849 6.709753 -1.989023 7.5 0 7.5 z" style="stroke:#1f77b4"/></defs><g clip-path="url(#p2db4952e15)"><use style="fill:#1f77b4;stroke:#1f77b4" x="99.491" y="141.382" xlink:href="#m4b070e8ffc"/><use style="fill:#1f77b4;stroke:#1f77b4" x="158.4" y="97.2" xlink:href="#m4b070e8ffc"/></g></g><g id="line2d_2"><path d="M 40.581818 185.563636 L 276.218182 8.836364" clip-path="url(#p2db4952e15)" style="fill:none;stroke:#ff7f0e;stroke-linecap:square;stroke-width:1.5"/></g><g id="patch_3"><path d="M 28.8 194.4 L 28.8 -0" style="fill:none;stroke:#000;stroke-linecap:square;stroke-linejoin:miter;stroke-width:.8"/></g><g id="patch_4"><path d="M 28.8 194.4 L 288 194.4" style="fill:none;stroke:#000;stroke-linecap:square;stroke-linejoin:miter;stroke-width:.8"/></g></g></g><defs><clipPath id="p2db4952e15"><rect width="259.2" height="194.4" x="28.8" y="0"/></clipPath></defs></svg>