<svg xmlns="http://www.w3.org/2000/svg" xmlns:xlink="http://www.w3.org/1999/xlink" width="307.2" height="230.4" version="1.1" viewBox="0 0 230.4 172.8"><defs><style type="text/css">*{stroke-linecap:butt;stroke-linejoin:round}</style></defs><g id="figure_1"><g id="patch_1"><path d="M 0 172.8 L 230.4 172.8 L 230.4 0 L 0 0 z" style="fill:none"/></g><g id="axes_1"><g id="patch_2"><path d="M 23.04 155.52 L 230.4 155.52 L 230.4 0 L 23.04 0 z" style="fill:none"/></g><g id="PathCollection_1"><defs><path id="m1590d66af0" d="M 0 1.5 C 0.397805 1.5 0.77937 1.341951 1.06066 1.06066 C 1.341951 0.77937 1.5 0.397805 1.5 0 C 1.5 -0.397805 1.341951 -0.77937 1.06066 -1.06066 C 0.77937 -1.341951 0.397805 -1.5 0 -1.5 C -0.397805 -1.5 -0.77937 -1.341951 -1.06066 -1.06066 C -1.341951 -0.77937 -1.5 -0.397805 -1.5 0 C -1.5 0.397805 -1.341951 0.77937 -1.06066 1.06066 C -0.77937 1.341951 -0.397805 1.5 0 1.5 z" style="stroke:#000"/></defs><g clip-path="url(#p2be4236bc2)"><use style="stroke:#000" x="136.842" y="133.554" xlink:href="#m1590d66af0"/><use style="stroke:#000" x="171.342" y="62.22" xlink:href="#m1590d66af0"/><use style="stroke:#000" x="148.029" y="110.195" xlink:href="#m1590d66af0"/><use style="stroke:#000" x="136.027" y="106.564" xlink:href="#m1590d66af0"/><use style="stroke:#000" x="110.889" y="119.381" xlink:href="#m1590d66af0"/><use style="stroke:#000" x="156.973" y="84.524" xlink:href="#m1590d66af0"/><use style="stroke:#000" x="113.778" y="127.534" xlink:href="#m1590d66af0"/><use style="stroke:#000" x="207.958" y="114.471" xlink:href="#m1590d66af0"/><use style="stroke:#000" x="222.865" y="131.55" xlink:href="#m1590d66af0"/><use style="stroke:#000" x="102.55" y="83.202" xlink:href="#m1590d66af0"/><use style="stroke:#000" x="187.212" y="117.124" xlink:href="#m1590d66af0"/><use style="stroke:#000" x="132.712" y="121.699" xlink:href="#m1590d66af0"/><use style="stroke:#000" x="140.83" y="98.734" xlink:href="#m1590d66af0"/><use style="stroke:#000" x="214.972" y="102.136" xlink:href="#m1590d66af0"/><use style="stroke:#000" x="37.77" y="78.567" xlink:href="#m1590d66af0"/><use style="stroke:#000" x="41.107" y="74.161" xlink:href="#m1590d66af0"/><use style="stroke:#000" x="27.232" y="91.546" xlink:href="#m1590d66af0"/><use style="stroke:#000" x="195.692" y="115.484" xlink:href="#m1590d66af0"/><use style="stroke:#000" x="184.399" y="120.05" xlink:href="#m1590d66af0"/><use style="stroke:#000" x="203.446" y="116.783" xlink:href="#m1590d66af0"/><use style="stroke:#000" x="225.966" y="130.354" xlink:href="#m1590d66af0"/><use style="stroke:#000" x="188.754" y="143.125" xlink:href="#m1590d66af0"/><use style="stroke:#000" x="118.732" y="90.487" xlink:href="#m1590d66af0"/><use style="stroke:#000" x="184.891" y="114.407" xlink:href="#m1590d66af0"/><use style="stroke:#000" x="47.565" y="116.21" xlink:href="#m1590d66af0"/><use style="stroke:#000" x="155.734" y="90.968" xlink:href="#m1590d66af0"/><use style="stroke:#000" x="52.766" y="101.824" xlink:href="#m1590d66af0"/><use style="stroke:#000" x="218.927" y="110.801" xlink:href="#m1590d66af0"/><use style="stroke:#000" x="131.25" y="81.016" xlink:href="#m1590d66af0"/><use style="stroke:#000" x="109.024" y="89.802" xlink:href="#m1590d66af0"/><use style="stroke:#000" x="77.898" y="62.928" xlink:href="#m1590d66af0"/><use style="stroke:#000" x="183.585" y="131.811" xlink:href="#m1590d66af0"/><use style="stroke:#000" x="117.627" y="85.532" xlink:href="#m1590d66af0"/><use style="stroke:#000" x="140.91" y="112.648" xlink:href="#m1590d66af0"/><use style="stroke:#000" x="26.936" y="96.5" xlink:href="#m1590d66af0"/><use style="stroke:#000" x="151.113" y="112.203" xlink:href="#m1590d66af0"/><use style="stroke:#000" x="149.964" y="106.342" xlink:href="#m1590d66af0"/><use style="stroke:#000" x="150.967" y="98.735" xlink:href="#m1590d66af0"/><use style="stroke:#000" x="218.736" y="136.531" xlink:href="#m1590d66af0"/><use style="stroke:#000" x="164.422" y="83.226" xlink:href="#m1590d66af0"/><use style="stroke:#000" x="97.588" y="80.66" xlink:href="#m1590d66af0"/><use style="stroke:#000" x="113.663" y="125.87" xlink:href="#m1590d66af0"/><use style="stroke:#000" x="167.701" y="71.369" xlink:href="#m1590d66af0"/><use style="stroke:#000" x="35.528" y="39.448" xlink:href="#m1590d66af0"/><use style="stroke:#000" x="161.301" y="76.792" xlink:href="#m1590d66af0"/><use style="stroke:#000" x="162.103" y="105.695" xlink:href="#m1590d66af0"/><use style="stroke:#000" x="66.665" y="107.734" xlink:href="#m1590d66af0"/><use style="stroke:#000" x="49.774" y="59.77" xlink:href="#m1590d66af0"/><use style="stroke:#000" x="88.447" y="97.441" xlink:href="#m1590d66af0"/><use style="stroke:#000" x="98.459" y="64.793" xlink:href="#m1590d66af0"/></g></g><g id="matplotlib.axis_1"><g id="text_1"><defs><path id="DejaVuSans-Bold-120" d="M 22.21875 27.984375 L 2.484375 54.6875 L 21 54.6875 L 32.171875 38.484375 L 43.5 54.6875 L 62.015625 54.6875 L 42.28125 28.078125 L 62.984375 0 L 44.484375 0 L 32.171875 17.28125 L 20.015625 0 L 1.515625 0 z"/></defs><g transform="translate(121.56 171.6775)scale(0.16 -0.16)"><use xlink:href="#DejaVuSans-Bold-120"/></g></g></g><g id="matplotlib.axis_2"><g id="text_2"><defs><path id="DejaVuSans-Bold-121" d="M 1.21875 54.6875 L 18.703125 54.6875 L 33.40625 17.578125 L 45.90625 54.6875 L 63.375 54.6875 L 40.375 -5.171875 Q 36.921875 -14.3125 32.296875 -17.9375 Q 27.6875 -21.578125 20.125 -21.578125 L 10.015625 -21.578125 L 10.015625 -10.109375 L 15.484375 -10.109375 Q 19.921875 -10.109375 21.9375 -8.6875 Q 23.96875 -7.28125 25.09375 -3.609375 L 25.59375 -2.09375 z"/></defs><g transform="translate(15.5875 82.975)rotate(-90)scale(0.16 -0.16)"><use xlink:href="#DejaVuSans-Bold-121"/></g></g></g><g id="line2d_1"><path d="M 23.04 77.532269 L 230.4 120.579156" clip-path="url(#p2be4236bc2)" style="fill:none;stroke:#1f77b4;stroke-linecap:square;stroke-width:3"/></g><g id="patch_3"><path d="M 23.04 155.52 L 23.04 0" style="fill:none;stroke:#000;stroke-linecap:square;stroke-linejoin:miter;stroke-width:.8"/></g><g id="patch_4"><path d="M 23.04 155.52 L 230.4 155.52" style="fill:none;stroke:#000;stroke-linecap:square;stroke-linejoin:miter;stroke-width:.8"/></g></g></g><defs><clipPath id="p2be4236bc2"><rect width="207.36" height="155.52" x="23.04" y="0"/></clipPath></defs></svg>