<svg xmlns="http://www.w3.org/2000/svg" xmlns:xlink="http://www.w3.org/1999/xlink" width="384" height="288" version="1.1" viewBox="0 0 288 216"><defs><style type="text/css">*{stroke-linecap:butt;stroke-linejoin:round;white-space:pre}</style></defs><g id="figure_1"><g id="patch_1"><path d="M 0 216 L 288 216 L 288 0 L 0 0 z" style="fill:none"/></g><g id="axes_1"><g id="patch_2"><path d="M 28.8 194.4 L 288 194.4 L 288 0 L 28.8 0 z" style="fill:none"/></g><g id="PathCollection_1"><defs><path id="m277c54c93b" d="M 0 1.5 C 0.397805 1.5 0.77937 1.341951 1.06066 1.06066 C 1.341951 0.77937 1.5 0.397805 1.5 0 C 1.5 -0.397805 1.341951 -0.77937 1.06066 -1.06066 C 0.77937 -1.341951 0.397805 -1.5 0 -1.5 C -0.397805 -1.5 -0.77937 -1.341951 -1.06066 -1.06066 C -1.341951 -0.77937 -1.5 -0.397805 -1.5 0 C -1.5 0.397805 -1.341951 0.77937 -1.06066 1.06066 C -0.77937 1.341951 -0.397805 1.5 0 1.5 z" style="stroke:#000"/></defs><g clip-path="url(#p905f7c5017)"><use style="stroke:#000" x="171.052" y="75.17" xlink:href="#m277c54c93b"/><use style="stroke:#000" x="214.177" y="86.165" xlink:href="#m277c54c93b"/><use style="stroke:#000" x="185.036" y="90.475" xlink:href="#m277c54c93b"/><use style="stroke:#000" x="170.034" y="119.414" xlink:href="#m277c54c93b"/><use style="stroke:#000" x="138.611" y="166.131" xlink:href="#m277c54c93b"/><use style="stroke:#000" x="196.216" y="78.771" xlink:href="#m277c54c93b"/><use style="stroke:#000" x="142.223" y="100.72" xlink:href="#m277c54c93b"/><use style="stroke:#000" x="259.948" y="74.236" xlink:href="#m277c54c93b"/><use style="stroke:#000" x="278.581" y="9.181" xlink:href="#m277c54c93b"/><use style="stroke:#000" x="128.188" y="150.654" xlink:href="#m277c54c93b"/><use style="stroke:#000" x="234.015" y="71.982" xlink:href="#m277c54c93b"/><use style="stroke:#000" x="165.89" y="108.973" xlink:href="#m277c54c93b"/><use style="stroke:#000" x="176.037" y="72.06" xlink:href="#m277c54c93b"/><use style="stroke:#000" x="268.715" y="28.825" xlink:href="#m277c54c93b"/><use style="stroke:#000" x="47.213" y="159.476" xlink:href="#m277c54c93b"/><use style="stroke:#000" x="51.384" y="153.317" xlink:href="#m277c54c93b"/><use style="stroke:#000" x="34.041" y="185.219" xlink:href="#m277c54c93b"/><use style="stroke:#000" x="244.615" y="104.664" xlink:href="#m277c54c93b"/><use style="stroke:#000" x="230.498" y="81.003" xlink:href="#m277c54c93b"/><use style="stroke:#000" x="254.307" y="60.196" xlink:href="#m277c54c93b"/></g></g><g id="matplotlib.axis_1"><g id="text_1"><defs><path id="DejaVuSans-Bold-120" d="M 22.21875 27.984375 L 2.484375 54.6875 L 21 54.6875 L 32.171875 38.484375 L 43.5 54.6875 L 62.015625 54.6875 L 42.28125 28.078125 L 62.984375 0 L 44.484375 0 L 32.171875 17.28125 L 20.015625 0 L 1.515625 0 z"/><path id="DejaVuSans-Bold-32"/><path id="DejaVuSans-Bold-40" d="M 37.703125 -13.1875 L 23.1875 -13.1875 Q 15.71875 -1.125 12.15625 9.734375 Q 8.59375 20.609375 8.59375 31.296875 Q 8.59375 42 12.171875 52.953125 Q 15.765625 63.921875 23.1875 75.875 L 37.703125 75.875 Q 31.453125 64.3125 28.328125 53.25 Q 25.203125 42.1875 25.203125 31.390625 Q 25.203125 20.609375 28.296875 9.515625 Q 31.390625 -1.5625 37.703125 -13.1875 z"/><path id="DejaVuSans-Bold-71" d="M 74.703125 5.421875 Q 67.671875 2 60.109375 0.28125 Q 52.546875 -1.421875 44.484375 -1.421875 Q 26.265625 -1.421875 15.625 8.765625 Q 4.984375 18.953125 4.984375 36.375 Q 4.984375 54 15.8125 64.109375 Q 26.65625 74.21875 45.515625 74.21875 Q 52.78125 74.21875 59.4375 72.84375 Q 66.109375 71.484375 72.015625 68.796875 L 72.015625 53.71875 Q 65.921875 57.171875 59.890625 58.875 Q 53.859375 60.59375 47.796875 60.59375 Q 36.578125 60.59375 30.5 54.3125 Q 24.421875 48.046875 24.421875 36.375 Q 24.421875 24.8125 30.28125 18.5 Q 36.140625 12.203125 46.921875 12.203125 Q 49.859375 12.203125 52.375 12.5625 Q 54.890625 12.9375 56.890625 13.71875 L 56.890625 27.875 L 45.40625 27.875 L 45.40625 40.484375 L 74.703125 40.484375 z"/><path id="DejaVuSans-Bold-114" d="M 49.03125 39.796875 Q 46.734375 40.875 44.453125 41.375 Q 42.1875 41.890625 39.890625 41.890625 Q 33.15625 41.890625 29.515625 37.5625 Q 25.875 33.25 25.875 25.203125 L 25.875 0 L 8.40625 0 L 8.40625 54.6875 L 25.875 54.6875 L 25.875 45.703125 Q 29.25 51.078125 33.609375 53.53125 Q 37.984375 56 44.09375 56 Q 44.96875 56 45.984375 55.921875 Q 47.015625 55.859375 48.96875 55.609375 z"/><path id="DejaVuSans-Bold-95" d="M 50 -14.3125 L 50 -23.578125 L 0 -23.578125 L 0 -14.3125 z"/><path id="DejaVuSans-Bold-76" d="M 9.1875 72.90625 L 27.984375 72.90625 L 27.984375 14.203125 L 60.984375 14.203125 L 60.984375 0 L 9.1875 0 z"/><path id="DejaVuSans-Bold-105" d="M 8.40625 54.6875 L 25.875 54.6875 L 25.875 0 L 8.40625 0 z M 8.40625 75.984375 L 25.875 75.984375 L 25.875 61.71875 L 8.40625 61.71875 z"/><path id="DejaVuSans-Bold-118" d="M 1.515625 54.6875 L 19 54.6875 L 32.625 16.890625 L 46.1875 54.6875 L 63.71875 54.6875 L 42.1875 0 L 23 0 z"/><path id="DejaVuSans-Bold-65" d="M 53.421875 13.28125 L 24.03125 13.28125 L 19.390625 0 L 0.484375 0 L 27.484375 72.90625 L 49.90625 72.90625 L 76.90625 0 L 58.015625 0 z M 28.71875 26.8125 L 48.6875 26.8125 L 38.71875 55.8125 z"/><path id="DejaVuSans-Bold-101" d="M 62.984375 27.484375 L 62.984375 22.515625 L 22.125 22.515625 Q 22.75 16.359375 26.5625 13.28125 Q 30.375 10.203125 37.203125 10.203125 Q 42.71875 10.203125 48.5 11.84375 Q 54.296875 13.484375 60.40625 16.796875 L 60.40625 3.328125 Q 54.203125 0.984375 48 -0.21875 Q 41.796875 -1.421875 35.59375 -1.421875 Q 20.75 -1.421875 12.515625 6.125 Q 4.296875 13.671875 4.296875 27.296875 Q 4.296875 40.671875 12.375 48.328125 Q 20.453125 56 34.625 56 Q 47.515625 56 55.25 48.234375 Q 62.984375 40.484375 62.984375 27.484375 z M 45.015625 33.296875 Q 45.015625 38.28125 42.109375 41.328125 Q 39.203125 44.390625 34.515625 44.390625 Q 29.4375 44.390625 26.265625 41.53125 Q 23.09375 38.671875 22.3125 33.296875 z"/><path id="DejaVuSans-Bold-97" d="M 32.90625 24.609375 Q 27.4375 24.609375 24.671875 22.75 Q 21.921875 20.90625 21.921875 17.28125 Q 21.921875 13.96875 24.140625 12.078125 Q 26.375 10.203125 30.328125 10.203125 Q 35.25 10.203125 38.625 13.734375 Q 42 17.28125 42 22.609375 L 42 24.609375 z M 59.625 31.203125 L 59.625 0 L 42 0 L 42 8.109375 Q 38.484375 3.125 34.078125 0.84375 Q 29.6875 -1.421875 23.390625 -1.421875 Q 14.890625 -1.421875 9.59375 3.53125 Q 4.296875 8.5 4.296875 16.40625 Q 4.296875 26.03125 10.90625 30.515625 Q 17.53125 35.015625 31.6875 35.015625 L 42 35.015625 L 42 36.375 Q 42 40.53125 38.71875 42.453125 Q 35.453125 44.390625 28.515625 44.390625 Q 22.90625 44.390625 18.0625 43.265625 Q 13.234375 42.140625 9.078125 39.890625 L 9.078125 53.21875 Q 14.703125 54.59375 20.359375 55.296875 Q 26.03125 56 31.6875 56 Q 46.484375 56 53.046875 50.171875 Q 59.625 44.34375 59.625 31.203125 z"/><path id="DejaVuSans-Bold-41" d="M 8.015625 -13.1875 Q 14.265625 -1.5625 17.390625 9.515625 Q 20.515625 20.609375 20.515625 31.390625 Q 20.515625 42.1875 17.390625 53.25 Q 14.265625 64.3125 8.015625 75.875 L 22.515625 75.875 Q 29.9375 63.921875 33.515625 52.953125 Q 37.109375 42 37.109375 31.296875 Q 37.109375 20.609375 33.546875 9.734375 Q 29.984375 -1.125 22.515625 -13.1875 z"/></defs><g transform="translate(90.615 210.5575)scale(0.16 -0.16)"><use xlink:href="#DejaVuSans-Bold-120"/><use x="64.502" xlink:href="#DejaVuSans-Bold-32"/><use x="99.316" xlink:href="#DejaVuSans-Bold-40"/><use x="145.02" xlink:href="#DejaVuSans-Bold-71"/><use x="227.1" xlink:href="#DejaVuSans-Bold-114"/><use x="276.416" xlink:href="#DejaVuSans-Bold-95"/><use x="326.416" xlink:href="#DejaVuSans-Bold-76"/><use x="390.137" xlink:href="#DejaVuSans-Bold-105"/><use x="424.414" xlink:href="#DejaVuSans-Bold-118"/><use x="489.6" xlink:href="#DejaVuSans-Bold-95"/><use x="539.6" xlink:href="#DejaVuSans-Bold-65"/><use x="616.992" xlink:href="#DejaVuSans-Bold-114"/><use x="666.309" xlink:href="#DejaVuSans-Bold-101"/><use x="734.131" xlink:href="#DejaVuSans-Bold-97"/><use x="801.611" xlink:href="#DejaVuSans-Bold-41"/></g></g></g><g id="matplotlib.axis_2"><g id="text_2"><defs><path id="DejaVuSans-Bold-121" d="M 1.21875 54.6875 L 18.703125 54.6875 L 33.40625 17.578125 L 45.90625 54.6875 L 63.375 54.6875 L 40.375 -5.171875 Q 36.921875 -14.3125 32.296875 -17.9375 Q 27.6875 -21.578125 20.125 -21.578125 L 10.015625 -21.578125 L 10.015625 -10.109375 L 15.484375 -10.109375 Q 19.921875 -10.109375 21.9375 -8.6875 Q 23.96875 -7.28125 25.09375 -3.609375 L 25.59375 -2.09375 z"/><path id="DejaVuSans-Bold-83" d="M 59.90625 70.609375 L 59.90625 55.171875 Q 53.90625 57.859375 48.1875 59.21875 Q 42.484375 60.59375 37.40625 60.59375 Q 30.671875 60.59375 27.4375 58.734375 Q 24.21875 56.890625 24.21875 52.984375 Q 24.21875 50.046875 26.390625 48.40625 Q 28.5625 46.78125 34.28125 45.609375 L 42.28125 44 Q 54.4375 41.546875 59.5625 36.5625 Q 64.703125 31.59375 64.703125 22.40625 Q 64.703125 10.359375 57.546875 4.46875 Q 50.390625 -1.421875 35.6875 -1.421875 Q 28.765625 -1.421875 21.78125 -0.09375 Q 14.796875 1.21875 7.8125 3.8125 L 7.8125 19.671875 Q 14.796875 15.96875 21.3125 14.078125 Q 27.828125 12.203125 33.890625 12.203125 Q 40.046875 12.203125 43.3125 14.25 Q 46.578125 16.3125 46.578125 20.125 Q 46.578125 23.53125 44.359375 25.390625 Q 42.140625 27.25 35.5 28.71875 L 28.21875 30.328125 Q 17.28125 32.671875 12.21875 37.796875 Q 7.171875 42.921875 7.171875 51.609375 Q 7.171875 62.5 14.203125 68.359375 Q 21.234375 74.21875 34.421875 74.21875 Q 40.4375 74.21875 46.78125 73.3125 Q 53.125 72.40625 59.90625 70.609375 z"/><path id="DejaVuSans-Bold-108" d="M 8.40625 75.984375 L 25.875 75.984375 L 25.875 0 L 8.40625 0 z"/><path id="DejaVuSans-Bold-80" d="M 9.1875 72.90625 L 40.375 72.90625 Q 54.296875 72.90625 61.734375 66.71875 Q 69.1875 60.546875 69.1875 49.125 Q 69.1875 37.640625 61.734375 31.46875 Q 54.296875 25.296875 40.375 25.296875 L 27.984375 25.296875 L 27.984375 0 L 9.1875 0 z M 27.984375 59.28125 L 27.984375 38.921875 L 38.375 38.921875 Q 43.84375 38.921875 46.828125 41.578125 Q 49.8125 44.234375 49.8125 49.125 Q 49.8125 54 46.828125 56.640625 Q 43.84375 59.28125 38.375 59.28125 z"/><path id="DejaVuSans-Bold-99" d="M 52.59375 52.984375 L 52.59375 38.71875 Q 49.03125 41.15625 45.4375 42.328125 Q 41.84375 43.5 37.984375 43.5 Q 30.671875 43.5 26.59375 39.234375 Q 22.515625 34.96875 22.515625 27.296875 Q 22.515625 19.625 26.59375 15.34375 Q 30.671875 11.078125 37.984375 11.078125 Q 42.09375 11.078125 45.78125 12.296875 Q 49.46875 13.53125 52.59375 15.921875 L 52.59375 1.609375 Q 48.484375 0.09375 44.265625 -0.65625 Q 40.046875 -1.421875 35.796875 -1.421875 Q 21 -1.421875 12.640625 6.171875 Q 4.296875 13.765625 4.296875 27.296875 Q 4.296875 40.828125 12.640625 48.40625 Q 21 56 35.796875 56 Q 40.09375 56 44.265625 55.25 Q 48.4375 54.5 52.59375 52.984375 z"/></defs><g transform="translate(21.0275 158.56125)rotate(-90)scale(0.16 -0.16)"><use xlink:href="#DejaVuSans-Bold-121"/><use x="65.186" xlink:href="#DejaVuSans-Bold-32"/><use x="100" xlink:href="#DejaVuSans-Bold-40"/><use x="145.703" xlink:href="#DejaVuSans-Bold-83"/><use x="217.725" xlink:href="#DejaVuSans-Bold-97"/><use x="285.205" xlink:href="#DejaVuSans-Bold-108"/><use x="319.482" xlink:href="#DejaVuSans-Bold-101"/><use x="387.305" xlink:href="#DejaVuSans-Bold-95"/><use x="437.305" xlink:href="#DejaVuSans-Bold-80"/><use x="510.596" xlink:href="#DejaVuSans-Bold-114"/><use x="559.912" xlink:href="#DejaVuSans-Bold-105"/><use x="594.189" xlink:href="#DejaVuSans-Bold-99"/><use x="653.467" xlink:href="#DejaVuSans-Bold-101"/><use x="721.289" xlink:href="#DejaVuSans-Bold-41"/></g></g></g><g id="line2d_1"><path d="M 28.8 181.206936 L 288 39.560279 L 288 39.560279" clip-path="url(#p905f7c5017)" style="fill:none;stroke:#1f77b4;stroke-linecap:square;stroke-width:2"/></g><g id="patch_3"><path d="M 28.8 194.4 L 28.8 0" style="fill:none;stroke:#000;stroke-linecap:square;stroke-linejoin:miter;stroke-width:.8"/></g><g id="patch_4"><path d="M 28.8 194.4 L 288 194.4" style="fill:none;stroke:#000;stroke-linecap:square;stroke-linejoin:miter;stroke-width:.8"/></g><g id="legend_1"><g id="line2d_2"><path d="M 45 23.577188 L 72 23.577188" style="fill:none;stroke:#1f77b4;stroke-linecap:square;stroke-width:2"/></g><g id="text_3"><defs><path id="DejaVuSans-102" d="M 37.109375 75.984375 L 37.109375 68.5 L 28.515625 68.5 Q 23.6875 68.5 21.796875 66.546875 Q 19.921875 64.59375 19.921875 59.515625 L 19.921875 54.6875 L 34.71875 54.6875 L 34.71875 47.703125 L 19.921875 47.703125 L 19.921875 0 L 10.890625 0 L 10.890625 47.703125 L 2.296875 47.703125 L 2.296875 54.6875 L 10.890625 54.6875 L 10.890625 58.5 Q 10.890625 67.625 15.140625 71.796875 Q 19.390625 75.984375 28.609375 75.984375 z"/><path id="DejaVuSans-105" d="M 9.421875 54.6875 L 18.40625 54.6875 L 18.40625 0 L 9.421875 0 z M 9.421875 75.984375 L 18.40625 75.984375 L 18.40625 64.59375 L 9.421875 64.59375 z"/><path id="DejaVuSans-116" d="M 18.3125 70.21875 L 18.3125 54.6875 L 36.8125 54.6875 L 36.8125 47.703125 L 18.3125 47.703125 L 18.3125 18.015625 Q 18.3125 11.328125 20.140625 9.421875 Q 21.96875 7.515625 27.59375 7.515625 L 36.8125 7.515625 L 36.8125 0 L 27.59375 0 Q 17.1875 0 13.234375 3.875 Q 9.28125 7.765625 9.28125 18.015625 L 9.28125 47.703125 L 2.6875 47.703125 L 2.6875 54.6875 L 9.28125 54.6875 L 9.28125 70.21875 z"/><path id="DejaVuSans-101" d="M 56.203125 29.59375 L 56.203125 25.203125 L 14.890625 25.203125 Q 15.484375 15.921875 20.484375 11.0625 Q 25.484375 6.203125 34.421875 6.203125 Q 39.59375 6.203125 44.453125 7.46875 Q 49.3125 8.734375 54.109375 11.28125 L 54.109375 2.78125 Q 49.265625 0.734375 44.1875 -0.34375 Q 39.109375 -1.421875 33.890625 -1.421875 Q 20.796875 -1.421875 13.15625 6.1875 Q 5.515625 13.8125 5.515625 26.8125 Q 5.515625 40.234375 12.765625 48.109375 Q 20.015625 56 32.328125 56 Q 43.359375 56 49.78125 48.890625 Q 56.203125 41.796875 56.203125 29.59375 z M 47.21875 32.234375 Q 47.125 39.59375 43.09375 43.984375 Q 39.0625 48.390625 32.421875 48.390625 Q 24.90625 48.390625 20.390625 44.140625 Q 15.875 39.890625 15.1875 32.171875 z"/><path id="DejaVuSans-100" d="M 45.40625 46.390625 L 45.40625 75.984375 L 54.390625 75.984375 L 54.390625 0 L 45.40625 0 L 45.40625 8.203125 Q 42.578125 3.328125 38.25 0.953125 Q 33.9375 -1.421875 27.875 -1.421875 Q 17.96875 -1.421875 11.734375 6.484375 Q 5.515625 14.40625 5.515625 27.296875 Q 5.515625 40.1875 11.734375 48.09375 Q 17.96875 56 27.875 56 Q 33.9375 56 38.25 53.625 Q 42.578125 51.265625 45.40625 46.390625 z M 14.796875 27.296875 Q 14.796875 17.390625 18.875 11.75 Q 22.953125 6.109375 30.078125 6.109375 Q 37.203125 6.109375 41.296875 11.75 Q 45.40625 17.390625 45.40625 27.296875 Q 45.40625 37.203125 41.296875 42.84375 Q 37.203125 48.484375 30.078125 48.484375 Q 22.953125 48.484375 18.875 42.84375 Q 14.796875 37.203125 14.796875 27.296875 z"/><path id="DejaVuSans-32"/><path id="DejaVuSans-99" d="M 48.78125 52.59375 L 48.78125 44.1875 Q 44.96875 46.296875 41.140625 47.34375 Q 37.3125 48.390625 33.40625 48.390625 Q 24.65625 48.390625 19.8125 42.84375 Q 14.984375 37.3125 14.984375 27.296875 Q 14.984375 17.28125 19.8125 11.734375 Q 24.65625 6.203125 33.40625 6.203125 Q 37.3125 6.203125 41.140625 7.25 Q 44.96875 8.296875 48.78125 10.40625 L 48.78125 2.09375 Q 45.015625 0.34375 40.984375 -0.53125 Q 36.96875 -1.421875 32.421875 -1.421875 Q 20.0625 -1.421875 12.78125 6.34375 Q 5.515625 14.109375 5.515625 27.296875 Q 5.515625 40.671875 12.859375 48.328125 Q 20.21875 56 33.015625 56 Q 37.15625 56 41.109375 55.140625 Q 45.0625 54.296875 48.78125 52.59375 z"/><path id="DejaVuSans-117" d="M 8.5 21.578125 L 8.5 54.6875 L 17.484375 54.6875 L 17.484375 21.921875 Q 17.484375 14.15625 20.5 10.265625 Q 23.53125 6.390625 29.59375 6.390625 Q 36.859375 6.390625 41.078125 11.03125 Q 45.3125 15.671875 45.3125 23.6875 L 45.3125 54.6875 L 54.296875 54.6875 L 54.296875 0 L 45.3125 0 L 45.3125 8.40625 Q 42.046875 3.421875 37.71875 1 Q 33.40625 -1.421875 27.6875 -1.421875 Q 18.265625 -1.421875 13.375 4.4375 Q 8.5 10.296875 8.5 21.578125 z M 31.109375 56 z"/><path id="DejaVuSans-114" d="M 41.109375 46.296875 Q 39.59375 47.171875 37.8125 47.578125 Q 36.03125 48 33.890625 48 Q 26.265625 48 22.1875 43.046875 Q 18.109375 38.09375 18.109375 28.8125 L 18.109375 0 L 9.078125 0 L 9.078125 54.6875 L 18.109375 54.6875 L 18.109375 46.1875 Q 20.953125 51.171875 25.484375 53.578125 Q 30.03125 56 36.53125 56 Q 37.453125 56 38.578125 55.875 Q 39.703125 55.765625 41.0625 55.515625 z"/><path id="DejaVuSans-118" d="M 2.984375 54.6875 L 12.5 54.6875 L 29.59375 8.796875 L 46.6875 54.6875 L 56.203125 54.6875 L 35.6875 0 L 23.484375 0 z"/></defs><g transform="translate(81 29.877188)scale(0.18 -0.18)"><use xlink:href="#DejaVuSans-102"/><use x="35.205" xlink:href="#DejaVuSans-105"/><use x="62.988" xlink:href="#DejaVuSans-116"/><use x="102.197" xlink:href="#DejaVuSans-116"/><use x="141.406" xlink:href="#DejaVuSans-101"/><use x="202.93" xlink:href="#DejaVuSans-100"/><use x="266.406" xlink:href="#DejaVuSans-32"/><use x="298.193" xlink:href="#DejaVuSans-99"/><use x="353.174" xlink:href="#DejaVuSans-117"/><use x="416.553" xlink:href="#DejaVuSans-114"/><use x="457.666" xlink:href="#DejaVuSans-118"/><use x="516.846" xlink:href="#DejaVuSans-101"/></g></g></g></g></g><defs><clipPath id="p905f7c5017"><rect width="259.2" height="194.4" x="28.8" y="0"/></clipPath></defs></svg>