<svg xmlns="http://www.w3.org/2000/svg" xmlns:xlink="http://www.w3.org/1999/xlink" width="384" height="288" version="1.1" viewBox="0 0 288 216"><metadata><rdf:RDF xmlns:cc="http://creativecommons.org/ns#" xmlns:dc="http://purl.org/dc/elements/1.1/" xmlns:rdf="http://www.w3.org/1999/02/22-rdf-syntax-ns#"><cc:Work><dc:type rdf:resource="http://purl.org/dc/dcmitype/StillImage"/><dc:date>2021-04-23T17:39:34.898240</dc:date><dc:format>image/svg+xml</dc:format><dc:creator><cc:Agent><dc:title>Matplotlib v3.3.4, https://matplotlib.org/</dc:title></cc:Agent></dc:creator></cc:Work></rdf:RDF></metadata><defs><style type="text/css">*{stroke-linecap:butt;stroke-linejoin:round}</style></defs><g id="figure_1"><g id="patch_1"><path d="M 0 216 L 288 216 L 288 0 L 0 0 z" style="fill:none"/></g><g id="axes_1"><g id="patch_2"><path d="M 28.8 194.4 L 288 194.4 L 288 0 L 28.8 0 z" style="fill:none"/></g><g id="matplotlib.axis_1"><g id="text_1"><g transform="translate(151.305 215.116562)scale(0.22 -0.22)"><defs><path id="DejaVuSans-Bold-120" d="M 22.21875 27.984375 L 2.484375 54.6875 L 21 54.6875 L 32.171875 38.484375 L 43.5 54.6875 L 62.015625 54.6875 L 42.28125 28.078125 L 62.984375 0 L 44.484375 0 L 32.171875 17.28125 L 20.015625 0 L 1.515625 0 z"/></defs><use xlink:href="#DejaVuSans-Bold-120"/></g></g></g><g id="matplotlib.axis_2"><g id="text_2"><g transform="translate(20.052813 104.370625)rotate(-90)scale(0.22 -0.22)"><defs><path id="DejaVuSans-Bold-121" d="M 1.21875 54.6875 L 18.703125 54.6875 L 33.40625 17.578125 L 45.90625 54.6875 L 63.375 54.6875 L 40.375 -5.171875 Q 36.921875 -14.3125 32.296875 -17.9375 Q 27.6875 -21.578125 20.125 -21.578125 L 10.015625 -21.578125 L 10.015625 -10.109375 L 15.484375 -10.109375 Q 19.921875 -10.109375 21.9375 -8.6875 Q 23.96875 -7.28125 25.09375 -3.609375 L 25.59375 -2.09375 z"/></defs><use xlink:href="#DejaVuSans-Bold-121"/></g></g></g><g id="line2d_1"><defs><path id="mf315b0d4ee" d="M 0 7.5 C 1.989023 7.5 3.896849 6.709753 5.303301 5.303301 C 6.709753 3.896849 7.5 1.989023 7.5 0 C 7.5 -1.989023 6.709753 -3.896849 5.303301 -5.303301 C 3.896849 -6.709753 1.989023 -7.5 0 -7.5 C -1.989023 -7.5 -3.896849 -6.709753 -5.303301 -5.303301 C -6.709753 -3.896849 -7.5 -1.989023 -7.5 0 C -7.5 1.989023 -6.709753 3.896849 -5.303301 5.303301 C -3.896849 6.709753 -1.989023 7.5 0 7.5 z" style="stroke:gray;stroke-opacity:.2"/></defs><g clip-path="url(#p0040b44cb4)"><use style="fill:gray;fill-opacity:.2;stroke:gray;stroke-opacity:.2" x="183.733" y="98.886" xlink:href="#mf315b0d4ee"/><use style="fill:gray;fill-opacity:.2;stroke:gray;stroke-opacity:.2" x="155.756" y="110.781" xlink:href="#mf315b0d4ee"/><use style="fill:gray;fill-opacity:.2;stroke:gray;stroke-opacity:.2" x="190.384" y="116.089" xlink:href="#mf315b0d4ee"/><use style="fill:gray;fill-opacity:.2;stroke:gray;stroke-opacity:.2" x="228.951" y="76.64" xlink:href="#mf315b0d4ee"/><use style="fill:gray;fill-opacity:.2;stroke:gray;stroke-opacity:.2" x="151.531" y="114.075" xlink:href="#mf315b0d4ee"/><use style="fill:gray;fill-opacity:.2;stroke:gray;stroke-opacity:.2" x="151.532" y="136.306" xlink:href="#mf315b0d4ee"/><use style="fill:gray;fill-opacity:.2;stroke:gray;stroke-opacity:.2" x="231.427" y="39.353" xlink:href="#mf315b0d4ee"/><use style="fill:gray;fill-opacity:.2;stroke:gray;stroke-opacity:.2" x="195.66" y="87.984" xlink:href="#mf315b0d4ee"/><use style="fill:gray;fill-opacity:.2;stroke:gray;stroke-opacity:.2" x="141.163" y="152.025" xlink:href="#mf315b0d4ee"/><use style="fill:gray;fill-opacity:.2;stroke:gray;stroke-opacity:.2" x="185.752" y="88.914" xlink:href="#mf315b0d4ee"/><use style="fill:gray;fill-opacity:.2;stroke:gray;stroke-opacity:.2" x="141.43" y="147.111" xlink:href="#mf315b0d4ee"/><use style="fill:gray;fill-opacity:.2;stroke:gray;stroke-opacity:.2" x="141.328" y="108.284" xlink:href="#mf315b0d4ee"/><use style="fill:gray;fill-opacity:.2;stroke:gray;stroke-opacity:.2" x="172.508" y="84.468" xlink:href="#mf315b0d4ee"/><use style="fill:gray;fill-opacity:.2;stroke:gray;stroke-opacity:.2" x="77.55" y="175.707" xlink:href="#mf315b0d4ee"/><use style="fill:gray;fill-opacity:.2;stroke:gray;stroke-opacity:.2" x="85.849" y="132.181" xlink:href="#mf315b0d4ee"/><use style="fill:gray;fill-opacity:.2;stroke:gray;stroke-opacity:.2" x="137.074" y="118.675" xlink:href="#mf315b0d4ee"/><use style="fill:gray;fill-opacity:.2;stroke:gray;stroke-opacity:.2" x="117.223" y="119.585" xlink:href="#mf315b0d4ee"/><use style="fill:gray;fill-opacity:.2;stroke:gray;stroke-opacity:.2" x="175.693" y="66.583" xlink:href="#mf315b0d4ee"/><use style="fill:gray;fill-opacity:.2;stroke:gray;stroke-opacity:.2" x="121.841" y="140.828" xlink:href="#mf315b0d4ee"/><use style="fill:gray;fill-opacity:.2;stroke:gray;stroke-opacity:.2" x="99.623" y="163.174" xlink:href="#mf315b0d4ee"/><use style="fill:gray;fill-opacity:.2;stroke:gray;stroke-opacity:.2" x="226.423" y="102.661" xlink:href="#mf315b0d4ee"/><use style="fill:gray;fill-opacity:.2;stroke:gray;stroke-opacity:.2" x="151.9" y="138.361" xlink:href="#mf315b0d4ee"/><use style="fill:gray;fill-opacity:.2;stroke:gray;stroke-opacity:.2" x="164.823" y="115.587" xlink:href="#mf315b0d4ee"/><use style="fill:gray;fill-opacity:.2;stroke:gray;stroke-opacity:.2" x="99.074" y="139.288" xlink:href="#mf315b0d4ee"/><use style="fill:gray;fill-opacity:.2;stroke:gray;stroke-opacity:.2" x="137.863" y="121.283" xlink:href="#mf315b0d4ee"/><use style="fill:gray;fill-opacity:.2;stroke:gray;stroke-opacity:.2" x="166.735" y="94.674" xlink:href="#mf315b0d4ee"/><use style="fill:gray;fill-opacity:.2;stroke:gray;stroke-opacity:.2" x="111.136" y="140.488" xlink:href="#mf315b0d4ee"/><use style="fill:gray;fill-opacity:.2;stroke:gray;stroke-opacity:.2" x="178.401" y="75.009" xlink:href="#mf315b0d4ee"/><use style="fill:gray;fill-opacity:.2;stroke:gray;stroke-opacity:.2" x="135.384" y="134.47" xlink:href="#mf315b0d4ee"/><use style="fill:gray;fill-opacity:.2;stroke:gray;stroke-opacity:.2" x="148.996" y="61.785" xlink:href="#mf315b0d4ee"/><use style="fill:gray;fill-opacity:.2;stroke:gray;stroke-opacity:.2" x="135.337" y="114.847" xlink:href="#mf315b0d4ee"/><use style="fill:gray;fill-opacity:.2;stroke:gray;stroke-opacity:.2" x="243.458" y="93.415" xlink:href="#mf315b0d4ee"/><use style="fill:gray;fill-opacity:.2;stroke:gray;stroke-opacity:.2" x="161.253" y="139.305" xlink:href="#mf315b0d4ee"/><use style="fill:gray;fill-opacity:.2;stroke:gray;stroke-opacity:.2" x="115.246" y="128.069" xlink:href="#mf315b0d4ee"/><use style="fill:gray;fill-opacity:.2;stroke:gray;stroke-opacity:.2" x="198.088" y="102.155" xlink:href="#mf315b0d4ee"/><use style="fill:gray;fill-opacity:.2;stroke:gray;stroke-opacity:.2" x="108.058" y="126.56" xlink:href="#mf315b0d4ee"/><use style="fill:gray;fill-opacity:.2;stroke:gray;stroke-opacity:.2" x="171.05" y="100.323" xlink:href="#mf315b0d4ee"/><use style="fill:gray;fill-opacity:.2;stroke:gray;stroke-opacity:.2" x="75.506" y="160.228" xlink:href="#mf315b0d4ee"/><use style="fill:gray;fill-opacity:.2;stroke:gray;stroke-opacity:.2" x="103.329" y="163.372" xlink:href="#mf315b0d4ee"/><use style="fill:gray;fill-opacity:.2;stroke:gray;stroke-opacity:.2" x="170.521" y="144.46" xlink:href="#mf315b0d4ee"/><use style="fill:gray;fill-opacity:.2;stroke:gray;stroke-opacity:.2" x="194.384" y="108.933" xlink:href="#mf315b0d4ee"/><use style="fill:gray;fill-opacity:.2;stroke:gray;stroke-opacity:.2" x="169.398" y="92.695" xlink:href="#mf315b0d4ee"/><use style="fill:gray;fill-opacity:.2;stroke:gray;stroke-opacity:.2" x="156.752" y="113.203" xlink:href="#mf315b0d4ee"/><use style="fill:gray;fill-opacity:.2;stroke:gray;stroke-opacity:.2" x="148.581" y="149.51" xlink:href="#mf315b0d4ee"/><use style="fill:gray;fill-opacity:.2;stroke:gray;stroke-opacity:.2" x="96.705" y="144.181" xlink:href="#mf315b0d4ee"/><use style="fill:gray;fill-opacity:.2;stroke:gray;stroke-opacity:.2" x="130.132" y="122.757" xlink:href="#mf315b0d4ee"/><use style="fill:gray;fill-opacity:.2;stroke:gray;stroke-opacity:.2" x="141.552" y="145.045" xlink:href="#mf315b0d4ee"/><use style="fill:gray;fill-opacity:.2;stroke:gray;stroke-opacity:.2" x="208.424" y="88.655" xlink:href="#mf315b0d4ee"/><use style="fill:gray;fill-opacity:.2;stroke:gray;stroke-opacity:.2" x="176.987" y="106.508" xlink:href="#mf315b0d4ee"/><use style="fill:gray;fill-opacity:.2;stroke:gray;stroke-opacity:.2" x="84.169" y="179.504" xlink:href="#mf315b0d4ee"/><use style="fill:gray;fill-opacity:.2;stroke:gray;stroke-opacity:.2" x="176.127" y="100.328" xlink:href="#mf315b0d4ee"/><use style="fill:gray;fill-opacity:.2;stroke:gray;stroke-opacity:.2" x="144.881" y="111.498" xlink:href="#mf315b0d4ee"/><use style="fill:gray;fill-opacity:.2;stroke:gray;stroke-opacity:.2" x="132.023" y="106.413" xlink:href="#mf315b0d4ee"/><use style="fill:gray;fill-opacity:.2;stroke:gray;stroke-opacity:.2" x="188.798" y="78.622" xlink:href="#mf315b0d4ee"/><use style="fill:gray;fill-opacity:.2;stroke:gray;stroke-opacity:.2" x="207.273" y="123.025" xlink:href="#mf315b0d4ee"/><use style="fill:gray;fill-opacity:.2;stroke:gray;stroke-opacity:.2" x="202.879" y="115.52" xlink:href="#mf315b0d4ee"/><use style="fill:gray;fill-opacity:.2;stroke:gray;stroke-opacity:.2" x="124.872" y="122.529" xlink:href="#mf315b0d4ee"/><use style="fill:gray;fill-opacity:.2;stroke:gray;stroke-opacity:.2" x="148.224" y="110.861" xlink:href="#mf315b0d4ee"/><use style="fill:gray;fill-opacity:.2;stroke:gray;stroke-opacity:.2" x="176.443" y="96.699" xlink:href="#mf315b0d4ee"/><use style="fill:gray;fill-opacity:.2;stroke:gray;stroke-opacity:.2" x="204.829" y="8.827" xlink:href="#mf315b0d4ee"/><use style="fill:gray;fill-opacity:.2;stroke:gray;stroke-opacity:.2" x="140.736" y="113.351" xlink:href="#mf315b0d4ee"/><use style="fill:gray;fill-opacity:.2;stroke:gray;stroke-opacity:.2" x="153.668" y="94.413" xlink:href="#mf315b0d4ee"/><use style="fill:gray;fill-opacity:.2;stroke:gray;stroke-opacity:.2" x="113.103" y="118.737" xlink:href="#mf315b0d4ee"/><use style="fill:gray;fill-opacity:.2;stroke:gray;stroke-opacity:.2" x="109.144" y="127.398" xlink:href="#mf315b0d4ee"/><use style="fill:gray;fill-opacity:.2;stroke:gray;stroke-opacity:.2" x="197.647" y="104.402" xlink:href="#mf315b0d4ee"/><use style="fill:gray;fill-opacity:.2;stroke:gray;stroke-opacity:.2" x="221.603" y="68.698" xlink:href="#mf315b0d4ee"/><use style="fill:gray;fill-opacity:.2;stroke:gray;stroke-opacity:.2" x="158.675" y="134.019" xlink:href="#mf315b0d4ee"/><use style="fill:gray;fill-opacity:.2;stroke:gray;stroke-opacity:.2" x="206.063" y="98.456" xlink:href="#mf315b0d4ee"/><use style="fill:gray;fill-opacity:.2;stroke:gray;stroke-opacity:.2" x="177.781" y="118.106" xlink:href="#mf315b0d4ee"/><use style="fill:gray;fill-opacity:.2;stroke:gray;stroke-opacity:.2" x="133.424" y="127.805" xlink:href="#mf315b0d4ee"/><use style="fill:gray;fill-opacity:.2;stroke:gray;stroke-opacity:.2" x="177.771" y="56.321" xlink:href="#mf315b0d4ee"/><use style="fill:gray;fill-opacity:.2;stroke:gray;stroke-opacity:.2" x="229.612" y="122.641" xlink:href="#mf315b0d4ee"/><use style="fill:gray;fill-opacity:.2;stroke:gray;stroke-opacity:.2" x="160.269" y="101.022" xlink:href="#mf315b0d4ee"/><use style="fill:gray;fill-opacity:.2;stroke:gray;stroke-opacity:.2" x="230.785" y="116.436" xlink:href="#mf315b0d4ee"/><use style="fill:gray;fill-opacity:.2;stroke:gray;stroke-opacity:.2" x="46.424" y="183.601" xlink:href="#mf315b0d4ee"/><use style="fill:gray;fill-opacity:.2;stroke:gray;stroke-opacity:.2" x="198.06" y="73.207" xlink:href="#mf315b0d4ee"/><use style="fill:gray;fill-opacity:.2;stroke:gray;stroke-opacity:.2" x="165.683" y="112.036" xlink:href="#mf315b0d4ee"/><use style="fill:gray;fill-opacity:.2;stroke:gray;stroke-opacity:.2" x="148.674" y="145.757" xlink:href="#mf315b0d4ee"/><use style="fill:gray;fill-opacity:.2;stroke:gray;stroke-opacity:.2" x="165.891" y="129.135" xlink:href="#mf315b0d4ee"/><use style="fill:gray;fill-opacity:.2;stroke:gray;stroke-opacity:.2" x="74.277" y="144.239" xlink:href="#mf315b0d4ee"/><use style="fill:gray;fill-opacity:.2;stroke:gray;stroke-opacity:.2" x="152.169" y="136.34" xlink:href="#mf315b0d4ee"/><use style="fill:gray;fill-opacity:.2;stroke:gray;stroke-opacity:.2" x="177.582" y="102.718" xlink:href="#mf315b0d4ee"/><use style="fill:gray;fill-opacity:.2;stroke:gray;stroke-opacity:.2" x="226.963" y="81.756" xlink:href="#mf315b0d4ee"/><use style="fill:gray;fill-opacity:.2;stroke:gray;stroke-opacity:.2" x="139.013" y="141.191" xlink:href="#mf315b0d4ee"/><use style="fill:gray;fill-opacity:.2;stroke:gray;stroke-opacity:.2" x="126.226" y="85.905" xlink:href="#mf315b0d4ee"/><use style="fill:gray;fill-opacity:.2;stroke:gray;stroke-opacity:.2" x="139.741" y="112.459" xlink:href="#mf315b0d4ee"/><use style="fill:gray;fill-opacity:.2;stroke:gray;stroke-opacity:.2" x="202.18" y="139.865" xlink:href="#mf315b0d4ee"/><use style="fill:gray;fill-opacity:.2;stroke:gray;stroke-opacity:.2" x="176.332" y="104.006" xlink:href="#mf315b0d4ee"/><use style="fill:gray;fill-opacity:.2;stroke:gray;stroke-opacity:.2" x="138.507" y="141.67" xlink:href="#mf315b0d4ee"/><use style="fill:gray;fill-opacity:.2;stroke:gray;stroke-opacity:.2" x="184.462" y="85.238" xlink:href="#mf315b0d4ee"/><use style="fill:gray;fill-opacity:.2;stroke:gray;stroke-opacity:.2" x="166.125" y="130.722" xlink:href="#mf315b0d4ee"/><use style="fill:gray;fill-opacity:.2;stroke:gray;stroke-opacity:.2" x="204.525" y="96.532" xlink:href="#mf315b0d4ee"/><use style="fill:gray;fill-opacity:.2;stroke:gray;stroke-opacity:.2" x="130.916" y="119.724" xlink:href="#mf315b0d4ee"/><use style="fill:gray;fill-opacity:.2;stroke:gray;stroke-opacity:.2" x="147.411" y="103.501" xlink:href="#mf315b0d4ee"/><use style="fill:gray;fill-opacity:.2;stroke:gray;stroke-opacity:.2" x="144.572" y="150.516" xlink:href="#mf315b0d4ee"/><use style="fill:gray;fill-opacity:.2;stroke:gray;stroke-opacity:.2" x="97.366" y="155.053" xlink:href="#mf315b0d4ee"/><use style="fill:gray;fill-opacity:.2;stroke:gray;stroke-opacity:.2" x="174.895" y="119.322" xlink:href="#mf315b0d4ee"/><use style="fill:gray;fill-opacity:.2;stroke:gray;stroke-opacity:.2" x="173.35" y="124.032" xlink:href="#mf315b0d4ee"/><use style="fill:gray;fill-opacity:.2;stroke:gray;stroke-opacity:.2" x="162.073" y="76.303" xlink:href="#mf315b0d4ee"/><use style="fill:gray;fill-opacity:.2;stroke:gray;stroke-opacity:.2" x="151.512" y="111.615" xlink:href="#mf315b0d4ee"/><use style="fill:gray;fill-opacity:.2;stroke:gray;stroke-opacity:.2" x="99.488" y="174.434" xlink:href="#mf315b0d4ee"/><use style="fill:gray;fill-opacity:.2;stroke:gray;stroke-opacity:.2" x="143.314" y="104.403" xlink:href="#mf315b0d4ee"/><use style="fill:gray;fill-opacity:.2;stroke:gray;stroke-opacity:.2" x="146.748" y="76.107" xlink:href="#mf315b0d4ee"/><use style="fill:gray;fill-opacity:.2;stroke:gray;stroke-opacity:.2" x="126.5" y="110.296" xlink:href="#mf315b0d4ee"/><use style="fill:gray;fill-opacity:.2;stroke:gray;stroke-opacity:.2" x="154.742" y="152.463" xlink:href="#mf315b0d4ee"/><use style="fill:gray;fill-opacity:.2;stroke:gray;stroke-opacity:.2" x="179.65" y="117.145" xlink:href="#mf315b0d4ee"/><use style="fill:gray;fill-opacity:.2;stroke:gray;stroke-opacity:.2" x="244.952" y="45.794" xlink:href="#mf315b0d4ee"/><use style="fill:gray;fill-opacity:.2;stroke:gray;stroke-opacity:.2" x="169.539" y="127.139" xlink:href="#mf315b0d4ee"/><use style="fill:gray;fill-opacity:.2;stroke:gray;stroke-opacity:.2" x="173.195" y="99.898" xlink:href="#mf315b0d4ee"/><use style="fill:gray;fill-opacity:.2;stroke:gray;stroke-opacity:.2" x="158.568" y="99.924" xlink:href="#mf315b0d4ee"/><use style="fill:gray;fill-opacity:.2;stroke:gray;stroke-opacity:.2" x="77.308" y="178.173" xlink:href="#mf315b0d4ee"/><use style="fill:gray;fill-opacity:.2;stroke:gray;stroke-opacity:.2" x="160.68" y="117.274" xlink:href="#mf315b0d4ee"/><use style="fill:gray;fill-opacity:.2;stroke:gray;stroke-opacity:.2" x="164.501" y="185.573" xlink:href="#mf315b0d4ee"/><use style="fill:gray;fill-opacity:.2;stroke:gray;stroke-opacity:.2" x="270.376" y="83.623" xlink:href="#mf315b0d4ee"/><use style="fill:gray;fill-opacity:.2;stroke:gray;stroke-opacity:.2" x="153.372" y="125.194" xlink:href="#mf315b0d4ee"/><use style="fill:gray;fill-opacity:.2;stroke:gray;stroke-opacity:.2" x="175.134" y="136.256" xlink:href="#mf315b0d4ee"/><use style="fill:gray;fill-opacity:.2;stroke:gray;stroke-opacity:.2" x="160.318" y="80.118" xlink:href="#mf315b0d4ee"/><use style="fill:gray;fill-opacity:.2;stroke:gray;stroke-opacity:.2" x="110.357" y="172.725" xlink:href="#mf315b0d4ee"/><use style="fill:gray;fill-opacity:.2;stroke:gray;stroke-opacity:.2" x="212.2" y="99.867" xlink:href="#mf315b0d4ee"/><use style="fill:gray;fill-opacity:.2;stroke:gray;stroke-opacity:.2" x="194.977" y="95.897" xlink:href="#mf315b0d4ee"/><use style="fill:gray;fill-opacity:.2;stroke:gray;stroke-opacity:.2" x="196.7" y="66.114" xlink:href="#mf315b0d4ee"/><use style="fill:gray;fill-opacity:.2;stroke:gray;stroke-opacity:.2" x="121.781" y="167.129" xlink:href="#mf315b0d4ee"/><use style="fill:gray;fill-opacity:.2;stroke:gray;stroke-opacity:.2" x="223.654" y="58.751" xlink:href="#mf315b0d4ee"/><use style="fill:gray;fill-opacity:.2;stroke:gray;stroke-opacity:.2" x="100.083" y="146.085" xlink:href="#mf315b0d4ee"/><use style="fill:gray;fill-opacity:.2;stroke:gray;stroke-opacity:.2" x="187.704" y="124.084" xlink:href="#mf315b0d4ee"/><use style="fill:gray;fill-opacity:.2;stroke:gray;stroke-opacity:.2" x="258.358" y="56.84" xlink:href="#mf315b0d4ee"/><use style="fill:gray;fill-opacity:.2;stroke:gray;stroke-opacity:.2" x="118.205" y="132.841" xlink:href="#mf315b0d4ee"/><use style="fill:gray;fill-opacity:.2;stroke:gray;stroke-opacity:.2" x="136.897" y="141.117" xlink:href="#mf315b0d4ee"/><use style="fill:gray;fill-opacity:.2;stroke:gray;stroke-opacity:.2" x="166.238" y="111.636" xlink:href="#mf315b0d4ee"/><use style="fill:gray;fill-opacity:.2;stroke:gray;stroke-opacity:.2" x="139.665" y="134.989" xlink:href="#mf315b0d4ee"/><use style="fill:gray;fill-opacity:.2;stroke:gray;stroke-opacity:.2" x="93.527" y="147.09" xlink:href="#mf315b0d4ee"/><use style="fill:gray;fill-opacity:.2;stroke:gray;stroke-opacity:.2" x="164.869" y="99.251" xlink:href="#mf315b0d4ee"/><use style="fill:gray;fill-opacity:.2;stroke:gray;stroke-opacity:.2" x="115.043" y="103.818" xlink:href="#mf315b0d4ee"/><use style="fill:gray;fill-opacity:.2;stroke:gray;stroke-opacity:.2" x="182.714" y="132.24" xlink:href="#mf315b0d4ee"/><use style="fill:gray;fill-opacity:.2;stroke:gray;stroke-opacity:.2" x="121.339" y="88.594" xlink:href="#mf315b0d4ee"/><use style="fill:gray;fill-opacity:.2;stroke:gray;stroke-opacity:.2" x="230.137" y="124.25" xlink:href="#mf315b0d4ee"/><use style="fill:gray;fill-opacity:.2;stroke:gray;stroke-opacity:.2" x="127.338" y="136.009" xlink:href="#mf315b0d4ee"/><use style="fill:gray;fill-opacity:.2;stroke:gray;stroke-opacity:.2" x="147.658" y="109.5" xlink:href="#mf315b0d4ee"/><use style="fill:gray;fill-opacity:.2;stroke:gray;stroke-opacity:.2" x="197.691" y="91.222" xlink:href="#mf315b0d4ee"/><use style="fill:gray;fill-opacity:.2;stroke:gray;stroke-opacity:.2" x="107.617" y="156.279" xlink:href="#mf315b0d4ee"/><use style="fill:gray;fill-opacity:.2;stroke:gray;stroke-opacity:.2" x="171.869" y="114.949" xlink:href="#mf315b0d4ee"/><use style="fill:gray;fill-opacity:.2;stroke:gray;stroke-opacity:.2" x="219.439" y="97.409" xlink:href="#mf315b0d4ee"/><use style="fill:gray;fill-opacity:.2;stroke:gray;stroke-opacity:.2" x="91.023" y="163.854" xlink:href="#mf315b0d4ee"/><use style="fill:gray;fill-opacity:.2;stroke:gray;stroke-opacity:.2" x="169.983" y="92.552" xlink:href="#mf315b0d4ee"/><use style="fill:gray;fill-opacity:.2;stroke:gray;stroke-opacity:.2" x="173.298" y="101.762" xlink:href="#mf315b0d4ee"/><use style="fill:gray;fill-opacity:.2;stroke:gray;stroke-opacity:.2" x="196.294" y="113.413" xlink:href="#mf315b0d4ee"/><use style="fill:gray;fill-opacity:.2;stroke:gray;stroke-opacity:.2" x="107.349" y="122.82" xlink:href="#mf315b0d4ee"/><use style="fill:gray;fill-opacity:.2;stroke:gray;stroke-opacity:.2" x="103.669" y="137.733" xlink:href="#mf315b0d4ee"/><use style="fill:gray;fill-opacity:.2;stroke:gray;stroke-opacity:.2" x="184.844" y="85.919" xlink:href="#mf315b0d4ee"/><use style="fill:gray;fill-opacity:.2;stroke:gray;stroke-opacity:.2" x="174.933" y="94.927" xlink:href="#mf315b0d4ee"/></g></g><g id="line2d_2"><defs><path id="md9229934e6" d="M 0 7.5 C 1.989023 7.5 3.896849 6.709753 5.303301 5.303301 C 6.709753 3.896849 7.5 1.989023 7.5 0 C 7.5 -1.989023 6.709753 -3.896849 5.303301 -5.303301 C 3.896849 -6.709753 1.989023 -7.5 0 -7.5 C -1.989023 -7.5 -3.896849 -6.709753 -5.303301 -5.303301 C -6.709753 -3.896849 -7.5 -1.989023 -7.5 0 C -7.5 1.989023 -6.709753 3.896849 -5.303301 5.303301 C -3.896849 6.709753 -1.989023 7.5 0 7.5 z" style="stroke:#8c564b"/></defs><g clip-path="url(#p0040b44cb4)"><use style="fill:#8c564b;stroke:#8c564b" x="169.539" y="127.139" xlink:href="#md9229934e6"/><use style="fill:#8c564b;stroke:#8c564b" x="139.741" y="112.459" xlink:href="#md9229934e6"/><use style="fill:#8c564b;stroke:#8c564b" x="162.073" y="76.303" xlink:href="#md9229934e6"/><use style="fill:#8c564b;stroke:#8c564b" x="132.023" y="106.413" xlink:href="#md9229934e6"/><use style="fill:#8c564b;stroke:#8c564b" x="127.338" y="136.009" xlink:href="#md9229934e6"/></g></g><g id="line2d_3"><path d="M 46.4237 153.834307 L 48.685847 152.877682 L 50.947995 151.921056 L 53.210142 150.964431 L 55.47229 150.007806 L 57.734437 149.051181 L 59.996585 148.094556 L 62.258732 147.137931 L 64.52088 146.181306 L 66.783027 145.224681 L 69.045175 144.268056 L 71.307322 143.31143 L 73.569469 142.354805 L 75.831617 141.39818 L 78.093764 140.441555 L 80.355912 139.48493 L 82.618059 138.528305 L 84.880207 137.57168 L 87.142354 136.615055 L 89.404502 135.65843 L 91.666649 134.701804 L 93.928797 133.745179 L 96.190944 132.788554 L 98.453092 131.831929 L 100.715239 130.875304 L 102.977387 129.918679 L 105.239534 128.962054 L 107.501682 128.005429 L 109.763829 127.048804 L 112.025977 126.092178 L 114.288124 125.135553 L 116.550272 124.178928 L 118.812419 123.222303 L 121.074567 122.265678 L 123.336714 121.309053 L 125.598862 120.352428 L 127.861009 119.395803 L 130.123156 118.439177 L 132.385304 117.482552 L 134.647451 116.525927 L 136.909599 115.569302 L 139.171746 114.612677 L 141.433894 113.656052 L 143.696041 112.699427 L 145.958189 111.742802 L 148.220336 110.786177 L 150.482484 109.829551 L 152.744631 108.872926 L 155.006779 107.916301 L 157.268926 106.959676 L 159.531074 106.003051 L 161.793221 105.046426 L 164.055369 104.089801 L 166.317516 103.133176 L 168.579664 102.176551 L 170.841811 101.219925 L 173.103959 100.2633 L 175.366106 99.306675 L 177.628254 98.35005 L 179.890401 97.393425 L 182.152549 96.4368 L 184.414696 95.480175 L 186.676844 94.52355 L 188.938991 93.566925 L 191.201138 92.610299 L 193.463286 91.653674 L 195.725433 90.697049 L 197.987581 89.740424 L 200.249728 88.783799 L 202.511876 87.827174 L 204.774023 86.870549 L 207.036171 85.913924 L 209.298318 84.957299 L 211.560466 84.000673 L 213.822613 83.044048 L 216.084761 82.087423 L 218.346908 81.130798 L 220.609056 80.174173 L 222.871203 79.217548 L 225.133351 78.260923 L 227.395498 77.304298 L 229.657646 76.347673 L 231.919793 75.391047 L 234.181941 74.434422 L 236.444088 73.477797 L 238.706236 72.521172 L 240.968383 71.564547 L 243.230531 70.607922 L 245.492678 69.651297 L 247.754825 68.694672 L 250.016973 67.738047 L 252.27912 66.781421 L 254.541268 65.824796 L 256.803415 64.868171 L 259.065563 63.911546 L 261.32771 62.954921 L 263.589858 61.998296 L 265.852005 61.041671 L 268.114153 60.085046 L 270.3763 59.128421" clip-path="url(#p0040b44cb4)" style="fill:none;stroke:#8c564b;stroke-linecap:square;stroke-width:1.5"/></g><g id="patch_3"><path d="M 28.8 194.4 L 28.8 0" style="fill:none;stroke:#000;stroke-linecap:square;stroke-linejoin:miter;stroke-width:.8"/></g><g id="patch_4"><path d="M 28.8 194.4 L 288 194.4" style="fill:none;stroke:#000;stroke-linecap:square;stroke-linejoin:miter;stroke-width:.8"/></g></g></g><defs><clipPath id="p0040b44cb4"><rect width="259.2" height="194.4" x="28.8" y="0"/></clipPath></defs></svg>