<svg xmlns="http://www.w3.org/2000/svg" xmlns:xlink="http://www.w3.org/1999/xlink" width="491.52" height="368.64" version="1.1" viewBox="0 0 368.64 276.48"><metadata><rdf:RDF xmlns:cc="http://creativecommons.org/ns#" xmlns:dc="http://purl.org/dc/elements/1.1/" xmlns:rdf="http://www.w3.org/1999/02/22-rdf-syntax-ns#"><cc:Work><dc:type rdf:resource="http://purl.org/dc/dcmitype/StillImage"/><dc:date>2021-04-21T18:04:55.621326</dc:date><dc:format>image/svg+xml</dc:format><dc:creator><cc:Agent><dc:title>Matplotlib v3.3.4, https://matplotlib.org/</dc:title></cc:Agent></dc:creator></cc:Work></rdf:RDF></metadata><defs><style type="text/css">*{stroke-linecap:butt;stroke-linejoin:round}</style></defs><g id="figure_1"><g id="patch_1"><path d="M 0 276.48 L 368.64 276.48 L 368.64 0 L 0 0 z" style="fill:none"/></g><g id="axes_1"><g id="patch_2"><path d="M 36.864 248.832 L 368.64 248.832 L 368.64 0 L 36.864 0 z" style="fill:none"/></g><g id="matplotlib.axis_1"><g id="text_1"><g transform="translate(196.302 268.028875)scale(0.2 -0.2)"><defs><path id="DejaVuSans-Bold-120" d="M 22.21875 27.984375 L 2.484375 54.6875 L 21 54.6875 L 32.171875 38.484375 L 43.5 54.6875 L 62.015625 54.6875 L 42.28125 28.078125 L 62.984375 0 L 44.484375 0 L 32.171875 17.28125 L 20.015625 0 L 1.515625 0 z"/></defs><use xlink:href="#DejaVuSans-Bold-120"/></g></g></g><g id="matplotlib.axis_2"><g id="text_2"><g transform="translate(28.548375 130.93475)rotate(-90)scale(0.2 -0.2)"><defs><path id="DejaVuSans-Bold-121" d="M 1.21875 54.6875 L 18.703125 54.6875 L 33.40625 17.578125 L 45.90625 54.6875 L 63.375 54.6875 L 40.375 -5.171875 Q 36.921875 -14.3125 32.296875 -17.9375 Q 27.6875 -21.578125 20.125 -21.578125 L 10.015625 -21.578125 L 10.015625 -10.109375 L 15.484375 -10.109375 Q 19.921875 -10.109375 21.9375 -8.6875 Q 23.96875 -7.28125 25.09375 -3.609375 L 25.59375 -2.09375 z"/></defs><use xlink:href="#DejaVuSans-Bold-121"/></g></g></g><g id="line2d_1"><path d="M -1 237.520418 L 61.414314 237.418609 L 76.948977 237.198715 L 86.65814 236.862454 L 94.425472 236.356111 L 100.25097 235.736346 L 104.134635 235.151157 L 108.018301 234.37682 L 111.901967 233.35423 L 115.785632 232.007328 L 119.669298 230.239367 L 121.61113 229.160672 L 123.552963 227.929192 L 125.494796 226.52548 L 127.436629 224.928293 L 129.378462 223.114642 L 131.320294 221.059919 L 133.262127 218.738137 L 135.20396 216.122293 L 137.145793 213.184897 L 139.087625 209.898674 L 141.029458 206.23747 L 142.971291 202.177366 L 144.913124 197.697984 L 146.854957 192.783966 L 148.796789 187.426554 L 150.738622 181.625189 L 152.680455 175.389004 L 156.56412 161.70413 L 160.447786 146.673995 L 166.273284 122.694694 L 172.098783 98.869174 L 175.982448 84.090604 L 179.866114 70.737325 L 181.807946 64.684367 L 183.749779 59.071387 L 185.691612 53.903222 L 187.633445 49.175636 L 189.575278 44.876865 L 191.51711 40.989225 L 193.458943 37.49066 L 195.400776 34.35615 L 197.342609 31.558942 L 199.284441 29.071569 L 201.226274 26.866674 L 203.168107 24.917633 L 205.10994 23.199007 L 207.051773 21.686855 L 208.993605 20.358922 L 210.935438 19.194726 L 212.877271 18.175584 L 216.760936 16.506472 L 220.644602 15.235913 L 224.528268 14.27188 L 228.411933 13.542228 L 234.237431 12.768426 L 240.06293 12.261788 L 247.830261 11.84825 L 257.539425 11.573809 L 273.074087 11.394423 L 304.143411 11.319049 L 369.64 11.310614 L 369.64 11.310614" clip-path="url(#p023f372371)" style="fill:none;stroke:#000;stroke-linecap:square;stroke-width:3"/></g><g id="patch_3"><path d="M 36.864 248.832 L 36.864 0" style="fill:none;stroke:#000;stroke-linecap:square;stroke-linejoin:miter;stroke-width:.8"/></g><g id="patch_4"><path d="M 36.864 248.832 L 368.64 248.832" style="fill:none;stroke:#000;stroke-linecap:square;stroke-linejoin:miter;stroke-width:.8"/></g><g id="PathCollection_1"><defs><path id="C0_0_c00a4dcca2" d="M 0 4.1833 C 1.109424 4.1833 2.173559 3.742521 2.95804 2.95804 C 3.742521 2.173559 4.1833 1.109424 4.1833 -0 C 4.1833 -1.109424 3.742521 -2.173559 2.95804 -2.95804 C 2.173559 -3.742521 1.109424 -4.1833 0 -4.1833 C -1.109424 -4.1833 -2.173559 -3.742521 -2.95804 -2.95804 C -3.742521 -2.173559 -4.1833 -1.109424 -4.1833 0 C -4.1833 1.109424 -3.742521 2.173559 -2.95804 2.95804 C -2.173559 3.742521 -1.109424 4.1833 0 4.1833 z"/></defs><g clip-path="url(#p023f372371)"><use style="fill:#b15928;stroke:#000" x="331.027" y="11.311" xlink:href="#C0_0_c00a4dcca2"/></g><g clip-path="url(#p023f372371)"><use style="fill:#b15928;stroke:#000" x="177.702" y="11.311" xlink:href="#C0_0_c00a4dcca2"/></g><g clip-path="url(#p023f372371)"><use style="fill:#b15928;stroke:#000" x="226.654" y="11.311" xlink:href="#C0_0_c00a4dcca2"/></g><g clip-path="url(#p023f372371)"><use style="fill:#b15928;stroke:#000" x="359.209" y="11.311" xlink:href="#C0_0_c00a4dcca2"/></g><g clip-path="url(#p023f372371)"><use style="fill:#b15928;stroke:#000" x="301.587" y="11.311" xlink:href="#C0_0_c00a4dcca2"/></g><g clip-path="url(#p023f372371)"><use style="fill:#a6cee3;stroke:#000" x="144.932" y="237.521" xlink:href="#C0_0_c00a4dcca2"/></g><g clip-path="url(#p023f372371)"><use style="fill:#b15928;stroke:#000" x="234.938" y="11.311" xlink:href="#C0_0_c00a4dcca2"/></g><g clip-path="url(#p023f372371)"><use style="fill:#a6cee3;stroke:#000" x="145.703" y="237.521" xlink:href="#C0_0_c00a4dcca2"/></g><g clip-path="url(#p023f372371)"><use style="fill:#a6cee3;stroke:#000" x="180.924" y="237.521" xlink:href="#C0_0_c00a4dcca2"/></g><g clip-path="url(#p023f372371)"><use style="fill:#b15928;stroke:#000" x="213.757" y="11.311" xlink:href="#C0_0_c00a4dcca2"/></g><g clip-path="url(#p023f372371)"><use style="fill:#b15928;stroke:#000" x="196.463" y="11.311" xlink:href="#C0_0_c00a4dcca2"/></g><g clip-path="url(#p023f372371)"><use style="fill:#b15928;stroke:#000" x="293.176" y="11.311" xlink:href="#C0_0_c00a4dcca2"/></g><g clip-path="url(#p023f372371)"><use style="fill:#b15928;stroke:#000" x="213.688" y="11.311" xlink:href="#C0_0_c00a4dcca2"/></g><g clip-path="url(#p023f372371)"><use style="fill:#b15928;stroke:#000" x="195.136" y="11.311" xlink:href="#C0_0_c00a4dcca2"/></g><g clip-path="url(#p023f372371)"><use style="fill:#b15928;stroke:#000" x="194.761" y="11.311" xlink:href="#C0_0_c00a4dcca2"/></g><g clip-path="url(#p023f372371)"><use style="fill:#b15928;stroke:#000" x="198.94" y="11.311" xlink:href="#C0_0_c00a4dcca2"/></g><g clip-path="url(#p023f372371)"><use style="fill:#b15928;stroke:#000" x="296.99" y="11.311" xlink:href="#C0_0_c00a4dcca2"/></g><g clip-path="url(#p023f372371)"><use style="fill:#a6cee3;stroke:#000" x="150.843" y="237.521" xlink:href="#C0_0_c00a4dcca2"/></g><g clip-path="url(#p023f372371)"><use style="fill:#b15928;stroke:#000" x="194.887" y="11.311" xlink:href="#C0_0_c00a4dcca2"/></g><g clip-path="url(#p023f372371)"><use style="fill:#a6cee3;stroke:#000" x="137.333" y="237.521" xlink:href="#C0_0_c00a4dcca2"/></g><g clip-path="url(#p023f372371)"><use style="fill:#a6cee3;stroke:#000" x="60.086" y="237.521" xlink:href="#C0_0_c00a4dcca2"/></g><g clip-path="url(#p023f372371)"><use style="fill:#b15928;stroke:#000" x="201.815" y="11.311" xlink:href="#C0_0_c00a4dcca2"/></g><g clip-path="url(#p023f372371)"><use style="fill:#b15928;stroke:#000" x="236.69" y="11.311" xlink:href="#C0_0_c00a4dcca2"/></g><g clip-path="url(#p023f372371)"><use style="fill:#a6cee3;stroke:#000" x="147.003" y="237.521" xlink:href="#C0_0_c00a4dcca2"/></g><g clip-path="url(#p023f372371)"><use style="fill:#b15928;stroke:#000" x="340.901" y="11.311" xlink:href="#C0_0_c00a4dcca2"/></g><g clip-path="url(#p023f372371)"><use style="fill:#a6cee3;stroke:#000" x="99.103" y="237.521" xlink:href="#C0_0_c00a4dcca2"/></g><g clip-path="url(#p023f372371)"><use style="fill:#b15928;stroke:#000" x="159.661" y="11.311" xlink:href="#C0_0_c00a4dcca2"/></g><g clip-path="url(#p023f372371)"><use style="fill:#a6cee3;stroke:#000" x="176.525" y="237.521" xlink:href="#C0_0_c00a4dcca2"/></g><g clip-path="url(#p023f372371)"><use style="fill:#b15928;stroke:#000" x="296.779" y="11.311" xlink:href="#C0_0_c00a4dcca2"/></g><g clip-path="url(#p023f372371)"><use style="fill:#b15928;stroke:#000" x="288.224" y="11.311" xlink:href="#C0_0_c00a4dcca2"/></g><g clip-path="url(#p023f372371)"><use style="fill:#b15928;stroke:#000" x="164.553" y="11.311" xlink:href="#C0_0_c00a4dcca2"/></g><g clip-path="url(#p023f372371)"><use style="fill:#b15928;stroke:#000" x="199.355" y="11.311" xlink:href="#C0_0_c00a4dcca2"/></g><g clip-path="url(#p023f372371)"><use style="fill:#a6cee3;stroke:#000" x="116.072" y="237.521" xlink:href="#C0_0_c00a4dcca2"/></g><g clip-path="url(#p023f372371)"><use style="fill:#a6cee3;stroke:#000" x="79.528" y="237.521" xlink:href="#C0_0_c00a4dcca2"/></g><g clip-path="url(#p023f372371)"><use style="fill:#a6cee3;stroke:#000" x="138.94" y="237.521" xlink:href="#C0_0_c00a4dcca2"/></g><g clip-path="url(#p023f372371)"><use style="fill:#b15928;stroke:#000" x="182.664" y="11.311" xlink:href="#C0_0_c00a4dcca2"/></g><g clip-path="url(#p023f372371)"><use style="fill:#b15928;stroke:#000" x="270.499" y="11.311" xlink:href="#C0_0_c00a4dcca2"/></g><g clip-path="url(#p023f372371)"><use style="fill:#b15928;stroke:#000" x="258.419" y="11.311" xlink:href="#C0_0_c00a4dcca2"/></g><g clip-path="url(#p023f372371)"><use style="fill:#a6cee3;stroke:#000" x="150.144" y="237.521" xlink:href="#C0_0_c00a4dcca2"/></g><g clip-path="url(#p023f372371)"><use style="fill:#a6cee3;stroke:#000" x="135.143" y="237.521" xlink:href="#C0_0_c00a4dcca2"/></g><g clip-path="url(#p023f372371)"><use style="fill:#a6cee3;stroke:#000" x="99.241" y="237.521" xlink:href="#C0_0_c00a4dcca2"/></g><g clip-path="url(#p023f372371)"><use style="fill:#a6cee3;stroke:#000" x="107.856" y="237.521" xlink:href="#C0_0_c00a4dcca2"/></g><g clip-path="url(#p023f372371)"><use style="fill:#a6cee3;stroke:#000" x="92.591" y="237.521" xlink:href="#C0_0_c00a4dcca2"/></g><g clip-path="url(#p023f372371)"><use style="fill:#b15928;stroke:#000" x="330.986" y="11.311" xlink:href="#C0_0_c00a4dcca2"/></g><g clip-path="url(#p023f372371)"><use style="fill:#a6cee3;stroke:#000" x="169.794" y="237.521" xlink:href="#C0_0_c00a4dcca2"/></g><g clip-path="url(#p023f372371)"><use style="fill:#a6cee3;stroke:#000" x="154.863" y="237.521" xlink:href="#C0_0_c00a4dcca2"/></g><g clip-path="url(#p023f372371)"><use style="fill:#a6cee3;stroke:#000" x="97.967" y="237.521" xlink:href="#C0_0_c00a4dcca2"/></g><g clip-path="url(#p023f372371)"><use style="fill:#b15928;stroke:#000" x="239.666" y="11.311" xlink:href="#C0_0_c00a4dcca2"/></g><g clip-path="url(#p023f372371)"><use style="fill:#a6cee3;stroke:#000" x="77.976" y="237.521" xlink:href="#C0_0_c00a4dcca2"/></g><g clip-path="url(#p023f372371)"><use style="fill:#a6cee3;stroke:#000" x="146.714" y="237.521" xlink:href="#C0_0_c00a4dcca2"/></g><g clip-path="url(#p023f372371)"><use style="fill:#a6cee3;stroke:#000" x="123.294" y="237.521" xlink:href="#C0_0_c00a4dcca2"/></g><g clip-path="url(#p023f372371)"><use style="fill:#b15928;stroke:#000" x="214.688" y="11.311" xlink:href="#C0_0_c00a4dcca2"/></g><g clip-path="url(#p023f372371)"><use style="fill:#a6cee3;stroke:#000" x="130.83" y="237.521" xlink:href="#C0_0_c00a4dcca2"/></g><g clip-path="url(#p023f372371)"><use style="fill:#a6cee3;stroke:#000" x="102.035" y="237.521" xlink:href="#C0_0_c00a4dcca2"/></g><g clip-path="url(#p023f372371)"><use style="fill:#a6cee3;stroke:#000" x="158.886" y="237.521" xlink:href="#C0_0_c00a4dcca2"/></g><g clip-path="url(#p023f372371)"><use style="fill:#b15928;stroke:#000" x="188.553" y="11.311" xlink:href="#C0_0_c00a4dcca2"/></g><g clip-path="url(#p023f372371)"><use style="fill:#b15928;stroke:#000" x="180.814" y="11.311" xlink:href="#C0_0_c00a4dcca2"/></g><g clip-path="url(#p023f372371)"><use style="fill:#b15928;stroke:#000" x="172.932" y="11.311" xlink:href="#C0_0_c00a4dcca2"/></g><g clip-path="url(#p023f372371)"><use style="fill:#a6cee3;stroke:#000" x="120.697" y="237.521" xlink:href="#C0_0_c00a4dcca2"/></g><g clip-path="url(#p023f372371)"><use style="fill:#a6cee3;stroke:#000" x="140.789" y="237.521" xlink:href="#C0_0_c00a4dcca2"/></g><g clip-path="url(#p023f372371)"><use style="fill:#a6cee3;stroke:#000" x="127.195" y="237.521" xlink:href="#C0_0_c00a4dcca2"/></g><g clip-path="url(#p023f372371)"><use style="fill:#a6cee3;stroke:#000" x="170.375" y="237.521" xlink:href="#C0_0_c00a4dcca2"/></g><g clip-path="url(#p023f372371)"><use style="fill:#a6cee3;stroke:#000" x="139.37" y="237.521" xlink:href="#C0_0_c00a4dcca2"/></g><g clip-path="url(#p023f372371)"><use style="fill:#a6cee3;stroke:#000" x="90.777" y="237.521" xlink:href="#C0_0_c00a4dcca2"/></g><g clip-path="url(#p023f372371)"><use style="fill:#b15928;stroke:#000" x="160.75" y="11.311" xlink:href="#C0_0_c00a4dcca2"/></g><g clip-path="url(#p023f372371)"><use style="fill:#a6cee3;stroke:#000" x="155.123" y="237.521" xlink:href="#C0_0_c00a4dcca2"/></g><g clip-path="url(#p023f372371)"><use style="fill:#a6cee3;stroke:#000" x="81.228" y="237.521" xlink:href="#C0_0_c00a4dcca2"/></g><g clip-path="url(#p023f372371)"><use style="fill:#b15928;stroke:#000" x="180.446" y="11.311" xlink:href="#C0_0_c00a4dcca2"/></g><g clip-path="url(#p023f372371)"><use style="fill:#a6cee3;stroke:#000" x="138.434" y="237.521" xlink:href="#C0_0_c00a4dcca2"/></g><g clip-path="url(#p023f372371)"><use style="fill:#b15928;stroke:#000" x="169.532" y="11.311" xlink:href="#C0_0_c00a4dcca2"/></g><g clip-path="url(#p023f372371)"><use style="fill:#b15928;stroke:#000" x="233.211" y="11.311" xlink:href="#C0_0_c00a4dcca2"/></g><g clip-path="url(#p023f372371)"><use style="fill:#b15928;stroke:#000" x="175.944" y="11.311" xlink:href="#C0_0_c00a4dcca2"/></g><g clip-path="url(#p023f372371)"><use style="fill:#b15928;stroke:#000" x="266.447" y="11.311" xlink:href="#C0_0_c00a4dcca2"/></g><g clip-path="url(#p023f372371)"><use style="fill:#a6cee3;stroke:#000" x="101.97" y="237.521" xlink:href="#C0_0_c00a4dcca2"/></g><g clip-path="url(#p023f372371)"><use style="fill:#b15928;stroke:#000" x="181.784" y="11.311" xlink:href="#C0_0_c00a4dcca2"/></g><g clip-path="url(#p023f372371)"><use style="fill:#a6cee3;stroke:#000" x="141.36" y="237.521" xlink:href="#C0_0_c00a4dcca2"/></g><g clip-path="url(#p023f372371)"><use style="fill:#a6cee3;stroke:#000" x="115.171" y="237.521" xlink:href="#C0_0_c00a4dcca2"/></g><g clip-path="url(#p023f372371)"><use style="fill:#a6cee3;stroke:#000" x="128.695" y="237.521" xlink:href="#C0_0_c00a4dcca2"/></g><g clip-path="url(#p023f372371)"><use style="fill:#a6cee3;stroke:#000" x="142.692" y="237.521" xlink:href="#C0_0_c00a4dcca2"/></g><g clip-path="url(#p023f372371)"><use style="fill:#b15928;stroke:#000" x="166.156" y="11.311" xlink:href="#C0_0_c00a4dcca2"/></g><g clip-path="url(#p023f372371)"><use style="fill:#a6cee3;stroke:#000" x="108.555" y="237.521" xlink:href="#C0_0_c00a4dcca2"/></g><g clip-path="url(#p023f372371)"><use style="fill:#b15928;stroke:#000" x="218.892" y="11.311" xlink:href="#C0_0_c00a4dcca2"/></g><g clip-path="url(#p023f372371)"><use style="fill:#b15928;stroke:#000" x="191.896" y="11.311" xlink:href="#C0_0_c00a4dcca2"/></g><g clip-path="url(#p023f372371)"><use style="fill:#a6cee3;stroke:#000" x="69.906" y="237.521" xlink:href="#C0_0_c00a4dcca2"/></g><g clip-path="url(#p023f372371)"><use style="fill:#b15928;stroke:#000" x="292.5" y="11.311" xlink:href="#C0_0_c00a4dcca2"/></g><g clip-path="url(#p023f372371)"><use style="fill:#b15928;stroke:#000" x="298.6" y="11.311" xlink:href="#C0_0_c00a4dcca2"/></g><g clip-path="url(#p023f372371)"><use style="fill:#b15928;stroke:#000" x="245.312" y="11.311" xlink:href="#C0_0_c00a4dcca2"/></g><g clip-path="url(#p023f372371)"><use style="fill:#a6cee3;stroke:#000" x="154.467" y="237.521" xlink:href="#C0_0_c00a4dcca2"/></g><g clip-path="url(#p023f372371)"><use style="fill:#a6cee3;stroke:#000" x="107.672" y="237.521" xlink:href="#C0_0_c00a4dcca2"/></g><g clip-path="url(#p023f372371)"><use style="fill:#b15928;stroke:#000" x="267.938" y="11.311" xlink:href="#C0_0_c00a4dcca2"/></g><g clip-path="url(#p023f372371)"><use style="fill:#a6cee3;stroke:#000" x="128.474" y="237.521" xlink:href="#C0_0_c00a4dcca2"/></g><g clip-path="url(#p023f372371)"><use style="fill:#b15928;stroke:#000" x="265.997" y="11.311" xlink:href="#C0_0_c00a4dcca2"/></g><g clip-path="url(#p023f372371)"><use style="fill:#b15928;stroke:#000" x="178.066" y="11.311" xlink:href="#C0_0_c00a4dcca2"/></g><g clip-path="url(#p023f372371)"><use style="fill:#b15928;stroke:#000" x="227.753" y="11.311" xlink:href="#C0_0_c00a4dcca2"/></g><g clip-path="url(#p023f372371)"><use style="fill:#b15928;stroke:#000" x="197.349" y="11.311" xlink:href="#C0_0_c00a4dcca2"/></g><g clip-path="url(#p023f372371)"><use style="fill:#b15928;stroke:#000" x="217.752" y="11.311" xlink:href="#C0_0_c00a4dcca2"/></g><g clip-path="url(#p023f372371)"><use style="fill:#b15928;stroke:#000" x="171.753" y="11.311" xlink:href="#C0_0_c00a4dcca2"/></g><g clip-path="url(#p023f372371)"><use style="fill:#b15928;stroke:#000" x="319.653" y="11.311" xlink:href="#C0_0_c00a4dcca2"/></g><g clip-path="url(#p023f372371)"><use style="fill:#b15928;stroke:#000" x="198.721" y="11.311" xlink:href="#C0_0_c00a4dcca2"/></g><g clip-path="url(#p023f372371)"><use style="fill:#b15928;stroke:#000" x="211.251" y="11.311" xlink:href="#C0_0_c00a4dcca2"/></g></g></g></g><defs><clipPath id="p023f372371"><rect width="331.776" height="248.832" x="36.864" y="0"/></clipPath></defs></svg>