<svg xmlns="http://www.w3.org/2000/svg" xmlns:xlink="http://www.w3.org/1999/xlink" width="48" height="48"><defs><linearGradient id="k" x1="40.57" x2="41.69" y1="36.4" y2="35.49" gradientUnits="userSpaceOnUse" xlink:href="#a"/><linearGradient id="a"><stop offset="0"/><stop offset="1" stop-opacity="0"/></linearGradient><linearGradient id="l" x1="20.05" x2="21.91" y1="36.32" y2="37.07" gradientUnits="userSpaceOnUse" xlink:href="#a"/><radialGradient id="g" cx="29.34" cy="17.06" r="7.22" gradientUnits="userSpaceOnUse"><stop offset="0" stop-color="#f4d9b1"/><stop offset="1" stop-color="#df9725"/></radialGradient><radialGradient id="i" cx="30.99" cy="22.51" r="8.662" gradientUnits="userSpaceOnUse" xlink:href="#a"/><linearGradient id="m" x2="0" y1="29.55" y2="35.8" gradientUnits="userSpaceOnUse" xlink:href="#c"/><linearGradient id="c"><stop offset="0" stop-color="#fff"/><stop offset="1" stop-color="#c9c9c9"/></linearGradient><radialGradient id="h" cx="28.09" cy="27.2" r="13.56" gradientTransform="matrix(1.298 0 0 .8848 -8.358 4.941)" gradientUnits="userSpaceOnUse"><stop offset="0" stop-color="#3b74bc"/><stop offset="1" stop-color="#2d5990"/></radialGradient><radialGradient id="f" cx="31.11" cy="19.01" r="8.662" gradientTransform="matrix(1.776 0 0 .584 -24.25 28.28)" gradientUnits="userSpaceOnUse" xlink:href="#a"/><linearGradient id="p" x1="27.27" x2="28.38" y1="29.22" y2="28.32" gradientUnits="userSpaceOnUse" xlink:href="#a"/><linearGradient id="o" x1="6.742" x2="8.602" y1="29.15" y2="29.9" gradientUnits="userSpaceOnUse" xlink:href="#a"/><linearGradient id="n" x2="0" y1="22.55" y2="28.8" gradientUnits="userSpaceOnUse" xlink:href="#c"/><radialGradient id="e" cx="16.22" cy="10.06" r="7.22" gradientUnits="userSpaceOnUse"><stop offset="0" stop-color="#e9b15e"/><stop offset="1" stop-color="#966416"/></radialGradient><radialGradient id="d" cx="17.86" cy="15.51" r="8.662" gradientUnits="userSpaceOnUse" xlink:href="#a"/><radialGradient id="j" cx="16.22" cy="19.84" r="13.56" gradientTransform="matrix(1 0 0 .6819 0 8.234)" gradientUnits="userSpaceOnUse"><stop offset="0" stop-color="#727e0a"/><stop offset="1" stop-color="#5b6508"/></radialGradient><radialGradient id="b" cx="31.11" cy="19.01" r="8.662" gradientTransform="matrix(1.776 0 0 .9592 -37.38 11.77)" gradientUnits="userSpaceOnUse" xlink:href="#a"/></defs><ellipse cx="17.86" cy="30" fill="url(#b)" rx="15.38" ry="8.309"/><path fill="url(#j)" stroke="#404604" stroke-linecap="round" stroke-linejoin="round" d="m12.86 34.64h10.61c3.01 0 5.98-1.102 7.07-4.243 1.036-2.982 0.177-8.662-6.541-13.26h-12.55c-6.718 4.243-7.557 10.05-6.01 13.44 1.576 3.454 4.243 4.066 7.425 4.066z"/><path fill="#9db029" d="m17.93 19.79s-2.151 1.66-1.966 3.66c-2.041-1.801-2.1-5.252-2.1-5.252l4.066 1.591"/><path fill="none" stroke="#fff" stroke-linecap="round" stroke-linejoin="round" d="m12.97 33.57h10.32c2.64 0 5.253-0.968 6.211-3.727 0.91-2.62-0.095-7.609-5.995-11.65h-11.52c-5.916 3.74-6.903 8.83-5.544 11.81 1.384 3.034 3.727 3.571 6.522 3.571z" opacity=".215"/><path fill="#9db029" d="m18.91 19.79s2.151 1.66 1.966 3.66c2.041-1.801 2.1-5.252 2.1-5.252l-4.066 1.591"/><circle cx="17.86" cy="15.51" r="8.662" fill="url(#d)"/><circle cx="17.99" cy="12" r="8.662" fill="url(#e)" stroke="#6f4709"/><circle cx="17.99" cy="12.01" r="7.597" fill="none" stroke="#fff" opacity=".127"/><path fill="url(#n)" d="m22.58 27.04h4.243l-2.475-2.298-0.53 0.707-0.53-0.53-0.707 2.121"/><path fill="url(#o)" d="m8.548 33.6c-1.248-0.54-1.806-1.86-1.806-1.86 0.841-4.069 3.72-7.05 3.72-7.05s-2.279 6.412-1.914 8.904" opacity=".228"/><path fill="url(#p)" d="m27.45 32.74c1.231-0.581 1.804-2 1.804-2-0.95-4.04-3.97-6.84-3.97-6.84s2.465 6.343 2.172 8.845" opacity=".228"/><ellipse cx="30.99" cy="39.38" fill="url(#f)" rx="15.38" ry="5.059"/><path fill="url(#h)" stroke="#204a87" stroke-linecap="round" stroke-linejoin="round" d="m25.99 41.64h10.61c3.01 0 5.98-1.102 7.07-4.243 1.036-2.983 0.177-8.662-6.541-13.26h-12.56c-6.718 4.243-7.557 10.04-6.01 13.44 1.576 3.454 4.243 4.066 7.425 4.066z"/><path fill="url(#m)" d="m26.69 25.73c3.182 2.828 4.596 13.08 4.596 13.08s1.414-10.25 3.889-13.26l-8.49 0.17"/><path fill="#729fcf" d="m28.97 26.79s-2.151 1.66-1.966 3.66c-2.041-1.801-2.1-5.252-2.1-5.252l4.066 1.591"/><path fill="none" stroke="#fff" stroke-linecap="round" stroke-linejoin="round" d="m25.91 40.59 10.49-0.022c2.64 0 5.253-0.968 6.211-3.727 0.91-2.62-0.095-7.609-5.995-11.65l-11.52-0.23c-5.901 3.727-7.04 8.823-5.662 12.04 1.381 3.221 3.395 3.571 6.477 3.593z" opacity=".215"/><path fill="#729fcf" d="m33.41 26.79s2.151 1.66 1.966 3.66c2.041-1.801 2.1-5.252 2.1-5.252l-4.07 1.59"/><circle cx="30.99" cy="22.51" r="8.662" fill="url(#i)"/><circle cx="31.11" cy="19.01" r="8.662" fill="url(#g)" stroke="#c17d11"/><circle cx="31.11" cy="19.01" r="7.597" fill="none" stroke="#fff" opacity=".196"/><path fill="url(#l)" d="m21.85 40.78c-1.248-0.545-1.806-1.858-1.806-1.858 0.841-4.069 3.72-7.05 3.72-7.05s-2.279 6.411-1.914 8.904" opacity=".228"/><path fill="url(#k)" d="m40.76 39.92c1.231-0.581 1.804-2 1.804-2-0.959-4.04-3.976-6.843-3.976-6.843s2.465 6.343 2.172 8.845" opacity=".228"/></svg>