<svg xmlns="http://www.w3.org/2000/svg" xmlns:xlink="http://www.w3.org/1999/xlink" width="491.52" height="368.64" version="1.1" viewBox="0 0 368.64 276.48"><metadata><rdf:RDF xmlns:cc="http://creativecommons.org/ns#" xmlns:dc="http://purl.org/dc/elements/1.1/" xmlns:rdf="http://www.w3.org/1999/02/22-rdf-syntax-ns#"><cc:Work><dc:type rdf:resource="http://purl.org/dc/dcmitype/StillImage"/><dc:date>2020-12-10T18:11:55.278388</dc:date><dc:format>image/svg+xml</dc:format><dc:creator><cc:Agent><dc:title>Matplotlib v3.3.3, https://matplotlib.org/</dc:title></cc:Agent></dc:creator></cc:Work></rdf:RDF></metadata><defs><style type="text/css">*{stroke-linecap:butt;stroke-linejoin:round}</style></defs><g id="figure_1"><g id="patch_1"><path d="M 0 276.48 L 368.64 276.48 L 368.64 0 L 0 0 z" style="fill:none"/></g><g id="axes_1"><g id="PathCollection_1"><defs><path id="m5d43f3afc2" d="M 0 2.236068 C 0.593012 2.236068 1.161816 2.000462 1.581139 1.581139 C 2.000462 1.161816 2.236068 0.593012 2.236068 0 C 2.236068 -0.593012 2.000462 -1.161816 1.581139 -1.581139 C 1.161816 -2.000462 0.593012 -2.236068 0 -2.236068 C -0.593012 -2.236068 -1.161816 -2.000462 -1.581139 -1.581139 C -2.000462 -1.161816 -2.236068 -0.593012 -2.236068 0 C -2.236068 0.593012 -2.000462 1.161816 -1.581139 1.581139 C -1.161816 2.000462 -0.593012 2.236068 0 2.236068 z" style="stroke:#000"/></defs><g clip-path="url(#pf95ffa2e6b)"><use style="stroke:#000" x="200.679" y="270.03" xlink:href="#m5d43f3afc2"/><use style="stroke:#000" x="256.436" y="113.452" xlink:href="#m5d43f3afc2"/><use style="stroke:#000" x="218.759" y="221.569" xlink:href="#m5d43f3afc2"/><use style="stroke:#000" x="199.362" y="222.787" xlink:href="#m5d43f3afc2"/><use style="stroke:#000" x="158.735" y="251.57" xlink:href="#m5d43f3afc2"/><use style="stroke:#000" x="233.213" y="168.555" xlink:href="#m5d43f3afc2"/><use style="stroke:#000" x="163.404" y="265.923" xlink:href="#m5d43f3afc2"/><use style="stroke:#000" x="315.614" y="158.167" xlink:href="#m5d43f3afc2"/><use style="stroke:#000" x="339.706" y="186.234" xlink:href="#m5d43f3afc2"/><use style="stroke:#000" x="145.258" y="186.855" xlink:href="#m5d43f3afc2"/><use style="stroke:#000" x="282.085" y="189.277" xlink:href="#m5d43f3afc2"/><use style="stroke:#000" x="194.003" y="251.081" xlink:href="#m5d43f3afc2"/><use style="stroke:#000" x="207.124" y="206.276" xlink:href="#m5d43f3afc2"/><use style="stroke:#000" x="326.949" y="131.954" xlink:href="#m5d43f3afc2"/><use style="stroke:#000" x="40.562" y="99.048" xlink:href="#m5d43f3afc2"/><use style="stroke:#000" x="45.956" y="102.115" xlink:href="#m5d43f3afc2"/><use style="stroke:#000" x="23.532" y="73.387" xlink:href="#m5d43f3afc2"/><use style="stroke:#000" x="295.79" y="174.562" xlink:href="#m5d43f3afc2"/><use style="stroke:#000" x="277.538" y="198.373" xlink:href="#m5d43f3afc2"/><use style="stroke:#000" x="308.321" y="166.965" xlink:href="#m5d43f3afc2"/><use style="stroke:#000" x="344.718" y="188.337" xlink:href="#m5d43f3afc2"/><use style="stroke:#000" x="284.576" y="233.031" xlink:href="#m5d43f3afc2"/><use style="stroke:#000" x="171.411" y="200.027" xlink:href="#m5d43f3afc2"/><use style="stroke:#000" x="278.333" y="187.723" xlink:href="#m5d43f3afc2"/><use style="stroke:#000" x="56.393" y="193.241" xlink:href="#m5d43f3afc2"/><use style="stroke:#000" x="231.211" y="181.098" xlink:href="#m5d43f3afc2"/><use style="stroke:#000" x="64.798" y="178.434" xlink:href="#m5d43f3afc2"/><use style="stroke:#000" x="333.341" y="147.164" xlink:href="#m5d43f3afc2"/><use style="stroke:#000" x="191.642" y="179.85" xlink:href="#m5d43f3afc2"/><use style="stroke:#000" x="155.721" y="199.273" xlink:href="#m5d43f3afc2"/><use style="stroke:#000" x="105.416" y="139.916" xlink:href="#m5d43f3afc2"/><use style="stroke:#000" x="276.223" y="220.27" xlink:href="#m5d43f3afc2"/><use style="stroke:#000" x="169.625" y="191.424" xlink:href="#m5d43f3afc2"/><use style="stroke:#000" x="207.254" y="230.798" xlink:href="#m5d43f3afc2"/><use style="stroke:#000" x="23.053" y="80.356" xlink:href="#m5d43f3afc2"/><use style="stroke:#000" x="223.743" y="222.658" xlink:href="#m5d43f3afc2"/><use style="stroke:#000" x="221.886" y="213.247" xlink:href="#m5d43f3afc2"/><use style="stroke:#000" x="223.508" y="198.994" xlink:href="#m5d43f3afc2"/><use style="stroke:#000" x="333.032" y="192.555" xlink:href="#m5d43f3afc2"/><use style="stroke:#000" x="245.253" y="158.609" xlink:href="#m5d43f3afc2"/><use style="stroke:#000" x="137.237" y="181.2" xlink:href="#m5d43f3afc2"/><use style="stroke:#000" x="163.218" y="262.99" xlink:href="#m5d43f3afc2"/><use style="stroke:#000" x="250.552" y="133.959" xlink:href="#m5d43f3afc2"/><use style="stroke:#000" x="36.94" y="21.648" xlink:href="#m5d43f3afc2"/><use style="stroke:#000" x="240.208" y="150.588" xlink:href="#m5d43f3afc2"/><use style="stroke:#000" x="241.505" y="200.79" xlink:href="#m5d43f3afc2"/><use style="stroke:#000" x="87.261" y="208.757" xlink:href="#m5d43f3afc2"/><use style="stroke:#000" x="59.963" y="98.344" xlink:href="#m5d43f3afc2"/><use style="stroke:#000" x="122.465" y="207.319" xlink:href="#m5d43f3afc2"/><use style="stroke:#000" x="138.646" y="153.422" xlink:href="#m5d43f3afc2"/></g></g><g id="line2d_1"><path d="M 16.756364 20.405003 L 20.141488 35.803074 L 23.526612 49.652856 L 26.911736 62.132984 L 30.29686 73.402195 L 33.681983 83.60128 L 37.067107 92.854876 L 40.452231 101.273101 L 43.837355 108.953061 L 47.222479 115.980218 L 50.607603 122.429639 L 53.992727 128.367134 L 57.377851 133.850284 L 60.762975 138.929373 L 64.148099 143.648234 L 67.533223 148.045006 L 70.918347 152.152811 L 74.303471 156.000372 L 77.688595 159.612554 L 81.073719 163.01085 L 84.458843 166.213813 L 87.843967 169.237439 L 91.229091 172.095501 L 94.614215 174.799848 L 97.999339 177.36066 L 101.384463 179.786681 L 104.769587 182.085409 L 108.154711 184.26327 L 111.539835 186.325763 L 114.924959 188.277591 L 118.310083 190.122761 L 121.695207 191.864686 L 125.080331 193.506258 L 128.465455 195.049915 L 131.850579 196.497701 L 135.235702 197.851312 L 138.620826 199.11214 L 142.00595 200.281303 L 145.391074 201.359683 L 148.776198 202.347946 L 152.161322 203.246569 L 155.546446 204.055861 L 158.93157 204.775978 L 162.316694 205.406949 L 165.701818 205.948683 L 169.086942 206.400992 L 172.472066 206.763606 L 175.85719 207.036184 L 179.242314 207.218334 L 182.627438 207.309626 L 186.012562 207.309607 L 189.397686 207.217816 L 192.78281 207.033801 L 196.167934 206.757131 L 199.553058 206.387413 L 202.938182 205.924309 L 206.323306 205.367546 L 209.70843 204.716937 L 213.093554 203.972393 L 216.478678 203.133939 L 219.863802 202.201735 L 223.248926 201.176088 L 226.63405 200.057474 L 230.019174 198.846562 L 233.404298 197.544231 L 236.789421 196.151601 L 240.174545 194.670062 L 243.559669 193.101312 L 246.944793 191.447394 L 250.329917 189.710747 L 253.715041 187.894263 L 257.100165 186.001352 L 260.485289 184.036025 L 263.870413 182.002982 L 267.255537 179.907723 L 270.640661 177.756675 L 274.025785 175.557336 L 277.410909 173.318448 L 280.796033 171.050193 L 284.181157 168.764419 L 287.566281 166.4749 L 290.951405 164.19763 L 294.336529 161.951163 L 297.721653 159.756993 L 301.106777 157.639985 L 304.491901 155.628859 L 307.877025 153.756741 L 311.262149 152.061768 L 314.647273 150.587773 L 318.032397 149.38504 L 321.417521 148.511151 L 324.802645 148.031915 L 328.187769 148.022399 L 331.572893 148.568065 L 334.958017 149.766019 L 338.34314 151.726381 L 341.728264 154.573785 L 345.113388 158.449022 L 348.498512 163.510832 L 351.883636 169.937848" clip-path="url(#pf95ffa2e6b)" style="fill:none;stroke:#000;stroke-dasharray:11.1,4.8;stroke-dashoffset:0;stroke-width:3"/></g></g></g><defs><clipPath id="pf95ffa2e6b"><rect width="368.64" height="265.421" x="0" y="11.059"/></clipPath></defs></svg>