<svg xmlns="http://www.w3.org/2000/svg" xmlns:xlink="http://www.w3.org/1999/xlink" width="491.52" height="368.64" version="1.1" viewBox="0 0 368.64 276.48"><metadata><rdf:RDF xmlns:cc="http://creativecommons.org/ns#" xmlns:dc="http://purl.org/dc/elements/1.1/" xmlns:rdf="http://www.w3.org/1999/02/22-rdf-syntax-ns#"><cc:Work><dc:type rdf:resource="http://purl.org/dc/dcmitype/StillImage"/><dc:date>2020-12-10T18:11:53.423849</dc:date><dc:format>image/svg+xml</dc:format><dc:creator><cc:Agent><dc:title>Matplotlib v3.3.3, https://matplotlib.org/</dc:title></cc:Agent></dc:creator></cc:Work></rdf:RDF></metadata><defs><style type="text/css">*{stroke-linecap:butt;stroke-linejoin:round}</style></defs><g id="figure_1"><g id="patch_1"><path d="M 0 276.48 L 368.64 276.48 L 368.64 0 L 0 0 z" style="fill:none"/></g><g id="axes_1"><g id="PathCollection_1"><defs><path id="mad0cba6838" d="M 0 2.236068 C 0.593012 2.236068 1.161816 2.000462 1.581139 1.581139 C 2.000462 1.161816 2.236068 0.593012 2.236068 0 C 2.236068 -0.593012 2.000462 -1.161816 1.581139 -1.581139 C 1.161816 -2.000462 0.593012 -2.236068 0 -2.236068 C -0.593012 -2.236068 -1.161816 -2.000462 -1.581139 -1.581139 C -2.000462 -1.161816 -2.236068 -0.593012 -2.236068 0 C -2.236068 0.593012 -2.000462 1.161816 -1.581139 1.581139 C -1.161816 2.000462 -0.593012 2.236068 0 2.236068 z" style="stroke:#000"/></defs><g clip-path="url(#p6bf2f3ef14)"><use style="stroke:#000" x="200.679" y="270.03" xlink:href="#mad0cba6838"/><use style="stroke:#000" x="256.436" y="113.452" xlink:href="#mad0cba6838"/><use style="stroke:#000" x="218.759" y="221.569" xlink:href="#mad0cba6838"/><use style="stroke:#000" x="199.362" y="222.787" xlink:href="#mad0cba6838"/><use style="stroke:#000" x="158.735" y="251.57" xlink:href="#mad0cba6838"/><use style="stroke:#000" x="233.213" y="168.555" xlink:href="#mad0cba6838"/><use style="stroke:#000" x="163.404" y="265.923" xlink:href="#mad0cba6838"/><use style="stroke:#000" x="315.614" y="158.167" xlink:href="#mad0cba6838"/><use style="stroke:#000" x="339.706" y="186.234" xlink:href="#mad0cba6838"/><use style="stroke:#000" x="145.258" y="186.855" xlink:href="#mad0cba6838"/><use style="stroke:#000" x="282.085" y="189.277" xlink:href="#mad0cba6838"/><use style="stroke:#000" x="194.003" y="251.081" xlink:href="#mad0cba6838"/><use style="stroke:#000" x="207.124" y="206.276" xlink:href="#mad0cba6838"/><use style="stroke:#000" x="326.949" y="131.954" xlink:href="#mad0cba6838"/><use style="stroke:#000" x="40.562" y="99.048" xlink:href="#mad0cba6838"/><use style="stroke:#000" x="45.956" y="102.115" xlink:href="#mad0cba6838"/><use style="stroke:#000" x="23.532" y="73.387" xlink:href="#mad0cba6838"/><use style="stroke:#000" x="295.79" y="174.562" xlink:href="#mad0cba6838"/><use style="stroke:#000" x="277.538" y="198.373" xlink:href="#mad0cba6838"/><use style="stroke:#000" x="308.321" y="166.965" xlink:href="#mad0cba6838"/><use style="stroke:#000" x="344.718" y="188.337" xlink:href="#mad0cba6838"/><use style="stroke:#000" x="284.576" y="233.031" xlink:href="#mad0cba6838"/><use style="stroke:#000" x="171.411" y="200.027" xlink:href="#mad0cba6838"/><use style="stroke:#000" x="278.333" y="187.723" xlink:href="#mad0cba6838"/><use style="stroke:#000" x="56.393" y="193.241" xlink:href="#mad0cba6838"/><use style="stroke:#000" x="231.211" y="181.098" xlink:href="#mad0cba6838"/><use style="stroke:#000" x="64.798" y="178.434" xlink:href="#mad0cba6838"/><use style="stroke:#000" x="333.341" y="147.164" xlink:href="#mad0cba6838"/><use style="stroke:#000" x="191.642" y="179.85" xlink:href="#mad0cba6838"/><use style="stroke:#000" x="155.721" y="199.273" xlink:href="#mad0cba6838"/><use style="stroke:#000" x="105.416" y="139.916" xlink:href="#mad0cba6838"/><use style="stroke:#000" x="276.223" y="220.27" xlink:href="#mad0cba6838"/><use style="stroke:#000" x="169.625" y="191.424" xlink:href="#mad0cba6838"/><use style="stroke:#000" x="207.254" y="230.798" xlink:href="#mad0cba6838"/><use style="stroke:#000" x="23.053" y="80.356" xlink:href="#mad0cba6838"/><use style="stroke:#000" x="223.743" y="222.658" xlink:href="#mad0cba6838"/><use style="stroke:#000" x="221.886" y="213.247" xlink:href="#mad0cba6838"/><use style="stroke:#000" x="223.508" y="198.994" xlink:href="#mad0cba6838"/><use style="stroke:#000" x="333.032" y="192.555" xlink:href="#mad0cba6838"/><use style="stroke:#000" x="245.253" y="158.609" xlink:href="#mad0cba6838"/><use style="stroke:#000" x="137.237" y="181.2" xlink:href="#mad0cba6838"/><use style="stroke:#000" x="163.218" y="262.99" xlink:href="#mad0cba6838"/><use style="stroke:#000" x="250.552" y="133.959" xlink:href="#mad0cba6838"/><use style="stroke:#000" x="36.94" y="21.648" xlink:href="#mad0cba6838"/><use style="stroke:#000" x="240.208" y="150.588" xlink:href="#mad0cba6838"/><use style="stroke:#000" x="241.505" y="200.79" xlink:href="#mad0cba6838"/><use style="stroke:#000" x="87.261" y="208.757" xlink:href="#mad0cba6838"/><use style="stroke:#000" x="59.963" y="98.344" xlink:href="#mad0cba6838"/><use style="stroke:#000" x="122.465" y="207.319" xlink:href="#mad0cba6838"/><use style="stroke:#000" x="138.646" y="153.422" xlink:href="#mad0cba6838"/></g></g></g></g><defs><clipPath id="p6bf2f3ef14"><rect width="368.64" height="265.421" x="0" y="11.059"/></clipPath></defs></svg>