<svg xmlns="http://www.w3.org/2000/svg" xmlns:xlink="http://www.w3.org/1999/xlink" width="384" height="288" version="1.1" viewBox="0 0 288 216"><metadata><rdf:RDF xmlns:cc="http://creativecommons.org/ns#" xmlns:dc="http://purl.org/dc/elements/1.1/" xmlns:rdf="http://www.w3.org/1999/02/22-rdf-syntax-ns#"><cc:Work><dc:type rdf:resource="http://purl.org/dc/dcmitype/StillImage"/><dc:date>2021-04-23T16:58:09.826726</dc:date><dc:format>image/svg+xml</dc:format><dc:creator><cc:Agent><dc:title>Matplotlib v3.3.4, https://matplotlib.org/</dc:title></cc:Agent></dc:creator></cc:Work></rdf:RDF></metadata><defs><style type="text/css">*{stroke-linecap:butt;stroke-linejoin:round}</style></defs><g id="figure_1"><g id="patch_1"><path d="M 0 216 L 288 216 L 288 0 L 0 0 z" style="fill:none"/></g><g id="axes_1"><g id="patch_2"><path d="M 28.8 194.4 L 288 194.4 L 288 0 L 28.8 0 z" style="fill:none"/></g><g id="matplotlib.axis_1"><g id="text_1"><g transform="translate(151.305 215.116562)scale(0.22 -0.22)"><defs><path id="DejaVuSans-Bold-120" d="M 22.21875 27.984375 L 2.484375 54.6875 L 21 54.6875 L 32.171875 38.484375 L 43.5 54.6875 L 62.015625 54.6875 L 42.28125 28.078125 L 62.984375 0 L 44.484375 0 L 32.171875 17.28125 L 20.015625 0 L 1.515625 0 z"/></defs><use xlink:href="#DejaVuSans-Bold-120"/></g></g></g><g id="matplotlib.axis_2"><g id="text_2"><g transform="translate(20.052813 104.370625)rotate(-90)scale(0.22 -0.22)"><defs><path id="DejaVuSans-Bold-121" d="M 1.21875 54.6875 L 18.703125 54.6875 L 33.40625 17.578125 L 45.90625 54.6875 L 63.375 54.6875 L 40.375 -5.171875 Q 36.921875 -14.3125 32.296875 -17.9375 Q 27.6875 -21.578125 20.125 -21.578125 L 10.015625 -21.578125 L 10.015625 -10.109375 L 15.484375 -10.109375 Q 19.921875 -10.109375 21.9375 -8.6875 Q 23.96875 -7.28125 25.09375 -3.609375 L 25.59375 -2.09375 z"/></defs><use xlink:href="#DejaVuSans-Bold-121"/></g></g></g><g id="line2d_1"><defs><path id="m621aebd934" d="M 0 7.5 C 1.989023 7.5 3.896849 6.709753 5.303301 5.303301 C 6.709753 3.896849 7.5 1.989023 7.5 0 C 7.5 -1.989023 6.709753 -3.896849 5.303301 -5.303301 C 3.896849 -6.709753 1.989023 -7.5 0 -7.5 C -1.989023 -7.5 -3.896849 -6.709753 -5.303301 -5.303301 C -6.709753 -3.896849 -7.5 -1.989023 -7.5 0 C -7.5 1.989023 -6.709753 3.896849 -5.303301 5.303301 C -3.896849 6.709753 -1.989023 7.5 0 7.5 z" style="stroke:gray;stroke-opacity:.2"/></defs><g clip-path="url(#p227e90e6c7)"><use style="fill:gray;fill-opacity:.2;stroke:gray;stroke-opacity:.2" x="183.733" y="98.886" xlink:href="#m621aebd934"/><use style="fill:gray;fill-opacity:.2;stroke:gray;stroke-opacity:.2" x="155.756" y="110.781" xlink:href="#m621aebd934"/><use style="fill:gray;fill-opacity:.2;stroke:gray;stroke-opacity:.2" x="190.384" y="116.089" xlink:href="#m621aebd934"/><use style="fill:gray;fill-opacity:.2;stroke:gray;stroke-opacity:.2" x="228.951" y="76.64" xlink:href="#m621aebd934"/><use style="fill:gray;fill-opacity:.2;stroke:gray;stroke-opacity:.2" x="151.531" y="114.075" xlink:href="#m621aebd934"/><use style="fill:gray;fill-opacity:.2;stroke:gray;stroke-opacity:.2" x="151.532" y="136.306" xlink:href="#m621aebd934"/><use style="fill:gray;fill-opacity:.2;stroke:gray;stroke-opacity:.2" x="231.427" y="39.353" xlink:href="#m621aebd934"/><use style="fill:gray;fill-opacity:.2;stroke:gray;stroke-opacity:.2" x="195.66" y="87.984" xlink:href="#m621aebd934"/><use style="fill:gray;fill-opacity:.2;stroke:gray;stroke-opacity:.2" x="141.163" y="152.025" xlink:href="#m621aebd934"/><use style="fill:gray;fill-opacity:.2;stroke:gray;stroke-opacity:.2" x="185.752" y="88.914" xlink:href="#m621aebd934"/><use style="fill:gray;fill-opacity:.2;stroke:gray;stroke-opacity:.2" x="141.43" y="147.111" xlink:href="#m621aebd934"/><use style="fill:gray;fill-opacity:.2;stroke:gray;stroke-opacity:.2" x="141.328" y="108.284" xlink:href="#m621aebd934"/><use style="fill:gray;fill-opacity:.2;stroke:gray;stroke-opacity:.2" x="172.508" y="84.468" xlink:href="#m621aebd934"/><use style="fill:gray;fill-opacity:.2;stroke:gray;stroke-opacity:.2" x="77.55" y="175.707" xlink:href="#m621aebd934"/><use style="fill:gray;fill-opacity:.2;stroke:gray;stroke-opacity:.2" x="85.849" y="132.181" xlink:href="#m621aebd934"/><use style="fill:gray;fill-opacity:.2;stroke:gray;stroke-opacity:.2" x="137.074" y="118.675" xlink:href="#m621aebd934"/><use style="fill:gray;fill-opacity:.2;stroke:gray;stroke-opacity:.2" x="117.223" y="119.585" xlink:href="#m621aebd934"/><use style="fill:gray;fill-opacity:.2;stroke:gray;stroke-opacity:.2" x="175.693" y="66.583" xlink:href="#m621aebd934"/><use style="fill:gray;fill-opacity:.2;stroke:gray;stroke-opacity:.2" x="121.841" y="140.828" xlink:href="#m621aebd934"/><use style="fill:gray;fill-opacity:.2;stroke:gray;stroke-opacity:.2" x="99.623" y="163.174" xlink:href="#m621aebd934"/><use style="fill:gray;fill-opacity:.2;stroke:gray;stroke-opacity:.2" x="226.423" y="102.661" xlink:href="#m621aebd934"/><use style="fill:gray;fill-opacity:.2;stroke:gray;stroke-opacity:.2" x="151.9" y="138.361" xlink:href="#m621aebd934"/><use style="fill:gray;fill-opacity:.2;stroke:gray;stroke-opacity:.2" x="164.823" y="115.587" xlink:href="#m621aebd934"/><use style="fill:gray;fill-opacity:.2;stroke:gray;stroke-opacity:.2" x="99.074" y="139.288" xlink:href="#m621aebd934"/><use style="fill:gray;fill-opacity:.2;stroke:gray;stroke-opacity:.2" x="137.863" y="121.283" xlink:href="#m621aebd934"/><use style="fill:gray;fill-opacity:.2;stroke:gray;stroke-opacity:.2" x="166.735" y="94.674" xlink:href="#m621aebd934"/><use style="fill:gray;fill-opacity:.2;stroke:gray;stroke-opacity:.2" x="111.136" y="140.488" xlink:href="#m621aebd934"/><use style="fill:gray;fill-opacity:.2;stroke:gray;stroke-opacity:.2" x="178.401" y="75.009" xlink:href="#m621aebd934"/><use style="fill:gray;fill-opacity:.2;stroke:gray;stroke-opacity:.2" x="135.384" y="134.47" xlink:href="#m621aebd934"/><use style="fill:gray;fill-opacity:.2;stroke:gray;stroke-opacity:.2" x="148.996" y="61.785" xlink:href="#m621aebd934"/><use style="fill:gray;fill-opacity:.2;stroke:gray;stroke-opacity:.2" x="135.337" y="114.847" xlink:href="#m621aebd934"/><use style="fill:gray;fill-opacity:.2;stroke:gray;stroke-opacity:.2" x="243.458" y="93.415" xlink:href="#m621aebd934"/><use style="fill:gray;fill-opacity:.2;stroke:gray;stroke-opacity:.2" x="161.253" y="139.305" xlink:href="#m621aebd934"/><use style="fill:gray;fill-opacity:.2;stroke:gray;stroke-opacity:.2" x="115.246" y="128.069" xlink:href="#m621aebd934"/><use style="fill:gray;fill-opacity:.2;stroke:gray;stroke-opacity:.2" x="198.088" y="102.155" xlink:href="#m621aebd934"/><use style="fill:gray;fill-opacity:.2;stroke:gray;stroke-opacity:.2" x="108.058" y="126.56" xlink:href="#m621aebd934"/><use style="fill:gray;fill-opacity:.2;stroke:gray;stroke-opacity:.2" x="171.05" y="100.323" xlink:href="#m621aebd934"/><use style="fill:gray;fill-opacity:.2;stroke:gray;stroke-opacity:.2" x="75.506" y="160.228" xlink:href="#m621aebd934"/><use style="fill:gray;fill-opacity:.2;stroke:gray;stroke-opacity:.2" x="103.329" y="163.372" xlink:href="#m621aebd934"/><use style="fill:gray;fill-opacity:.2;stroke:gray;stroke-opacity:.2" x="170.521" y="144.46" xlink:href="#m621aebd934"/><use style="fill:gray;fill-opacity:.2;stroke:gray;stroke-opacity:.2" x="194.384" y="108.933" xlink:href="#m621aebd934"/><use style="fill:gray;fill-opacity:.2;stroke:gray;stroke-opacity:.2" x="169.398" y="92.695" xlink:href="#m621aebd934"/><use style="fill:gray;fill-opacity:.2;stroke:gray;stroke-opacity:.2" x="156.752" y="113.203" xlink:href="#m621aebd934"/><use style="fill:gray;fill-opacity:.2;stroke:gray;stroke-opacity:.2" x="148.581" y="149.51" xlink:href="#m621aebd934"/><use style="fill:gray;fill-opacity:.2;stroke:gray;stroke-opacity:.2" x="96.705" y="144.181" xlink:href="#m621aebd934"/><use style="fill:gray;fill-opacity:.2;stroke:gray;stroke-opacity:.2" x="130.132" y="122.757" xlink:href="#m621aebd934"/><use style="fill:gray;fill-opacity:.2;stroke:gray;stroke-opacity:.2" x="141.552" y="145.045" xlink:href="#m621aebd934"/><use style="fill:gray;fill-opacity:.2;stroke:gray;stroke-opacity:.2" x="208.424" y="88.655" xlink:href="#m621aebd934"/><use style="fill:gray;fill-opacity:.2;stroke:gray;stroke-opacity:.2" x="176.987" y="106.508" xlink:href="#m621aebd934"/><use style="fill:gray;fill-opacity:.2;stroke:gray;stroke-opacity:.2" x="84.169" y="179.504" xlink:href="#m621aebd934"/><use style="fill:gray;fill-opacity:.2;stroke:gray;stroke-opacity:.2" x="176.127" y="100.328" xlink:href="#m621aebd934"/><use style="fill:gray;fill-opacity:.2;stroke:gray;stroke-opacity:.2" x="144.881" y="111.498" xlink:href="#m621aebd934"/><use style="fill:gray;fill-opacity:.2;stroke:gray;stroke-opacity:.2" x="132.023" y="106.413" xlink:href="#m621aebd934"/><use style="fill:gray;fill-opacity:.2;stroke:gray;stroke-opacity:.2" x="188.798" y="78.622" xlink:href="#m621aebd934"/><use style="fill:gray;fill-opacity:.2;stroke:gray;stroke-opacity:.2" x="207.273" y="123.025" xlink:href="#m621aebd934"/><use style="fill:gray;fill-opacity:.2;stroke:gray;stroke-opacity:.2" x="202.879" y="115.52" xlink:href="#m621aebd934"/><use style="fill:gray;fill-opacity:.2;stroke:gray;stroke-opacity:.2" x="124.872" y="122.529" xlink:href="#m621aebd934"/><use style="fill:gray;fill-opacity:.2;stroke:gray;stroke-opacity:.2" x="148.224" y="110.861" xlink:href="#m621aebd934"/><use style="fill:gray;fill-opacity:.2;stroke:gray;stroke-opacity:.2" x="176.443" y="96.699" xlink:href="#m621aebd934"/><use style="fill:gray;fill-opacity:.2;stroke:gray;stroke-opacity:.2" x="204.829" y="8.827" xlink:href="#m621aebd934"/><use style="fill:gray;fill-opacity:.2;stroke:gray;stroke-opacity:.2" x="140.736" y="113.351" xlink:href="#m621aebd934"/><use style="fill:gray;fill-opacity:.2;stroke:gray;stroke-opacity:.2" x="153.668" y="94.413" xlink:href="#m621aebd934"/><use style="fill:gray;fill-opacity:.2;stroke:gray;stroke-opacity:.2" x="113.103" y="118.737" xlink:href="#m621aebd934"/><use style="fill:gray;fill-opacity:.2;stroke:gray;stroke-opacity:.2" x="109.144" y="127.398" xlink:href="#m621aebd934"/><use style="fill:gray;fill-opacity:.2;stroke:gray;stroke-opacity:.2" x="197.647" y="104.402" xlink:href="#m621aebd934"/><use style="fill:gray;fill-opacity:.2;stroke:gray;stroke-opacity:.2" x="221.603" y="68.698" xlink:href="#m621aebd934"/><use style="fill:gray;fill-opacity:.2;stroke:gray;stroke-opacity:.2" x="158.675" y="134.019" xlink:href="#m621aebd934"/><use style="fill:gray;fill-opacity:.2;stroke:gray;stroke-opacity:.2" x="206.063" y="98.456" xlink:href="#m621aebd934"/><use style="fill:gray;fill-opacity:.2;stroke:gray;stroke-opacity:.2" x="177.781" y="118.106" xlink:href="#m621aebd934"/><use style="fill:gray;fill-opacity:.2;stroke:gray;stroke-opacity:.2" x="133.424" y="127.805" xlink:href="#m621aebd934"/><use style="fill:gray;fill-opacity:.2;stroke:gray;stroke-opacity:.2" x="177.771" y="56.321" xlink:href="#m621aebd934"/><use style="fill:gray;fill-opacity:.2;stroke:gray;stroke-opacity:.2" x="229.612" y="122.641" xlink:href="#m621aebd934"/><use style="fill:gray;fill-opacity:.2;stroke:gray;stroke-opacity:.2" x="160.269" y="101.022" xlink:href="#m621aebd934"/><use style="fill:gray;fill-opacity:.2;stroke:gray;stroke-opacity:.2" x="230.785" y="116.436" xlink:href="#m621aebd934"/><use style="fill:gray;fill-opacity:.2;stroke:gray;stroke-opacity:.2" x="46.424" y="183.601" xlink:href="#m621aebd934"/><use style="fill:gray;fill-opacity:.2;stroke:gray;stroke-opacity:.2" x="198.06" y="73.207" xlink:href="#m621aebd934"/><use style="fill:gray;fill-opacity:.2;stroke:gray;stroke-opacity:.2" x="165.683" y="112.036" xlink:href="#m621aebd934"/><use style="fill:gray;fill-opacity:.2;stroke:gray;stroke-opacity:.2" x="148.674" y="145.757" xlink:href="#m621aebd934"/><use style="fill:gray;fill-opacity:.2;stroke:gray;stroke-opacity:.2" x="165.891" y="129.135" xlink:href="#m621aebd934"/><use style="fill:gray;fill-opacity:.2;stroke:gray;stroke-opacity:.2" x="74.277" y="144.239" xlink:href="#m621aebd934"/><use style="fill:gray;fill-opacity:.2;stroke:gray;stroke-opacity:.2" x="152.169" y="136.34" xlink:href="#m621aebd934"/><use style="fill:gray;fill-opacity:.2;stroke:gray;stroke-opacity:.2" x="177.582" y="102.718" xlink:href="#m621aebd934"/><use style="fill:gray;fill-opacity:.2;stroke:gray;stroke-opacity:.2" x="226.963" y="81.756" xlink:href="#m621aebd934"/><use style="fill:gray;fill-opacity:.2;stroke:gray;stroke-opacity:.2" x="139.013" y="141.191" xlink:href="#m621aebd934"/><use style="fill:gray;fill-opacity:.2;stroke:gray;stroke-opacity:.2" x="126.226" y="85.905" xlink:href="#m621aebd934"/><use style="fill:gray;fill-opacity:.2;stroke:gray;stroke-opacity:.2" x="139.741" y="112.459" xlink:href="#m621aebd934"/><use style="fill:gray;fill-opacity:.2;stroke:gray;stroke-opacity:.2" x="202.18" y="139.865" xlink:href="#m621aebd934"/><use style="fill:gray;fill-opacity:.2;stroke:gray;stroke-opacity:.2" x="176.332" y="104.006" xlink:href="#m621aebd934"/><use style="fill:gray;fill-opacity:.2;stroke:gray;stroke-opacity:.2" x="138.507" y="141.67" xlink:href="#m621aebd934"/><use style="fill:gray;fill-opacity:.2;stroke:gray;stroke-opacity:.2" x="184.462" y="85.238" xlink:href="#m621aebd934"/><use style="fill:gray;fill-opacity:.2;stroke:gray;stroke-opacity:.2" x="166.125" y="130.722" xlink:href="#m621aebd934"/><use style="fill:gray;fill-opacity:.2;stroke:gray;stroke-opacity:.2" x="204.525" y="96.532" xlink:href="#m621aebd934"/><use style="fill:gray;fill-opacity:.2;stroke:gray;stroke-opacity:.2" x="130.916" y="119.724" xlink:href="#m621aebd934"/><use style="fill:gray;fill-opacity:.2;stroke:gray;stroke-opacity:.2" x="147.411" y="103.501" xlink:href="#m621aebd934"/><use style="fill:gray;fill-opacity:.2;stroke:gray;stroke-opacity:.2" x="144.572" y="150.516" xlink:href="#m621aebd934"/><use style="fill:gray;fill-opacity:.2;stroke:gray;stroke-opacity:.2" x="97.366" y="155.053" xlink:href="#m621aebd934"/><use style="fill:gray;fill-opacity:.2;stroke:gray;stroke-opacity:.2" x="174.895" y="119.322" xlink:href="#m621aebd934"/><use style="fill:gray;fill-opacity:.2;stroke:gray;stroke-opacity:.2" x="173.35" y="124.032" xlink:href="#m621aebd934"/><use style="fill:gray;fill-opacity:.2;stroke:gray;stroke-opacity:.2" x="162.073" y="76.303" xlink:href="#m621aebd934"/><use style="fill:gray;fill-opacity:.2;stroke:gray;stroke-opacity:.2" x="151.512" y="111.615" xlink:href="#m621aebd934"/><use style="fill:gray;fill-opacity:.2;stroke:gray;stroke-opacity:.2" x="99.488" y="174.434" xlink:href="#m621aebd934"/><use style="fill:gray;fill-opacity:.2;stroke:gray;stroke-opacity:.2" x="143.314" y="104.403" xlink:href="#m621aebd934"/><use style="fill:gray;fill-opacity:.2;stroke:gray;stroke-opacity:.2" x="146.748" y="76.107" xlink:href="#m621aebd934"/><use style="fill:gray;fill-opacity:.2;stroke:gray;stroke-opacity:.2" x="126.5" y="110.296" xlink:href="#m621aebd934"/><use style="fill:gray;fill-opacity:.2;stroke:gray;stroke-opacity:.2" x="154.742" y="152.463" xlink:href="#m621aebd934"/><use style="fill:gray;fill-opacity:.2;stroke:gray;stroke-opacity:.2" x="179.65" y="117.145" xlink:href="#m621aebd934"/><use style="fill:gray;fill-opacity:.2;stroke:gray;stroke-opacity:.2" x="244.952" y="45.794" xlink:href="#m621aebd934"/><use style="fill:gray;fill-opacity:.2;stroke:gray;stroke-opacity:.2" x="169.539" y="127.139" xlink:href="#m621aebd934"/><use style="fill:gray;fill-opacity:.2;stroke:gray;stroke-opacity:.2" x="173.195" y="99.898" xlink:href="#m621aebd934"/><use style="fill:gray;fill-opacity:.2;stroke:gray;stroke-opacity:.2" x="158.568" y="99.924" xlink:href="#m621aebd934"/><use style="fill:gray;fill-opacity:.2;stroke:gray;stroke-opacity:.2" x="77.308" y="178.173" xlink:href="#m621aebd934"/><use style="fill:gray;fill-opacity:.2;stroke:gray;stroke-opacity:.2" x="160.68" y="117.274" xlink:href="#m621aebd934"/><use style="fill:gray;fill-opacity:.2;stroke:gray;stroke-opacity:.2" x="164.501" y="185.573" xlink:href="#m621aebd934"/><use style="fill:gray;fill-opacity:.2;stroke:gray;stroke-opacity:.2" x="270.376" y="83.623" xlink:href="#m621aebd934"/><use style="fill:gray;fill-opacity:.2;stroke:gray;stroke-opacity:.2" x="153.372" y="125.194" xlink:href="#m621aebd934"/><use style="fill:gray;fill-opacity:.2;stroke:gray;stroke-opacity:.2" x="175.134" y="136.256" xlink:href="#m621aebd934"/><use style="fill:gray;fill-opacity:.2;stroke:gray;stroke-opacity:.2" x="160.318" y="80.118" xlink:href="#m621aebd934"/><use style="fill:gray;fill-opacity:.2;stroke:gray;stroke-opacity:.2" x="110.357" y="172.725" xlink:href="#m621aebd934"/><use style="fill:gray;fill-opacity:.2;stroke:gray;stroke-opacity:.2" x="212.2" y="99.867" xlink:href="#m621aebd934"/><use style="fill:gray;fill-opacity:.2;stroke:gray;stroke-opacity:.2" x="194.977" y="95.897" xlink:href="#m621aebd934"/><use style="fill:gray;fill-opacity:.2;stroke:gray;stroke-opacity:.2" x="196.7" y="66.114" xlink:href="#m621aebd934"/><use style="fill:gray;fill-opacity:.2;stroke:gray;stroke-opacity:.2" x="121.781" y="167.129" xlink:href="#m621aebd934"/><use style="fill:gray;fill-opacity:.2;stroke:gray;stroke-opacity:.2" x="223.654" y="58.751" xlink:href="#m621aebd934"/><use style="fill:gray;fill-opacity:.2;stroke:gray;stroke-opacity:.2" x="100.083" y="146.085" xlink:href="#m621aebd934"/><use style="fill:gray;fill-opacity:.2;stroke:gray;stroke-opacity:.2" x="187.704" y="124.084" xlink:href="#m621aebd934"/><use style="fill:gray;fill-opacity:.2;stroke:gray;stroke-opacity:.2" x="258.358" y="56.84" xlink:href="#m621aebd934"/><use style="fill:gray;fill-opacity:.2;stroke:gray;stroke-opacity:.2" x="118.205" y="132.841" xlink:href="#m621aebd934"/><use style="fill:gray;fill-opacity:.2;stroke:gray;stroke-opacity:.2" x="136.897" y="141.117" xlink:href="#m621aebd934"/><use style="fill:gray;fill-opacity:.2;stroke:gray;stroke-opacity:.2" x="166.238" y="111.636" xlink:href="#m621aebd934"/><use style="fill:gray;fill-opacity:.2;stroke:gray;stroke-opacity:.2" x="139.665" y="134.989" xlink:href="#m621aebd934"/><use style="fill:gray;fill-opacity:.2;stroke:gray;stroke-opacity:.2" x="93.527" y="147.09" xlink:href="#m621aebd934"/><use style="fill:gray;fill-opacity:.2;stroke:gray;stroke-opacity:.2" x="164.869" y="99.251" xlink:href="#m621aebd934"/><use style="fill:gray;fill-opacity:.2;stroke:gray;stroke-opacity:.2" x="115.043" y="103.818" xlink:href="#m621aebd934"/><use style="fill:gray;fill-opacity:.2;stroke:gray;stroke-opacity:.2" x="182.714" y="132.24" xlink:href="#m621aebd934"/><use style="fill:gray;fill-opacity:.2;stroke:gray;stroke-opacity:.2" x="121.339" y="88.594" xlink:href="#m621aebd934"/><use style="fill:gray;fill-opacity:.2;stroke:gray;stroke-opacity:.2" x="230.137" y="124.25" xlink:href="#m621aebd934"/><use style="fill:gray;fill-opacity:.2;stroke:gray;stroke-opacity:.2" x="127.338" y="136.009" xlink:href="#m621aebd934"/><use style="fill:gray;fill-opacity:.2;stroke:gray;stroke-opacity:.2" x="147.658" y="109.5" xlink:href="#m621aebd934"/><use style="fill:gray;fill-opacity:.2;stroke:gray;stroke-opacity:.2" x="197.691" y="91.222" xlink:href="#m621aebd934"/><use style="fill:gray;fill-opacity:.2;stroke:gray;stroke-opacity:.2" x="107.617" y="156.279" xlink:href="#m621aebd934"/><use style="fill:gray;fill-opacity:.2;stroke:gray;stroke-opacity:.2" x="171.869" y="114.949" xlink:href="#m621aebd934"/><use style="fill:gray;fill-opacity:.2;stroke:gray;stroke-opacity:.2" x="219.439" y="97.409" xlink:href="#m621aebd934"/><use style="fill:gray;fill-opacity:.2;stroke:gray;stroke-opacity:.2" x="91.023" y="163.854" xlink:href="#m621aebd934"/><use style="fill:gray;fill-opacity:.2;stroke:gray;stroke-opacity:.2" x="169.983" y="92.552" xlink:href="#m621aebd934"/><use style="fill:gray;fill-opacity:.2;stroke:gray;stroke-opacity:.2" x="173.298" y="101.762" xlink:href="#m621aebd934"/><use style="fill:gray;fill-opacity:.2;stroke:gray;stroke-opacity:.2" x="196.294" y="113.413" xlink:href="#m621aebd934"/><use style="fill:gray;fill-opacity:.2;stroke:gray;stroke-opacity:.2" x="107.349" y="122.82" xlink:href="#m621aebd934"/><use style="fill:gray;fill-opacity:.2;stroke:gray;stroke-opacity:.2" x="103.669" y="137.733" xlink:href="#m621aebd934"/><use style="fill:gray;fill-opacity:.2;stroke:gray;stroke-opacity:.2" x="184.844" y="85.919" xlink:href="#m621aebd934"/><use style="fill:gray;fill-opacity:.2;stroke:gray;stroke-opacity:.2" x="174.933" y="94.927" xlink:href="#m621aebd934"/></g></g><g id="line2d_2"><path d="M 46.4237 171.906383 L 48.685847 170.619069 L 50.947995 169.331754 L 53.210142 168.04444 L 55.47229 166.757125 L 57.734437 165.469811 L 59.996585 164.182496 L 62.258732 162.895182 L 64.52088 161.607867 L 66.783027 160.320552 L 69.045175 159.033238 L 71.307322 157.745923 L 73.569469 156.458609 L 75.831617 155.171294 L 78.093764 153.88398 L 80.355912 152.596665 L 82.618059 151.309351 L 84.880207 150.022036 L 87.142354 148.734721 L 89.404502 147.447407 L 91.666649 146.160092 L 93.928797 144.872778 L 96.190944 143.585463 L 98.453092 142.298149 L 100.715239 141.010834 L 102.977387 139.72352 L 105.239534 138.436205 L 107.501682 137.14889 L 109.763829 135.861576 L 112.025977 134.574261 L 114.288124 133.286947 L 116.550272 131.999632 L 118.812419 130.712318 L 121.074567 129.425003 L 123.336714 128.137689 L 125.598862 126.850374 L 127.861009 125.563059 L 130.123156 124.275745 L 132.385304 122.98843 L 134.647451 121.701116 L 136.909599 120.413801 L 139.171746 119.126487 L 141.433894 117.839172 L 143.696041 116.551858 L 145.958189 115.264543 L 148.220336 113.977228 L 150.482484 112.689914 L 152.744631 111.402599 L 155.006779 110.115285 L 157.268926 108.82797 L 159.531074 107.540656 L 161.793221 106.253341 L 164.055369 104.966027 L 166.317516 103.678712 L 168.579664 102.391397 L 170.841811 101.104083 L 173.103959 99.816768 L 175.366106 98.529454 L 177.628254 97.242139 L 179.890401 95.954825 L 182.152549 94.66751 L 184.414696 93.380196 L 186.676844 92.092881 L 188.938991 90.805566 L 191.201138 89.518252 L 193.463286 88.230937 L 195.725433 86.943623 L 197.987581 85.656308 L 200.249728 84.368994 L 202.511876 83.081679 L 204.774023 81.794365 L 207.036171 80.50705 L 209.298318 79.219736 L 211.560466 77.932421 L 213.822613 76.645106 L 216.084761 75.357792 L 218.346908 74.070477 L 220.609056 72.783163 L 222.871203 71.495848 L 225.133351 70.208534 L 227.395498 68.921219 L 229.657646 67.633905 L 231.919793 66.34659 L 234.181941 65.059275 L 236.444088 63.771961 L 238.706236 62.484646 L 240.968383 61.197332 L 243.230531 59.910017 L 245.492678 58.622703 L 247.754825 57.335388 L 250.016973 56.048074 L 252.27912 54.760759 L 254.541268 53.473444 L 256.803415 52.18613 L 259.065563 50.898815 L 261.32771 49.611501 L 263.589858 48.324186 L 265.852005 47.036872 L 268.114153 45.749557 L 270.3763 44.462243" clip-path="url(#p227e90e6c7)" style="fill:none;stroke:#1f77b4;stroke-linecap:square;stroke-width:1.5"/></g><g id="line2d_3"><path d="M 46.4237 124.346699 L 48.685847 124.173151 L 50.947995 123.999603 L 53.210142 123.826055 L 55.47229 123.652507 L 57.734437 123.47896 L 59.996585 123.305412 L 62.258732 123.131864 L 64.52088 122.958316 L 66.783027 122.784768 L 69.045175 122.61122 L 71.307322 122.437672 L 73.569469 122.264124 L 75.831617 122.090576 L 78.093764 121.917028 L 80.355912 121.743481 L 82.618059 121.569933 L 84.880207 121.396385 L 87.142354 121.222837 L 89.404502 121.049289 L 91.666649 120.875741 L 93.928797 120.702193 L 96.190944 120.528645 L 98.453092 120.355097 L 100.715239 120.181549 L 102.977387 120.008002 L 105.239534 119.834454 L 107.501682 119.660906 L 109.763829 119.487358 L 112.025977 119.31381 L 114.288124 119.140262 L 116.550272 118.966714 L 118.812419 118.793166 L 121.074567 118.619618 L 123.336714 118.44607 L 125.598862 118.272522 L 127.861009 118.098975 L 130.123156 117.925427 L 132.385304 117.751879 L 134.647451 117.578331 L 136.909599 117.404783 L 139.171746 117.231235 L 141.433894 117.057687 L 143.696041 116.884139 L 145.958189 116.710591 L 148.220336 116.537043 L 150.482484 116.363496 L 152.744631 116.189948 L 155.006779 116.0164 L 157.268926 115.842852 L 159.531074 115.669304 L 161.793221 115.495756 L 164.055369 115.322208 L 166.317516 115.14866 L 168.579664 114.975112 L 170.841811 114.801564 L 173.103959 114.628017 L 175.366106 114.454469 L 177.628254 114.280921 L 179.890401 114.107373 L 182.152549 113.933825 L 184.414696 113.760277 L 186.676844 113.586729 L 188.938991 113.413181 L 191.201138 113.239633 L 193.463286 113.066085 L 195.725433 112.892538 L 197.987581 112.71899 L 200.249728 112.545442 L 202.511876 112.371894 L 204.774023 112.198346 L 207.036171 112.024798 L 209.298318 111.85125 L 211.560466 111.677702 L 213.822613 111.504154 L 216.084761 111.330606 L 218.346908 111.157059 L 220.609056 110.983511 L 222.871203 110.809963 L 225.133351 110.636415 L 227.395498 110.462867 L 229.657646 110.289319 L 231.919793 110.115771 L 234.181941 109.942223 L 236.444088 109.768675 L 238.706236 109.595127 L 240.968383 109.42158 L 243.230531 109.248032 L 245.492678 109.074484 L 247.754825 108.900936 L 250.016973 108.727388 L 252.27912 108.55384 L 254.541268 108.380292 L 256.803415 108.206744 L 259.065563 108.033196 L 261.32771 107.859648 L 263.589858 107.686101 L 265.852005 107.512553 L 268.114153 107.339005 L 270.3763 107.165457" clip-path="url(#p227e90e6c7)" style="fill:none;stroke:#ff7f0e;stroke-linecap:square;stroke-width:1.5"/></g><g id="line2d_4"><path d="M 46.4237 162.918033 L 48.685847 161.825892 L 50.947995 160.733752 L 53.210142 159.641611 L 55.47229 158.549471 L 57.734437 157.45733 L 59.996585 156.36519 L 62.258732 155.273049 L 64.52088 154.180909 L 66.783027 153.088768 L 69.045175 151.996628 L 71.307322 150.904488 L 73.569469 149.812347 L 75.831617 148.720207 L 78.093764 147.628066 L 80.355912 146.535926 L 82.618059 145.443785 L 84.880207 144.351645 L 87.142354 143.259504 L 89.404502 142.167364 L 91.666649 141.075223 L 93.928797 139.983083 L 96.190944 138.890942 L 98.453092 137.798802 L 100.715239 136.706662 L 102.977387 135.614521 L 105.239534 134.522381 L 107.501682 133.43024 L 109.763829 132.3381 L 112.025977 131.245959 L 114.288124 130.153819 L 116.550272 129.061678 L 118.812419 127.969538 L 121.074567 126.877397 L 123.336714 125.785257 L 125.598862 124.693117 L 127.861009 123.600976 L 130.123156 122.508836 L 132.385304 121.416695 L 134.647451 120.324555 L 136.909599 119.232414 L 139.171746 118.140274 L 141.433894 117.048133 L 143.696041 115.955993 L 145.958189 114.863852 L 148.220336 113.771712 L 150.482484 112.679572 L 152.744631 111.587431 L 155.006779 110.495291 L 157.268926 109.40315 L 159.531074 108.31101 L 161.793221 107.218869 L 164.055369 106.126729 L 166.317516 105.034588 L 168.579664 103.942448 L 170.841811 102.850307 L 173.103959 101.758167 L 175.366106 100.666026 L 177.628254 99.573886 L 179.890401 98.481746 L 182.152549 97.389605 L 184.414696 96.297465 L 186.676844 95.205324 L 188.938991 94.113184 L 191.201138 93.021043 L 193.463286 91.928903 L 195.725433 90.836762 L 197.987581 89.744622 L 200.249728 88.652481 L 202.511876 87.560341 L 204.774023 86.468201 L 207.036171 85.37606 L 209.298318 84.28392 L 211.560466 83.191779 L 213.822613 82.099639 L 216.084761 81.007498 L 218.346908 79.915358 L 220.609056 78.823217 L 222.871203 77.731077 L 225.133351 76.638936 L 227.395498 75.546796 L 229.657646 74.454655 L 231.919793 73.362515 L 234.181941 72.270375 L 236.444088 71.178234 L 238.706236 70.086094 L 240.968383 68.993953 L 243.230531 67.901813 L 245.492678 66.809672 L 247.754825 65.717532 L 250.016973 64.625391 L 252.27912 63.533251 L 254.541268 62.44111 L 256.803415 61.34897 L 259.065563 60.25683 L 261.32771 59.164689 L 263.589858 58.072549 L 265.852005 56.980408 L 268.114153 55.888268 L 270.3763 54.796127" clip-path="url(#p227e90e6c7)" style="fill:none;stroke:#2ca02c;stroke-linecap:square;stroke-width:1.5"/></g><g id="line2d_5"><path d="M 46.4237 167.087124 L 48.685847 166.241279 L 50.947995 165.395434 L 53.210142 164.549589 L 55.47229 163.703743 L 57.734437 162.857898 L 59.996585 162.012053 L 62.258732 161.166208 L 64.52088 160.320362 L 66.783027 159.474517 L 69.045175 158.628672 L 71.307322 157.782827 L 73.569469 156.936981 L 75.831617 156.091136 L 78.093764 155.245291 L 80.355912 154.399445 L 82.618059 153.5536 L 84.880207 152.707755 L 87.142354 151.86191 L 89.404502 151.016064 L 91.666649 150.170219 L 93.928797 149.324374 L 96.190944 148.478529 L 98.453092 147.632683 L 100.715239 146.786838 L 102.977387 145.940993 L 105.239534 145.095148 L 107.501682 144.249302 L 109.763829 143.403457 L 112.025977 142.557612 L 114.288124 141.711767 L 116.550272 140.865921 L 118.812419 140.020076 L 121.074567 139.174231 L 123.336714 138.328386 L 125.598862 137.48254 L 127.861009 136.636695 L 130.123156 135.79085 L 132.385304 134.945005 L 134.647451 134.099159 L 136.909599 133.253314 L 139.171746 132.407469 L 141.433894 131.561624 L 143.696041 130.715778 L 145.958189 129.869933 L 148.220336 129.024088 L 150.482484 128.178242 L 152.744631 127.332397 L 155.006779 126.486552 L 157.268926 125.640707 L 159.531074 124.794861 L 161.793221 123.949016 L 164.055369 123.103171 L 166.317516 122.257326 L 168.579664 121.41148 L 170.841811 120.565635 L 173.103959 119.71979 L 175.366106 118.873945 L 177.628254 118.028099 L 179.890401 117.182254 L 182.152549 116.336409 L 184.414696 115.490564 L 186.676844 114.644718 L 188.938991 113.798873 L 191.201138 112.953028 L 193.463286 112.107183 L 195.725433 111.261337 L 197.987581 110.415492 L 200.249728 109.569647 L 202.511876 108.723802 L 204.774023 107.877956 L 207.036171 107.032111 L 209.298318 106.186266 L 211.560466 105.340421 L 213.822613 104.494575 L 216.084761 103.64873 L 218.346908 102.802885 L 220.609056 101.957039 L 222.871203 101.111194 L 225.133351 100.265349 L 227.395498 99.419504 L 229.657646 98.573658 L 231.919793 97.727813 L 234.181941 96.881968 L 236.444088 96.036123 L 238.706236 95.190277 L 240.968383 94.344432 L 243.230531 93.498587 L 245.492678 92.652742 L 247.754825 91.806896 L 250.016973 90.961051 L 252.27912 90.115206 L 254.541268 89.269361 L 256.803415 88.423515 L 259.065563 87.57767 L 261.32771 86.731825 L 263.589858 85.88598 L 265.852005 85.040134 L 268.114153 84.194289 L 270.3763 83.348444" clip-path="url(#p227e90e6c7)" style="fill:none;stroke:#d62728;stroke-linecap:square;stroke-width:1.5"/></g><g id="line2d_6"><path d="M 46.4237 171.550266 L 48.685847 170.35714 L 50.947995 169.164013 L 53.210142 167.970887 L 55.47229 166.77776 L 57.734437 165.584634 L 59.996585 164.391507 L 62.258732 163.198381 L 64.52088 162.005254 L 66.783027 160.812128 L 69.045175 159.619001 L 71.307322 158.425875 L 73.569469 157.232748 L 75.831617 156.039622 L 78.093764 154.846495 L 80.355912 153.653369 L 82.618059 152.460242 L 84.880207 151.267116 L 87.142354 150.073989 L 89.404502 148.880863 L 91.666649 147.687736 L 93.928797 146.49461 L 96.190944 145.301483 L 98.453092 144.108357 L 100.715239 142.91523 L 102.977387 141.722104 L 105.239534 140.528978 L 107.501682 139.335851 L 109.763829 138.142725 L 112.025977 136.949598 L 114.288124 135.756472 L 116.550272 134.563345 L 118.812419 133.370219 L 121.074567 132.177092 L 123.336714 130.983966 L 125.598862 129.790839 L 127.861009 128.597713 L 130.123156 127.404586 L 132.385304 126.21146 L 134.647451 125.018333 L 136.909599 123.825207 L 139.171746 122.63208 L 141.433894 121.438954 L 143.696041 120.245827 L 145.958189 119.052701 L 148.220336 117.859574 L 150.482484 116.666448 L 152.744631 115.473321 L 155.006779 114.280195 L 157.268926 113.087068 L 159.531074 111.893942 L 161.793221 110.700815 L 164.055369 109.507689 L 166.317516 108.314562 L 168.579664 107.121436 L 170.841811 105.928309 L 173.103959 104.735183 L 175.366106 103.542056 L 177.628254 102.34893 L 179.890401 101.155803 L 182.152549 99.962677 L 184.414696 98.76955 L 186.676844 97.576424 L 188.938991 96.383297 L 191.201138 95.190171 L 193.463286 93.997044 L 195.725433 92.803918 L 197.987581 91.610792 L 200.249728 90.417665 L 202.511876 89.224539 L 204.774023 88.031412 L 207.036171 86.838286 L 209.298318 85.645159 L 211.560466 84.452033 L 213.822613 83.258906 L 216.084761 82.06578 L 218.346908 80.872653 L 220.609056 79.679527 L 222.871203 78.4864 L 225.133351 77.293274 L 227.395498 76.100147 L 229.657646 74.907021 L 231.919793 73.713894 L 234.181941 72.520768 L 236.444088 71.327641 L 238.706236 70.134515 L 240.968383 68.941388 L 243.230531 67.748262 L 245.492678 66.555135 L 247.754825 65.362009 L 250.016973 64.168882 L 252.27912 62.975756 L 254.541268 61.782629 L 256.803415 60.589503 L 259.065563 59.396376 L 261.32771 58.20325 L 263.589858 57.010123 L 265.852005 55.816997 L 268.114153 54.62387 L 270.3763 53.430744" clip-path="url(#p227e90e6c7)" style="fill:none;stroke:#9467bd;stroke-linecap:square;stroke-width:1.5"/></g><g id="line2d_7"><path d="M 46.4237 122.812377 L 48.685847 122.55949 L 50.947995 122.306604 L 53.210142 122.053717 L 55.47229 121.80083 L 57.734437 121.547943 L 59.996585 121.295056 L 62.258732 121.042169 L 64.52088 120.789282 L 66.783027 120.536395 L 69.045175 120.283508 L 71.307322 120.030621 L 73.569469 119.777734 L 75.831617 119.524847 L 78.093764 119.27196 L 80.355912 119.019073 L 82.618059 118.766186 L 84.880207 118.513299 L 87.142354 118.260412 L 89.404502 118.007525 L 91.666649 117.754638 L 93.928797 117.501751 L 96.190944 117.248864 L 98.453092 116.995977 L 100.715239 116.74309 L 102.977387 116.490204 L 105.239534 116.237317 L 107.501682 115.98443 L 109.763829 115.731543 L 112.025977 115.478656 L 114.288124 115.225769 L 116.550272 114.972882 L 118.812419 114.719995 L 121.074567 114.467108 L 123.336714 114.214221 L 125.598862 113.961334 L 127.861009 113.708447 L 130.123156 113.45556 L 132.385304 113.202673 L 134.647451 112.949786 L 136.909599 112.696899 L 139.171746 112.444012 L 141.433894 112.191125 L 143.696041 111.938238 L 145.958189 111.685351 L 148.220336 111.432464 L 150.482484 111.179577 L 152.744631 110.92669 L 155.006779 110.673804 L 157.268926 110.420917 L 159.531074 110.16803 L 161.793221 109.915143 L 164.055369 109.662256 L 166.317516 109.409369 L 168.579664 109.156482 L 170.841811 108.903595 L 173.103959 108.650708 L 175.366106 108.397821 L 177.628254 108.144934 L 179.890401 107.892047 L 182.152549 107.63916 L 184.414696 107.386273 L 186.676844 107.133386 L 188.938991 106.880499 L 191.201138 106.627612 L 193.463286 106.374725 L 195.725433 106.121838 L 197.987581 105.868951 L 200.249728 105.616064 L 202.511876 105.363177 L 204.774023 105.110291 L 207.036171 104.857404 L 209.298318 104.604517 L 211.560466 104.35163 L 213.822613 104.098743 L 216.084761 103.845856 L 218.346908 103.592969 L 220.609056 103.340082 L 222.871203 103.087195 L 225.133351 102.834308 L 227.395498 102.581421 L 229.657646 102.328534 L 231.919793 102.075647 L 234.181941 101.82276 L 236.444088 101.569873 L 238.706236 101.316986 L 240.968383 101.064099 L 243.230531 100.811212 L 245.492678 100.558325 L 247.754825 100.305438 L 250.016973 100.052551 L 252.27912 99.799664 L 254.541268 99.546777 L 256.803415 99.293891 L 259.065563 99.041004 L 261.32771 98.788117 L 263.589858 98.53523 L 265.852005 98.282343 L 268.114153 98.029456 L 270.3763 97.776569" clip-path="url(#p227e90e6c7)" style="fill:none;stroke:#8c564b;stroke-linecap:square;stroke-width:1.5"/></g><g id="patch_3"><path d="M 28.8 194.4 L 28.8 0" style="fill:none;stroke:#000;stroke-linecap:square;stroke-linejoin:miter;stroke-width:.8"/></g><g id="patch_4"><path d="M 28.8 194.4 L 288 194.4" style="fill:none;stroke:#000;stroke-linecap:square;stroke-linejoin:miter;stroke-width:.8"/></g></g></g><defs><clipPath id="p227e90e6c7"><rect width="259.2" height="194.4" x="28.8" y="0"/></clipPath></defs></svg>