<svg xmlns="http://www.w3.org/2000/svg" xmlns:xlink="http://www.w3.org/1999/xlink" width="307.2" height="230.4" version="1.1" viewBox="0 0 230.4 172.8"><defs><style type="text/css">*{stroke-linecap:butt;stroke-linejoin:round}</style></defs><g id="figure_1"><g id="patch_1"><path d="M 0 172.8 L 230.4 172.8 L 230.4 0 L 0 0 z" style="fill:none"/></g><g id="axes_1"><g id="patch_2"><path d="M 23.04 155.52 L 230.4 155.52 L 230.4 0 L 23.04 0 z" style="fill:none"/></g><g id="matplotlib.axis_1"><g id="text_1"><defs><path id="DejaVuSans-Bold-120" d="M 22.21875 27.984375 L 2.484375 54.6875 L 21 54.6875 L 32.171875 38.484375 L 43.5 54.6875 L 62.015625 54.6875 L 42.28125 28.078125 L 62.984375 0 L 44.484375 0 L 32.171875 17.28125 L 20.015625 0 L 1.515625 0 z"/></defs><g transform="translate(121.56 171.6775)scale(0.16 -0.16)"><use xlink:href="#DejaVuSans-Bold-120"/></g></g></g><g id="matplotlib.axis_2"><g id="text_2"><defs><path id="DejaVuSans-Bold-121" d="M 1.21875 54.6875 L 18.703125 54.6875 L 33.40625 17.578125 L 45.90625 54.6875 L 63.375 54.6875 L 40.375 -5.171875 Q 36.921875 -14.3125 32.296875 -17.9375 Q 27.6875 -21.578125 20.125 -21.578125 L 10.015625 -21.578125 L 10.015625 -10.109375 L 15.484375 -10.109375 Q 19.921875 -10.109375 21.9375 -8.6875 Q 23.96875 -7.28125 25.09375 -3.609375 L 25.59375 -2.09375 z"/></defs><g transform="translate(15.5875 82.975)rotate(-90)scale(0.16 -0.16)"><use xlink:href="#DejaVuSans-Bold-121"/></g></g></g><g id="line2d_1"><path d="M 23.04 100.534033 L 25.117062 66.786972 L 26.847947 41.873158 L 28.578831 19.876376 L 30.309716 0.796627 L 30.489164 -1 M 34.980689 -1 L 35.502371 6.98856 L 36.194725 20.398826 L 37.233255 43.250188 L 37.925609 52.984204 L 38.271786 55.838053 L 38.617963 57.349796 L 38.96414 57.519433 L 39.310317 56.346965 L 40.002671 52.753194 L 40.348848 52.009521 L 40.695025 52.015859 L 41.041202 52.772208 L 41.387379 54.278569 L 41.733556 56.534942 L 42.42591 63.297723 L 43.118264 73.06055 L 43.810618 85.823423 L 44.849149 108.002205 L 45.541503 116.550272 L 45.887679 118.408765 L 46.233856 118.656899 L 46.580033 117.294672 L 46.92621 114.322085 L 47.272387 109.739138 L 47.964741 95.742164 L 49.695626 51.653451 L 50.041803 49.241475 L 50.38798 49.565713 L 50.734157 52.626165 L 51.080334 58.422831 L 52.811219 97.110001 L 53.84975 115.497768 L 54.88828 130.05369 L 55.926811 140.777767 L 56.619165 145.798349 L 57.311519 149.115889 L 57.657696 150.136018 L 58.003873 150.730387 L 58.35005 150.898995 L 58.696227 150.641842 L 59.042404 149.958929 L 59.388581 148.850255 L 60.427112 143.875653 L 67.350651 110.092613 L 72.889482 84.044115 L 73.928013 80.220068 L 74.966544 77.351167 L 75.658898 75.969202 L 76.351252 75.011747 L 77.043606 74.4788 L 77.73596 74.370362 L 78.428314 74.686433 L 79.120668 75.427013 L 79.813022 76.592102 L 80.505376 78.1817 L 81.543907 81.362052 L 82.582437 85.497548 L 85.005676 97.146003 L 87.775092 109.686561 L 90.544508 121.186794 L 92.967746 130.396106 L 93.313923 131.444778 L 93.6601 131.932465 L 94.006277 131.853508 L 94.352454 131.207907 L 94.698631 129.995663 L 95.390985 125.871241 L 96.083339 119.480244 L 96.775693 110.822671 L 97.468047 99.898522 L 98.506578 81.398071 L 98.852755 77.541517 L 99.198932 75.309985 L 99.545109 74.703477 L 99.891285 75.721992 L 100.237462 78.365531 L 101.62217 94.226756 L 102.314524 99.59474 L 103.006878 103.045214 L 103.353055 104.051384 L 103.699232 104.578177 L 104.045409 104.625592 L 104.391586 104.19363 L 104.737763 103.28229 L 105.08394 101.891572 L 105.776294 97.672003 L 106.122471 95.440528 L 106.468648 94.004033 L 106.814825 93.363171 L 107.161002 93.517942 L 107.507179 94.468346 L 107.853356 96.214383 L 108.54571 102.093356 L 109.238063 111.154861 L 110.968948 138.331404 L 111.315125 140.504543 L 111.661302 141.274445 L 112.007479 140.641112 L 112.353656 138.685686 L 112.699833 137.581949 L 113.04601 138.300175 L 113.392187 140.840364 L 114.084541 148.933546 L 114.430718 150.055586 L 114.776895 148.56274 L 115.123072 144.455007 L 115.469249 137.732388 L 116.161603 120.235077 L 116.853957 108.562814 L 117.200134 105.279177 L 117.546311 103.697201 L 117.892487 103.816888 L 119.277195 110.522036 L 119.623372 111.268288 L 119.969549 111.568533 L 120.315726 111.422771 L 120.661903 110.831001 L 121.00808 109.793224 L 121.700434 106.379649 L 122.392788 101.182046 L 123.085142 94.200414 L 124.123673 80.382912 L 126.200735 48.908972 L 126.893088 44.196967 L 127.239265 43.188561 L 127.585442 43.078552 L 127.931619 43.866941 L 128.277796 45.553728 L 128.623973 48.138912 L 129.316327 56.004473 L 130.008681 67.463623 L 130.701035 82.516365 L 131.739566 111.833458 L 132.43192 132.348409 L 132.778097 138.23003 L 133.124274 140.857619 L 133.470451 140.231178 L 133.816628 136.350706 L 134.162805 129.216202 L 134.855159 112.613748 L 135.201336 110.074823 L 135.547513 111.824807 L 135.893689 117.863701 L 136.93222 149.347725 L 137.278397 149.35982 L 137.624574 141.69781 L 137.970751 126.361694 L 138.316928 103.351474 L 139.355459 15.827759 L 139.701636 11.060529 L 140.047813 23.076554 L 140.39399 51.875834 L 141.215648 173.8 M 146.149015 173.8 L 146.625175 153.134325 L 147.317529 131.963876 L 147.663706 125.134261 L 148.009883 120.808385 L 148.35606 118.986249 L 148.702237 119.667852 L 149.048414 122.774535 L 149.394591 123.902655 L 149.740768 120.51441 L 150.086945 112.609797 L 150.433122 100.188819 L 150.779299 97.197508 L 151.877404 173.8 M 153.342222 173.8 L 154.241068 134.732589 L 154.933422 113.008477 L 155.625776 99.175177 L 155.971953 95.217583 L 156.31813 93.232692 L 156.664307 92.149457 L 157.010484 90.39845 L 157.702838 84.852001 L 158.395192 76.579635 L 159.433723 60.347039 L 159.7799 57.892001 L 160.126077 58.251444 L 160.472254 61.42537 L 160.818431 67.413776 L 161.510785 87.834034 L 162.203139 111.125282 L 162.549316 115.592763 L 162.895492 114.867166 L 163.241669 108.948492 L 163.934023 93.355247 L 164.626377 82.141552 L 165.318731 75.319197 L 165.664908 73.554772 L 166.011085 72.888182 L 166.357262 72.85211 L 166.703439 72.64678 L 167.049616 72.258596 L 167.74197 70.933663 L 168.434324 68.87731 L 169.126678 66.089538 L 170.165209 61.43288 L 170.857563 59.780239 L 171.20374 59.45676 L 171.549917 59.468507 L 171.896093 59.815482 L 172.24227 60.497684 L 172.934624 62.867769 L 173.626978 66.578763 L 174.319332 71.630666 L 175.011686 78.023477 L 176.050217 90.126898 L 177.088748 105.247364 L 178.127279 121.639648 L 178.819633 129.869339 L 179.511987 135.64384 L 180.204341 138.963152 L 180.550518 139.702111 L 180.896694 139.827273 L 181.242871 139.338637 L 181.589048 138.236205 L 181.935225 136.519974 L 182.627579 131.246121 L 183.319933 123.517078 L 185.050818 99.947235 L 185.396995 97.419133 L 185.743172 95.951686 L 186.089349 95.545788 L 186.435526 96.289999 L 186.781703 98.243009 L 187.12788 101.404818 L 187.820234 111.354832 L 188.512588 123.642256 L 189.204942 132.467979 L 189.897295 137.596771 L 190.243472 138.774818 L 190.589649 139.028631 L 190.935826 138.358212 L 191.282003 136.76356 L 191.62818 134.244675 L 192.320534 126.480616 L 193.359065 114.057936 L 194.397596 103.794417 L 195.436127 95.690059 L 196.474658 89.744862 L 197.167012 86.980931 L 197.859366 85.176627 L 198.205543 84.634335 L 198.55172 84.33195 L 198.897896 84.269472 L 199.244073 84.4469 L 199.936427 85.37763 L 201.667312 87.717365 L 203.398197 89.674314 L 205.129082 91.248476 L 205.821436 91.747779 L 206.167613 91.657433 L 206.51379 91.163035 L 206.859967 90.264584 L 207.552321 87.255525 L 208.244674 82.630256 L 208.937028 76.388778 L 209.629382 68.531091 L 210.667913 53.714167 L 212.052621 31.56962 L 212.398798 29.189902 L 212.744975 28.673667 L 213.091152 30.020914 L 213.437329 33.231642 L 213.783506 38.305853 L 214.47586 54.044721 L 215.168214 77.237517 L 215.860568 107.884241 L 217.042481 173.8 M 217.950794 173.8 L 218.283806 152.183144 L 218.97616 72.176977 L 219.668514 8.902411 L 219.912222 -1 M 220.601775 -1 L 220.707045 1.847045 L 221.745576 58.565405 L 222.43793 87.188106 L 223.130284 107.362691 L 223.822638 119.08916 L 224.168815 121.784351 L 224.514992 122.367513 L 224.861169 120.838646 L 225.207346 117.197749 L 225.553523 111.444824 L 226.245876 93.602886 L 226.93823 67.312831 L 227.630584 32.57466 L 228.176031 -1 L 228.176031 -1" clip-path="url(#p78186a817b)" style="fill:none;stroke:#1f77b4;stroke-linecap:square;stroke-width:3"/></g><g id="patch_3"><path d="M 23.04 155.52 L 23.04 0" style="fill:none;stroke:#000;stroke-linecap:square;stroke-linejoin:miter;stroke-width:.8"/></g><g id="patch_4"><path d="M 23.04 155.52 L 230.4 155.52" style="fill:none;stroke:#000;stroke-linecap:square;stroke-linejoin:miter;stroke-width:.8"/></g><g id="PathCollection_1"><defs><path id="mc5483ca9e4" d="M 0 1.5 C 0.397805 1.5 0.77937 1.341951 1.06066 1.06066 C 1.341951 0.77937 1.5 0.397805 1.5 0 C 1.5 -0.397805 1.341951 -0.77937 1.06066 -1.06066 C 0.77937 -1.341951 0.397805 -1.5 0 -1.5 C -0.397805 -1.5 -0.77937 -1.341951 -1.06066 -1.06066 C -1.341951 -0.77937 -1.5 -0.397805 -1.5 0 C -1.5 0.397805 -1.341951 0.77937 -1.06066 1.06066 C -0.77937 1.341951 -0.397805 1.5 0 1.5 z" style="stroke:#000"/></defs><g clip-path="url(#p78186a817b)"><use style="stroke:#000" x="136.842" y="148.083" xlink:href="#mc5483ca9e4"/><use style="stroke:#000" x="171.342" y="59.421" xlink:href="#mc5483ca9e4"/><use style="stroke:#000" x="148.029" y="120.642" xlink:href="#mc5483ca9e4"/><use style="stroke:#000" x="136.027" y="121.332" xlink:href="#mc5483ca9e4"/><use style="stroke:#000" x="110.889" y="137.631" xlink:href="#mc5483ca9e4"/><use style="stroke:#000" x="156.973" y="90.623" xlink:href="#mc5483ca9e4"/><use style="stroke:#000" x="113.778" y="145.758" xlink:href="#mc5483ca9e4"/><use style="stroke:#000" x="207.958" y="84.741" xlink:href="#mc5483ca9e4"/><use style="stroke:#000" x="222.865" y="100.634" xlink:href="#mc5483ca9e4"/><use style="stroke:#000" x="102.55" y="100.986" xlink:href="#mc5483ca9e4"/><use style="stroke:#000" x="187.212" y="102.357" xlink:href="#mc5483ca9e4"/><use style="stroke:#000" x="132.712" y="137.353" xlink:href="#mc5483ca9e4"/><use style="stroke:#000" x="140.83" y="111.983" xlink:href="#mc5483ca9e4"/><use style="stroke:#000" x="214.972" y="69.898" xlink:href="#mc5483ca9e4"/><use style="stroke:#000" x="37.77" y="51.265" xlink:href="#mc5483ca9e4"/><use style="stroke:#000" x="41.107" y="53.001" xlink:href="#mc5483ca9e4"/><use style="stroke:#000" x="27.232" y="36.734" xlink:href="#mc5483ca9e4"/><use style="stroke:#000" x="195.692" y="94.025" xlink:href="#mc5483ca9e4"/><use style="stroke:#000" x="184.399" y="107.507" xlink:href="#mc5483ca9e4"/><use style="stroke:#000" x="203.446" y="89.723" xlink:href="#mc5483ca9e4"/><use style="stroke:#000" x="225.966" y="101.825" xlink:href="#mc5483ca9e4"/><use style="stroke:#000" x="188.754" y="127.133" xlink:href="#mc5483ca9e4"/><use style="stroke:#000" x="118.732" y="108.444" xlink:href="#mc5483ca9e4"/><use style="stroke:#000" x="184.891" y="101.477" xlink:href="#mc5483ca9e4"/><use style="stroke:#000" x="47.565" y="104.602" xlink:href="#mc5483ca9e4"/><use style="stroke:#000" x="155.734" y="97.726" xlink:href="#mc5483ca9e4"/><use style="stroke:#000" x="52.766" y="96.217" xlink:href="#mc5483ca9e4"/><use style="stroke:#000" x="218.927" y="78.51" xlink:href="#mc5483ca9e4"/><use style="stroke:#000" x="131.25" y="97.019" xlink:href="#mc5483ca9e4"/><use style="stroke:#000" x="109.024" y="108.018" xlink:href="#mc5483ca9e4"/><use style="stroke:#000" x="77.898" y="74.406" xlink:href="#mc5483ca9e4"/><use style="stroke:#000" x="183.585" y="119.907" xlink:href="#mc5483ca9e4"/><use style="stroke:#000" x="117.627" y="103.573" xlink:href="#mc5483ca9e4"/><use style="stroke:#000" x="140.91" y="125.869" xlink:href="#mc5483ca9e4"/><use style="stroke:#000" x="26.936" y="40.68" xlink:href="#mc5483ca9e4"/><use style="stroke:#000" x="151.113" y="121.259" xlink:href="#mc5483ca9e4"/><use style="stroke:#000" x="149.964" y="115.93" xlink:href="#mc5483ca9e4"/><use style="stroke:#000" x="150.967" y="107.859" xlink:href="#mc5483ca9e4"/><use style="stroke:#000" x="218.736" y="104.213" xlink:href="#mc5483ca9e4"/><use style="stroke:#000" x="164.422" y="84.991" xlink:href="#mc5483ca9e4"/><use style="stroke:#000" x="97.588" y="97.783" xlink:href="#mc5483ca9e4"/><use style="stroke:#000" x="113.663" y="144.097" xlink:href="#mc5483ca9e4"/><use style="stroke:#000" x="167.701" y="71.033" xlink:href="#mc5483ca9e4"/><use style="stroke:#000" x="35.528" y="7.437" xlink:href="#mc5483ca9e4"/><use style="stroke:#000" x="161.301" y="80.45" xlink:href="#mc5483ca9e4"/><use style="stroke:#000" x="162.103" y="108.876" xlink:href="#mc5483ca9e4"/><use style="stroke:#000" x="66.665" y="113.388" xlink:href="#mc5483ca9e4"/><use style="stroke:#000" x="49.774" y="50.866" xlink:href="#mc5483ca9e4"/><use style="stroke:#000" x="88.447" y="112.573" xlink:href="#mc5483ca9e4"/><use style="stroke:#000" x="98.459" y="82.054" xlink:href="#mc5483ca9e4"/></g></g></g></g><defs><clipPath id="p78186a817b"><rect width="207.36" height="155.52" x="23.04" y="0"/></clipPath></defs></svg>