<svg xmlns="http://www.w3.org/2000/svg" xmlns:xlink="http://www.w3.org/1999/xlink" width="781.98" height="304.38" version="1.1" viewBox="0 0 586.485 228.285"><defs><style type="text/css">*{stroke-linecap:butt;stroke-linejoin:round}</style></defs><g id="figure_1"><g id="patch_1"><path d="M 0 228.285 L 586.485 228.285 L 586.485 0 L 0 0 z" style="fill:none"/></g><g id="axes_1"><g id="patch_2"><path d="M 26.685 201.6 L 458.685 201.6 L 458.685 7.2 L 26.685 7.2 z" style="fill:none"/></g><g id="PathCollection_1"><defs><path id="m7e37361622" d="M 0 3.162278 C 0.838646 3.162278 1.643056 2.82908 2.236068 2.236068 C 2.82908 1.643056 3.162278 0.838646 3.162278 0 C 3.162278 -0.838646 2.82908 -1.643056 2.236068 -2.236068 C 1.643056 -2.82908 0.838646 -3.162278 0 -3.162278 C -0.838646 -3.162278 -1.643056 -2.82908 -2.236068 -2.236068 C -2.82908 -1.643056 -3.162278 -0.838646 -3.162278 0 C -3.162278 0.838646 -2.82908 1.643056 -2.236068 2.236068 C -1.643056 2.82908 -0.838646 3.162278 0 3.162278 z" style="stroke:#000"/></defs><g clip-path="url(#p4a2ffbb093)"><use style="stroke:#000" x="26.734" y="165.308" xlink:href="#m7e37361622"/><use style="stroke:#000" x="34.586" y="95.21" xlink:href="#m7e37361622"/><use style="stroke:#000" x="35.052" y="94.907" xlink:href="#m7e37361622"/><use style="stroke:#000" x="38.516" y="92.656" xlink:href="#m7e37361622"/><use style="stroke:#000" x="43.557" y="89.406" xlink:href="#m7e37361622"/><use style="stroke:#000" x="48.265" y="107.366" xlink:href="#m7e37361622"/><use style="stroke:#000" x="49.738" y="85.473" xlink:href="#m7e37361622"/><use style="stroke:#000" x="63.424" y="77.062" xlink:href="#m7e37361622"/><use style="stroke:#000" x="66.575" y="75.2" xlink:href="#m7e37361622"/><use style="stroke:#000" x="69.171" y="73.692" xlink:href="#m7e37361622"/><use style="stroke:#000" x="70.893" y="115.24" xlink:href="#m7e37361622"/><use style="stroke:#000" x="71.279" y="72.485" xlink:href="#m7e37361622"/><use style="stroke:#000" x="82.857" y="66.17" xlink:href="#m7e37361622"/><use style="stroke:#000" x="86.074" y="64.519" xlink:href="#m7e37361622"/><use style="stroke:#000" x="86.852" y="64.127" xlink:href="#m7e37361622"/><use style="stroke:#000" x="87.332" y="38.276" xlink:href="#m7e37361622"/><use style="stroke:#000" x="90.072" y="62.538" xlink:href="#m7e37361622"/><use style="stroke:#000" x="90.084" y="62.532" xlink:href="#m7e37361622"/><use style="stroke:#000" x="98.118" y="58.799" xlink:href="#m7e37361622"/><use style="stroke:#000" x="100.052" y="57.953" xlink:href="#m7e37361622"/><use style="stroke:#000" x="107.149" y="16.036" xlink:href="#m7e37361622"/><use style="stroke:#000" x="112.265" y="53.118" xlink:href="#m7e37361622"/><use style="stroke:#000" x="115.008" y="52.158" xlink:href="#m7e37361622"/><use style="stroke:#000" x="118.108" y="51.132" xlink:href="#m7e37361622"/><use style="stroke:#000" x="141.401" y="45.53" xlink:href="#m7e37361622"/><use style="stroke:#000" x="147.837" y="111.773" xlink:href="#m7e37361622"/><use style="stroke:#000" x="151.004" y="44.36" xlink:href="#m7e37361622"/><use style="stroke:#000" x="153.526" y="44.167" xlink:href="#m7e37361622"/><use style="stroke:#000" x="157.293" y="43.968" xlink:href="#m7e37361622"/><use style="stroke:#000" x="162.084" y="43.869" xlink:href="#m7e37361622"/><use style="stroke:#000" x="162.988" y="31.682" xlink:href="#m7e37361622"/><use style="stroke:#000" x="175.967" y="44.564" xlink:href="#m7e37361622"/><use style="stroke:#000" x="176.92" y="44.665" xlink:href="#m7e37361622"/><use style="stroke:#000" x="198.089" y="48.621" xlink:href="#m7e37361622"/><use style="stroke:#000" x="198.481" y="48.724" xlink:href="#m7e37361622"/><use style="stroke:#000" x="205.557" y="129.562" xlink:href="#m7e37361622"/><use style="stroke:#000" x="205.61" y="50.788" xlink:href="#m7e37361622"/><use style="stroke:#000" x="206.839" y="51.178" xlink:href="#m7e37361622"/><use style="stroke:#000" x="206.961" y="51.218" xlink:href="#m7e37361622"/><use style="stroke:#000" x="207.777" y="51.483" xlink:href="#m7e37361622"/><use style="stroke:#000" x="208.603" y="79.46" xlink:href="#m7e37361622"/><use style="stroke:#000" x="220.175" y="56.037" xlink:href="#m7e37361622"/><use style="stroke:#000" x="239.045" y="64.679" xlink:href="#m7e37361622"/><use style="stroke:#000" x="249.117" y="70.016" xlink:href="#m7e37361622"/><use style="stroke:#000" x="257.012" y="74.491" xlink:href="#m7e37361622"/><use style="stroke:#000" x="258.192" y="95.807" xlink:href="#m7e37361622"/><use style="stroke:#000" x="259.454" y="75.92" xlink:href="#m7e37361622"/><use style="stroke:#000" x="268.039" y="81.094" xlink:href="#m7e37361622"/><use style="stroke:#000" x="274.704" y="85.244" xlink:href="#m7e37361622"/><use style="stroke:#000" x="280.077" y="88.657" xlink:href="#m7e37361622"/><use style="stroke:#000" x="281.265" y="24.117" xlink:href="#m7e37361622"/><use style="stroke:#000" x="313.444" y="110.339" xlink:href="#m7e37361622"/><use style="stroke:#000" x="316.327" y="112.188" xlink:href="#m7e37361622"/><use style="stroke:#000" x="319.942" y="114.489" xlink:href="#m7e37361622"/><use style="stroke:#000" x="322.7" y="116.228" xlink:href="#m7e37361622"/><use style="stroke:#000" x="323.253" y="192.764" xlink:href="#m7e37361622"/><use style="stroke:#000" x="325.576" y="118.024" xlink:href="#m7e37361622"/><use style="stroke:#000" x="325.768" y="118.143" xlink:href="#m7e37361622"/><use style="stroke:#000" x="326.666" y="118.7" xlink:href="#m7e37361622"/><use style="stroke:#000" x="328.981" y="120.125" xlink:href="#m7e37361622"/><use style="stroke:#000" x="337.865" y="116.964" xlink:href="#m7e37361622"/><use style="stroke:#000" x="340.316" y="126.88" xlink:href="#m7e37361622"/><use style="stroke:#000" x="349.893" y="132.236" xlink:href="#m7e37361622"/><use style="stroke:#000" x="350.747" y="132.696" xlink:href="#m7e37361622"/><use style="stroke:#000" x="351.036" y="132.851" xlink:href="#m7e37361622"/><use style="stroke:#000" x="367.654" y="154.376" xlink:href="#m7e37361622"/><use style="stroke:#000" x="372.607" y="143.266" xlink:href="#m7e37361622"/><use style="stroke:#000" x="375.478" y="144.464" xlink:href="#m7e37361622"/><use style="stroke:#000" x="387.243" y="148.851" xlink:href="#m7e37361622"/><use style="stroke:#000" x="405.285" y="153.813" xlink:href="#m7e37361622"/><use style="stroke:#000" x="406.032" y="138.398" xlink:href="#m7e37361622"/><use style="stroke:#000" x="406.043" y="153.971" xlink:href="#m7e37361622"/><use style="stroke:#000" x="413.155" y="155.259" xlink:href="#m7e37361622"/><use style="stroke:#000" x="416.955" y="155.794" xlink:href="#m7e37361622"/><use style="stroke:#000" x="419.198" y="156.061" xlink:href="#m7e37361622"/><use style="stroke:#000" x="427.369" y="112.137" xlink:href="#m7e37361622"/><use style="stroke:#000" x="434.75" y="156.866" xlink:href="#m7e37361622"/><use style="stroke:#000" x="440.493" y="156.702" xlink:href="#m7e37361622"/><use style="stroke:#000" x="444.974" y="156.401" xlink:href="#m7e37361622"/><use style="stroke:#000" x="453.873" y="155.357" xlink:href="#m7e37361622"/></g></g><g id="matplotlib.axis_1"><g id="text_1"><defs><path id="DejaVuSans-Bold-120" d="M 22.21875 27.984375 L 2.484375 54.6875 L 21 54.6875 L 32.171875 38.484375 L 43.5 54.6875 L 62.015625 54.6875 L 42.28125 28.078125 L 62.984375 0 L 44.484375 0 L 32.171875 17.28125 L 20.015625 0 L 1.515625 0 z"/></defs><g transform="translate(237.525 217.7575)scale(0.16 -0.16)"><use xlink:href="#DejaVuSans-Bold-120"/></g></g></g><g id="matplotlib.axis_2"><g id="text_2"><defs><path id="DejaVuSans-Bold-121" d="M 1.21875 54.6875 L 18.703125 54.6875 L 33.40625 17.578125 L 45.90625 54.6875 L 63.375 54.6875 L 40.375 -5.171875 Q 36.921875 -14.3125 32.296875 -17.9375 Q 27.6875 -21.578125 20.125 -21.578125 L 10.015625 -21.578125 L 10.015625 -10.109375 L 15.484375 -10.109375 Q 19.921875 -10.109375 21.9375 -8.6875 Q 23.96875 -7.28125 25.09375 -3.609375 L 25.59375 -2.09375 z"/></defs><g transform="translate(19.2325 109.615)rotate(-90)scale(0.16 -0.16)"><use xlink:href="#DejaVuSans-Bold-121"/></g></g></g><g id="line2d_1"><path d="M 31.005 97.41088 L 75.069 97.41088 L 75.933 60.037998 L 301.437 60.037998 L 302.301 125.901841 L 363.645 125.901841 L 364.509 149.447715 L 462.141 149.447715 L 462.141 149.447715" clip-path="url(#p4a2ffbb093)" style="fill:none;stroke:#1f77b4;stroke-linecap:square;stroke-width:4"/></g><g id="line2d_2"><path d="M 26.685 165.307529 L 30.141 165.307529 L 31.005 95.909087 L 48.285 95.909087 L 49.149 77.856774 L 69.885 77.856774 L 70.749 115.239624 L 71.613 54.669666 L 144.189 54.669666 L 145.053 111.772924 L 149.373 111.772924 L 150.237 42.467868 L 187.389 42.467868 L 188.253 48.672344 L 201.213 48.672344 L 202.077 129.562345 L 205.533 129.562345 L 206.397 69.719464 L 279.837 69.719464 L 280.701 24.117077 L 297.117 24.117077 L 297.981 110.338826 L 314.397 110.338826 L 315.261 112.188445 L 317.853 112.188445 L 318.717 114.489098 L 321.309 114.489098 L 322.173 116.22786 L 323.037 192.763636 L 323.901 192.763636 L 324.765 118.391109 L 338.589 118.391109 L 339.453 131.165591 L 359.325 131.165591 L 360.189 147.194679 L 405.981 147.194679 L 406.845 155.271268 L 423.261 155.271268 L 424.125 112.137194 L 431.037 112.137194 L 431.901 156.784016 L 442.269 156.784016 L 443.133 156.400564 L 449.181 156.400564 L 450.045 155.356793 L 457.821 155.356793 L 457.821 155.356793" clip-path="url(#p4a2ffbb093)" style="fill:none;stroke:#ff7f0e;stroke-linecap:square;stroke-width:4"/></g><g id="patch_3"><path d="M 26.685 201.6 L 26.685 7.2" style="fill:none;stroke:#000;stroke-linecap:square;stroke-linejoin:miter;stroke-width:.8"/></g><g id="patch_4"><path d="M 26.685 201.6 L 458.685 201.6" style="fill:none;stroke:#000;stroke-linecap:square;stroke-linejoin:miter;stroke-width:.8"/></g><g id="legend_1"><g id="PathCollection_2"><g><use style="stroke:#000" x="423.231" y="32.352" xlink:href="#m7e37361622"/></g></g><g id="text_3"><defs><path id="DejaVuSans-100" d="M 45.40625 46.390625 L 45.40625 75.984375 L 54.390625 75.984375 L 54.390625 0 L 45.40625 0 L 45.40625 8.203125 Q 42.578125 3.328125 38.25 0.953125 Q 33.9375 -1.421875 27.875 -1.421875 Q 17.96875 -1.421875 11.734375 6.484375 Q 5.515625 14.40625 5.515625 27.296875 Q 5.515625 40.1875 11.734375 48.09375 Q 17.96875 56 27.875 56 Q 33.9375 56 38.25 53.625 Q 42.578125 51.265625 45.40625 46.390625 z M 14.796875 27.296875 Q 14.796875 17.390625 18.875 11.75 Q 22.953125 6.109375 30.078125 6.109375 Q 37.203125 6.109375 41.296875 11.75 Q 45.40625 17.390625 45.40625 27.296875 Q 45.40625 37.203125 41.296875 42.84375 Q 37.203125 48.484375 30.078125 48.484375 Q 22.953125 48.484375 18.875 42.84375 Q 14.796875 37.203125 14.796875 27.296875 z"/><path id="DejaVuSans-97" d="M 34.28125 27.484375 Q 23.390625 27.484375 19.1875 25 Q 14.984375 22.515625 14.984375 16.5 Q 14.984375 11.71875 18.140625 8.90625 Q 21.296875 6.109375 26.703125 6.109375 Q 34.1875 6.109375 38.703125 11.40625 Q 43.21875 16.703125 43.21875 25.484375 L 43.21875 27.484375 z M 52.203125 31.203125 L 52.203125 0 L 43.21875 0 L 43.21875 8.296875 Q 40.140625 3.328125 35.546875 0.953125 Q 30.953125 -1.421875 24.3125 -1.421875 Q 15.921875 -1.421875 10.953125 3.296875 Q 6 8.015625 6 15.921875 Q 6 25.140625 12.171875 29.828125 Q 18.359375 34.515625 30.609375 34.515625 L 43.21875 34.515625 L 43.21875 35.40625 Q 43.21875 41.609375 39.140625 45 Q 35.0625 48.390625 27.6875 48.390625 Q 23 48.390625 18.546875 47.265625 Q 14.109375 46.140625 10.015625 43.890625 L 10.015625 52.203125 Q 14.9375 54.109375 19.578125 55.046875 Q 24.21875 56 28.609375 56 Q 40.484375 56 46.34375 49.84375 Q 52.203125 43.703125 52.203125 31.203125 z"/><path id="DejaVuSans-116" d="M 18.3125 70.21875 L 18.3125 54.6875 L 36.8125 54.6875 L 36.8125 47.703125 L 18.3125 47.703125 L 18.3125 18.015625 Q 18.3125 11.328125 20.140625 9.421875 Q 21.96875 7.515625 27.59375 7.515625 L 36.8125 7.515625 L 36.8125 0 L 27.59375 0 Q 17.1875 0 13.234375 3.875 Q 9.28125 7.765625 9.28125 18.015625 L 9.28125 47.703125 L 2.6875 47.703125 L 2.6875 54.6875 L 9.28125 54.6875 L 9.28125 70.21875 z"/><path id="DejaVuSans-32"/></defs><g transform="translate(445.730625 37.077188)scale(0.18 -0.18)"><use xlink:href="#DejaVuSans-100"/><use x="63.477" xlink:href="#DejaVuSans-97"/><use x="124.756" xlink:href="#DejaVuSans-116"/><use x="163.965" xlink:href="#DejaVuSans-97"/><use x="225.244" xlink:href="#DejaVuSans-32"/><use x="257.031" xlink:href="#DejaVuSans-32"/><use x="288.818" xlink:href="#DejaVuSans-32"/><use x="320.605" xlink:href="#DejaVuSans-32"/><use x="352.393" xlink:href="#DejaVuSans-32"/><use x="384.18" xlink:href="#DejaVuSans-32"/><use x="415.967" xlink:href="#DejaVuSans-32"/><use x="447.754" xlink:href="#DejaVuSans-32"/><use x="479.541" xlink:href="#DejaVuSans-32"/><use x="511.328" xlink:href="#DejaVuSans-32"/><use x="543.115" xlink:href="#DejaVuSans-32"/><use x="574.902" xlink:href="#DejaVuSans-32"/><use x="606.689" xlink:href="#DejaVuSans-32"/><use x="638.477" xlink:href="#DejaVuSans-32"/><use x="670.264" xlink:href="#DejaVuSans-32"/></g></g><g id="line2d_3"><path d="M 409.730625 57.197813 L 436.730625 57.197813" style="fill:none;stroke:#1f77b4;stroke-linecap:square;stroke-width:4"/></g><g id="text_4"><defs><path id="DejaVuSans-101" d="M 56.203125 29.59375 L 56.203125 25.203125 L 14.890625 25.203125 Q 15.484375 15.921875 20.484375 11.0625 Q 25.484375 6.203125 34.421875 6.203125 Q 39.59375 6.203125 44.453125 7.46875 Q 49.3125 8.734375 54.109375 11.28125 L 54.109375 2.78125 Q 49.265625 0.734375 44.1875 -0.34375 Q 39.109375 -1.421875 33.890625 -1.421875 Q 20.796875 -1.421875 13.15625 6.1875 Q 5.515625 13.8125 5.515625 26.8125 Q 5.515625 40.234375 12.765625 48.109375 Q 20.015625 56 32.328125 56 Q 43.359375 56 49.78125 48.890625 Q 56.203125 41.796875 56.203125 29.59375 z M 47.21875 32.234375 Q 47.125 39.59375 43.09375 43.984375 Q 39.0625 48.390625 32.421875 48.390625 Q 24.90625 48.390625 20.390625 44.140625 Q 15.875 39.890625 15.1875 32.171875 z"/><path id="DejaVuSans-112" d="M 18.109375 8.203125 L 18.109375 -20.796875 L 9.078125 -20.796875 L 9.078125 54.6875 L 18.109375 54.6875 L 18.109375 46.390625 Q 20.953125 51.265625 25.265625 53.625 Q 29.59375 56 35.59375 56 Q 45.5625 56 51.78125 48.09375 Q 58.015625 40.1875 58.015625 27.296875 Q 58.015625 14.40625 51.78125 6.484375 Q 45.5625 -1.421875 35.59375 -1.421875 Q 29.59375 -1.421875 25.265625 0.953125 Q 20.953125 3.328125 18.109375 8.203125 z M 48.6875 27.296875 Q 48.6875 37.203125 44.609375 42.84375 Q 40.53125 48.484375 33.40625 48.484375 Q 26.265625 48.484375 22.1875 42.84375 Q 18.109375 37.203125 18.109375 27.296875 Q 18.109375 17.390625 22.1875 11.75 Q 26.265625 6.109375 33.40625 6.109375 Q 40.53125 6.109375 44.609375 11.75 Q 48.6875 17.390625 48.6875 27.296875 z"/><path id="DejaVuSans-104" d="M 54.890625 33.015625 L 54.890625 0 L 45.90625 0 L 45.90625 32.71875 Q 45.90625 40.484375 42.875 44.328125 Q 39.84375 48.1875 33.796875 48.1875 Q 26.515625 48.1875 22.3125 43.546875 Q 18.109375 38.921875 18.109375 30.90625 L 18.109375 0 L 9.078125 0 L 9.078125 75.984375 L 18.109375 75.984375 L 18.109375 46.1875 Q 21.34375 51.125 25.703125 53.5625 Q 30.078125 56 35.796875 56 Q 45.21875 56 50.046875 50.171875 Q 54.890625 44.34375 54.890625 33.015625 z"/><path id="DejaVuSans-61" d="M 10.59375 45.40625 L 73.1875 45.40625 L 73.1875 37.203125 L 10.59375 37.203125 z M 10.59375 25.484375 L 73.1875 25.484375 L 73.1875 17.1875 L 10.59375 17.1875 z"/><path id="DejaVuSans-50" d="M 19.1875 8.296875 L 53.609375 8.296875 L 53.609375 0 L 7.328125 0 L 7.328125 8.296875 Q 12.9375 14.109375 22.625 23.890625 Q 32.328125 33.6875 34.8125 36.53125 Q 39.546875 41.84375 41.421875 45.53125 Q 43.3125 49.21875 43.3125 52.78125 Q 43.3125 58.59375 39.234375 62.25 Q 35.15625 65.921875 28.609375 65.921875 Q 23.96875 65.921875 18.8125 64.3125 Q 13.671875 62.703125 7.8125 59.421875 L 7.8125 69.390625 Q 13.765625 71.78125 18.9375 73 Q 24.125 74.21875 28.421875 74.21875 Q 39.75 74.21875 46.484375 68.546875 Q 53.21875 62.890625 53.21875 53.421875 Q 53.21875 48.921875 51.53125 44.890625 Q 49.859375 40.875 45.40625 35.40625 Q 44.1875 33.984375 37.640625 27.21875 Q 31.109375 20.453125 19.1875 8.296875 z"/></defs><g transform="translate(445.730625 63.497813)scale(0.18 -0.18)"><use xlink:href="#DejaVuSans-100"/><use x="63.477" xlink:href="#DejaVuSans-101"/><use x="125" xlink:href="#DejaVuSans-112"/><use x="188.477" xlink:href="#DejaVuSans-116"/><use x="227.686" xlink:href="#DejaVuSans-104"/><use x="291.064" xlink:href="#DejaVuSans-61"/><use x="374.854" xlink:href="#DejaVuSans-50"/></g></g><g id="line2d_5"><path d="M 409.730625 83.618438 L 436.730625 83.618438" style="fill:none;stroke:#ff7f0e;stroke-linecap:square;stroke-width:4"/></g><g id="text_5"><defs><path id="DejaVuSans-53" d="M 10.796875 72.90625 L 49.515625 72.90625 L 49.515625 64.59375 L 19.828125 64.59375 L 19.828125 46.734375 Q 21.96875 47.46875 24.109375 47.828125 Q 26.265625 48.1875 28.421875 48.1875 Q 40.625 48.1875 47.75 41.5 Q 54.890625 34.8125 54.890625 23.390625 Q 54.890625 11.625 47.5625 5.09375 Q 40.234375 -1.421875 26.90625 -1.421875 Q 22.3125 -1.421875 17.546875 -0.640625 Q 12.796875 0.140625 7.71875 1.703125 L 7.71875 11.625 Q 12.109375 9.234375 16.796875 8.0625 Q 21.484375 6.890625 26.703125 6.890625 Q 35.15625 6.890625 40.078125 11.328125 Q 45.015625 15.765625 45.015625 23.390625 Q 45.015625 31 40.078125 35.4375 Q 35.15625 39.890625 26.703125 39.890625 Q 22.75 39.890625 18.8125 39.015625 Q 14.890625 38.140625 10.796875 36.28125 z"/></defs><g transform="translate(445.730625 89.918438)scale(0.18 -0.18)"><use xlink:href="#DejaVuSans-100"/><use x="63.477" xlink:href="#DejaVuSans-101"/><use x="125" xlink:href="#DejaVuSans-112"/><use x="188.477" xlink:href="#DejaVuSans-116"/><use x="227.686" xlink:href="#DejaVuSans-104"/><use x="291.064" xlink:href="#DejaVuSans-61"/><use x="374.854" xlink:href="#DejaVuSans-53"/></g></g></g></g></g><defs><clipPath id="p4a2ffbb093"><rect width="432" height="194.4" x="26.685" y="7.2"/></clipPath></defs></svg>